SplineFontDB: 3.0
FontName: CrimsonText-Bold
FullName: Crimson Text Bold
FamilyName: Crimson Text
Weight: Bold
Copyright: Copyright (c) 2010, Sebastian Kosch (sebastian@aldusleaf.org),\nwith Reserved Font Name "Crimson Text".\nThis Font Software is licensed under the SIL Open Font License, Version 1.1.\nThis license is available with a FAQ at: http://scripts.sil.org/OFL
UComments: "2010-5-14: Created." 
Version: 0.12
ItalicAngle: 0
UnderlinePosition: -102
UnderlineWidth: 51
Ascent: 717
Descent: 307
LayerCount: 2
Layer: 0 0 "Back"  1
Layer: 1 0 "Fore"  0
NeedsXUIDChange: 1
XUID: [1021 85 519305545 5082149]
FSType: 0
OS2Version: 0
OS2_WeightWidthSlopeOnly: 0
OS2_UseTypoMetrics: 1
CreationTime: 1273891947
ModificationTime: 1290540883
PfmFamily: 17
TTFWeight: 700
TTFWidth: 5
LineGap: 92
VLineGap: 0
OS2TypoAscent: 0
OS2TypoAOffset: 1
OS2TypoDescent: 0
OS2TypoDOffset: 1
OS2TypoLinegap: 92
OS2WinAscent: 0
OS2WinAOffset: 1
OS2WinDescent: 0
OS2WinDOffset: 1
HheadAscent: 0
HheadAOffset: 1
HheadDescent: 0
HheadDOffset: 1
OS2Vendor: 'PfEd'
Lookup: 1 0 0 "'onum' Oldstyle Figures in Latin lookup 3"  {"'onum' Oldstyle Figures in Latin lookup 3-1" ("oldstyle" ) } ['onum' ('DFLT' <'dflt' > 'latn' <'dflt' > ) ]
Lookup: 1 0 0 "'smcp' Lowercase to Small Capitals in Latin lookup 0"  {"'smcp' Lowercase to Small Capitals in Latin lookup 0 subtable" ("sc" ) } ['smcp' ('DFLT' <'dflt' > 'latn' <'dflt' > ) ]
Lookup: 1 0 0 "'c2sc' Capitals to Small Capitals in Latin lookup 0"  {"'c2sc' Capitals to Small Capitals in Latin lookup 0 subtable"  } ['c2sc' ('DFLT' <'dflt' > 'latn' <'dflt' > ) ]
Lookup: 4 0 1 "'liga' Standard Ligatures in Latin lookup 0"  {"'liga' Standard Ligatures in Latin lookup 0-1"  } ['liga' ('DFLT' <'dflt' > 'latn' <'dflt' > ) ]
MarkAttachClasses: 1
DEI: 91125
LangName: 1033 
Encoding: UnicodeBmp
UnicodeInterp: none
NameList: Adobe Glyph List
DisplaySize: -24
AntiAlias: 1
FitToEm: 1
WidthSeparation: 70
WinInfo: 912 12 11
BeginPrivate: 3

StartChar: exclam
Encoding: 33 33 1
Width: 193
Flags: W
HStem: -11 150<47.2891 148.25> 622 20G<82 115.5>
VStem: 23 147<13.4641 117.875> 34 128<370.997 626.241>
LayerCount: 2
Fore
SplineSet
100 642 m 0xd0
 131 642 162 617 162 574 c 0
 162 546 133 309 120 221 c 0
 117 201 102 190 87 190 c 0
 82 190 77 200 75 212 c 0
 64 279 34 524 34 575 c 0
 34 617 64 642 100 642 c 0xd0
23 66 m 0xe0
 23 108 57 139 95 139 c 0
 137 139 170 107 170 66 c 0
 170 25 139 -11 99 -11 c 0
 62 -11 23 21 23 66 c 0xe0
EndSplineSet
Validated: 1
Substitution2: "'smcp' Lowercase to Small Capitals in Latin lookup 0 subtable" exclam.sc
EndChar

StartChar: quotedbl
Encoding: 34 34 2
Width: 323
Flags: W
HStem: 434 264<62.0527 99.9451 225.42 260.945>
VStem: 28 103<522.226 678.189> 192 102<522.226 679.379>
LayerCount: 2
Back
SplineSet
112 698 m 2
 126 698 l 2
 142 698 156 692 156 633 c 0
 156 577 131 516 125 449 c 0
 124 439 116 434 109 434 c 0
 101 434 92 439 91 447 c 0
 82 537 57 594 57 635 c 0
 57 653 86 698 112 698 c 2
275 698 m 2
 290 698 l 2
 306 698 319 692 319 633 c 0
 319 577 292 516 286 449 c 0
 285 439 277 434 270 434 c 0
 263 434 256 439 255 447 c 0
 246 537 221 594 221 635 c 0
 221 653 249 698 275 698 c 2
EndSplineSet
Fore
SplineSet
83 698 m 2
 101 698 l 2
 117 698 131 692 131 633 c 0
 131 577 106 516 100 449 c 0
 99 439 87 434 80 434 c 0
 72 434 63 439 62 447 c 0
 53 537 28 594 28 635 c 0
 28 653 57 698 83 698 c 2
246 698 m 6
 265 698 l 6
 281 698 294 692 294 633 c 4
 294 577 267 516 261 449 c 4
 260 439 248 434 241 434 c 4
 234 434 227 439 226 447 c 4
 217 537 192 594 192 635 c 4
 192 653 220 698 246 698 c 6
EndSplineSet
Validated: 1
Substitution2: "'smcp' Lowercase to Small Capitals in Latin lookup 0 subtable" quotedbl.sc
EndChar

StartChar: numbersign
Encoding: 35 35 3
Width: 473
Flags: W
HStem: 171 66<34.0959 114 190 263 339 436.905> 311 67<34.0959 135 212 285 361 440.716>
VStem: 91 68<15.2675 69.8129>
LayerCount: 2
Back
SplineSet
303 24 m 1
 303 24 306 15 273 15 c 2
 260 15 l 2
 246 15 247 24 247 24 c 1
 269 175 l 1
 175 175 l 1
 153 24 l 2
 152 23 155 15 122 15 c 2
 109 15 l 2
 95 15 95 24 95 24 c 1
 118 175 l 1
 32 175 l 1
 32 175 26 175 26 185 c 0
 26 189 27 202 34 226 c 0
 36 232 41 231 41 231 c 1
 127 231 l 1
 139 317 l 1
 32 317 l 1
 32 317 26 318 26 328 c 0
 26 332 27 345 34 369 c 0
 36 375 41 374 41 374 c 1
 148 374 l 1
 172 530 l 2
 173 531 171 539 219 539 c 0
 233 539 229 530 229 530 c 1
 206 374 l 1
 300 374 l 1
 324 530 l 2
 325 531 323 539 371 539 c 0
 385 539 381 530 381 530 c 1
 357 374 l 1
 439 374 l 1
 439 374 446 377 446 367 c 0
 446 359 442 340 437 324 c 0
 435 318 431 317 431 317 c 1
 348 317 l 1
 335 231 l 1
 439 231 l 1
 439 231 446 234 446 224 c 0
 446 216 442 197 437 181 c 0
 435 175 431 175 431 175 c 1
 327 175 l 1
 303 24 l 1
279 231 m 1
 291 317 l 1
 197 317 l 1
 184 231 l 1
 279 231 l 1
EndSplineSet
Fore
SplineSet
307 24 m 1
 307 24 310 15 277 15 c 2
 254 15 l 2
 240 15 241 24 241 24 c 1
 263 171 l 1
 181 171 l 1
 159 24 l 2
 159 23 161 15 128 15 c 2
 105 15 l 2
 91 15 91 24 91 24 c 1
 114 171 l 1
 32 171 l 1
 32 171 26 171 26 181 c 0
 26 185 27 208 34 232 c 0
 36 238 41 237 41 237 c 1
 123 237 l 1
 135 311 l 1
 32 311 l 1
 32 311 26 312 26 322 c 0
 26 326 27 349 34 373 c 0
 36 379 41 378 41 378 c 1
 144 378 l 1
 168 530 l 2
 168 531 177 539 225 539 c 0
 239 539 235 530 235 530 c 1
 212 378 l 1
 294 378 l 1
 318 530 l 2
 318 531 327 539 375 539 c 0
 389 539 385 530 385 530 c 1
 361 378 l 1
 439 378 l 1
 439 378 446 381 446 371 c 0
 446 363 442 334 437 318 c 0
 435 312 431 311 431 311 c 1
 352 311 l 1
 339 237 l 1
 439 237 l 1
 439 237 446 240 446 230 c 0
 446 222 442 193 437 177 c 0
 435 171 431 171 431 171 c 1
 331 171 l 1
 307 24 l 1
273 237 m 1
 285 311 l 1
 203 311 l 1
 190 237 l 1
 273 237 l 1
EndSplineSet
Validated: 33
Substitution2: "'smcp' Lowercase to Small Capitals in Latin lookup 0 subtable" numbersign.sc
EndChar

StartChar: dollar
Encoding: 36 36 4
Width: 464
Flags: HW
HStem: -9 55<177.052 273.249> 589 54<179.759 255.409> 648 20G<263.738 271>
VStem: 25 47<128.898 184.778> 31 127<454.533 543.693> 153 39<-35.9908 4.01404> 267 39<624.049 664.779> 305 133<93.5092 196.447> 362 48<448.573 510.857>
LayerCount: 2
Fore
SplineSet
267 668 m 17
 275 668 306 667 306 660 c 9
 192 -40 l 17
 183 -40 153 -38 153 -31 c 9
 267 668 l 17
235 643 m 0
 309 643 364 622 388 618 c 1
 398 579 410 499 410 458 c 1
 406 452 391 448 380 448 c 0
 371 448 362 447 362 455 c 0
 362 466 323 589 236 589 c 0
 186 589 158 557 158 507 c 0
 158 459 212.828 414.768 277 374 c 0
 362 320 438 280 438 171 c 0
 438 64 323 -9 216 -9 c 0
 149 -9 82 8 47 16 c 1
 34 66 28 120 25 175 c 1
 24 185 38 185 42 185 c 0
 51 185 66 184 72 181 c 1
 81 140 130 46 220 46 c 0
 266 46 305 85 305 145 c 0
 305 191 254 229 197 266 c 0
 127.376 311.194 31 354 31 467 c 0
 31 572 141 643 235 643 c 0
EndSplineSet
Substitution2: "'smcp' Lowercase to Small Capitals in Latin lookup 0 subtable" dollar.sc
EndChar

StartChar: percent
Encoding: 37 37 5
Width: 660
Flags: W
HStem: 1 37<444.188 517.918> 268 38<433.168 509.379> 337 38<147.188 220.918> 605 37<136.329 211.985>
VStem: 23 95<410.506 568.015> 241 97<412.639 565.364> 320 95<74.2093 231.8> 538 97<76.4355 230.254>
LayerCount: 2
Fore
SplineSet
170 605 m 24xfd
 128 605 118 552 118 510 c 24
 118 451 128 375 187 375 c 24
 228 375 241 425 241 466 c 24
 241 527 231 605 170 605 c 24xfd
180 642 m 0
 268 642 338 573 338 489 c 0
 338 405 268 337 180 337 c 0
 92 337 23 405 23 489 c 0
 23 573 92 642 180 642 c 0
468 268 m 24
 426 268 415 216 415 174 c 24xfb
 415 115 425 38 484 38 c 24
 525 38 538 89 538 130 c 24
 538 191 529 268 468 268 c 24
477 306 m 0
 565 306 635 237 635 153 c 0
 635 69 565 1 477 1 c 0
 389 1 320 69 320 153 c 0
 320 237 389 306 477 306 c 0
605 629 m 1
 124 7 l 2
 119 1 103 -4 91 -4 c 0
 65 -4 53 5 52 10 c 1
 533 632 l 2
 538 638 546 646 552 646 c 0
 575 646 595 637 605 629 c 1
EndSplineSet
Validated: 1
Substitution2: "'smcp' Lowercase to Small Capitals in Latin lookup 0 subtable" percent.sc
EndChar

StartChar: ampersand
Encoding: 38 38 6
Width: 701
Flags: W
HStem: -4 60<196.714 316.398> -3 85<499.152 562.074> 280 32<437.212 483.888 597.219 657.976> 603 53<248.887 332.81>
VStem: 25 140<88.4839 241.791> 113 120<452.859 581.576> 353 107<451.891 583.169>
LayerCount: 2
Fore
SplineSet
339 101 m 1xba
 309 135 211 288 211 288 c 1
 186 270 165 237 165 163 c 0
 165 88 210 56 258 56 c 0
 297 56 326 84 339 101 c 1xba
289 603 m 0
 246 603 233 562 233 524 c 0x36
 233 480 268 431 282 407 c 1
 324 437 353 464 353 524 c 0
 353 555 334 603 289 603 c 0
292 656 m 0
 393.994 657.085 460 605 460 533 c 0
 460 443 396 393 320 346 c 1
 344 308 400 231 431 191 c 1
 455 219 484 250 484 262 c 0
 484 285 445 278 438 280 c 1
 435 289 434 310 439 312 c 1
 542 311 l 2
 577 311 608 312 653 314 c 1
 657 312 658 302 658 297 c 0
 658 289 660 278 650 276 c 0
 643 275 603 271 583 257 c 0
 568 247 501 159 474 131 c 1
 481 123 510 82 543 82 c 0
 573 82 601 120 609 134 c 1
 618 134 637 120 637 110 c 1
 633 98 574 -3 503 -3 c 3x76
 429 -3 385 52 385 52 c 1
 337 10 290 -4 223 -4 c 3
 130 -4 25 40 25 162 c 0xba
 25 263 117 320 171 354 c 1
 149 392 113 443 113 500 c 0
 113 607 198 655 292 656 c 0
EndSplineSet
Substitution2: "'smcp' Lowercase to Small Capitals in Latin lookup 0 subtable" ampersand.sc
EndChar

StartChar: quotesingle
Encoding: 39 39 7
Width: 200
Flags: W
HStem: 434 264<83.4202 118.945>
VStem: 50 102<522.226 679.379>
LayerCount: 2
Back
SplineSet
106 698 m 2
 121 698 l 2
 137 698 151 692 151 633 c 0
 151 577 123 516 117 449 c 0
 116 439 108 434 101 434 c 0
 94 434 87 439 86 447 c 0
 77 537 52 594 52 635 c 0
 52 653 80 698 106 698 c 2
EndSplineSet
Fore
SplineSet
104 698 m 2
 123 698 l 2
 139 698 152 692 152 633 c 0
 152 577 125 516 119 449 c 0
 118 439 106 434 99 434 c 0
 92 434 85 439 84 447 c 0
 75 537 50 594 50 635 c 0
 50 653 78 698 104 698 c 2
EndSplineSet
Validated: 1
Substitution2: "'smcp' Lowercase to Small Capitals in Latin lookup 0 subtable" quotesingle.sc
EndChar

StartChar: parenleft
Encoding: 40 40 8
Width: 309
Flags: W
VStem: 27 125<159.68 451.933>
LayerCount: 2
Back
SplineSet
0 306 m 0
 0 43 205 -137 248 -137 c 0
 255 -137 260 -117 260 -110 c 0
 260 -108 259.82 -107.571 259 -107 c 0
 203 -68 125 103 125 306 c 0
EndSplineSet
Fore
SplineSet
152 305 m 4
 152 74 249 -87 285 -106 c 4
 287 -107 287 -109 287 -111 c 4
 287 -118 282 -137 275 -137 c 4
 236 -137 27 36 27 305 c 4
 27 568 232 748 275 748 c 4
 282 748 287 728 287 721 c 4
 287 719 287 719 286 718 c 4
 230 679 152 508 152 305 c 4
EndSplineSet
Validated: 1
Substitution2: "'smcp' Lowercase to Small Capitals in Latin lookup 0 subtable" parenleft.sc
EndChar

StartChar: parenright
Encoding: 41 41 9
Width: 309
Flags: W
HStem: -137 31<23.6506 40.9121>
VStem: 157 125<159.093 450.456>
LayerCount: 2
Back
SplineSet
146 305 m 0
 146 74 49 -87 13 -106 c 0
 11.0225 -107.044 11 -109 11 -111 c 0
 11 -118 16 -137 23 -137 c 0
 62 -137 271 36 271 305 c 0
 271 568 66 748 23 748 c 0
 16 748 11 728 11 721 c 0
 11 719 11.1797 718.571 12 718 c 0
 68 679 146 508 146 305 c 0
EndSplineSet
Fore
SplineSet
157 305 m 0
 157 508 78 680 23 718 c 0
 22 719 22 719 22 721 c 0
 22 728 27 748 34 748 c 0
 82 748 282 560 282 305 c 0
 282 50 84 -137 34 -137 c 0
 27 -137 22 -119 22 -112 c 0
 22 -110 22 -107 24 -106 c 0
 63 -87 157 84 157 305 c 0
EndSplineSet
Validated: 1
Substitution2: "'smcp' Lowercase to Small Capitals in Latin lookup 0 subtable" parenright.sc
EndChar

StartChar: asterisk
Encoding: 42 42 10
Width: 416
Flags: W
HStem: 384 70<300.003 388.422>
VStem: 114 72<574.61 661.887> 150 78<303.852 408.483>
LayerCount: 2
Fore
SplineSet
297 623 m 4xc0
 315 639 343 639 356 623 c 0
 370 607 368 581 351 564 c 0
 324 538 282 526 253 499 c 0
 250 497 250 494 250 492 c 8
 251 489 256 486 256 486 c 0
 291 469 335 473 369 454 c 0
 390 442 398 416 387 398 c 0
 376 380 351 373 330 384 c 0
 297 402 273 437 238 457 c 0
 235 459 231 459 229 458 c 8
 226 456 224 451 224 451 c 0
 219 412 236 372 228 334 c 0
 223 311 201 295 181 300 c 0
 161 305 146 325 150 349 c 0xa0
 156 386 183 420 191 460 c 0
 192 463 191 466 190 467 c 8
 188 469 181 468 181 468 c 0
 142 461 110 432 72 428 c 0
 48 425 26 442 24 463 c 0
 22 484 38 504 62 507 c 0
 99 512 139 497 179 502 c 0
 182 502 187 504 188 506 c 8
 189 509 186 514 186 514 c 0
 168 548 130 571 114 606 c 0
 104 628 114 654 133 662 c 0
 153 670 176 662 186 640 c 0
 202 606 202 562 219 526 c 0
 220 523 223 520 225 520 c 0
 227 520 232 526 232 526 c 0
 259 554 269 597 297 623 c 4xc0
EndSplineSet
Validated: 33
Substitution2: "'smcp' Lowercase to Small Capitals in Latin lookup 0 subtable" asterisk.sc
EndChar

StartChar: plus
Encoding: 43 43 11
Width: 532
Flags: W
HStem: 210 72<34.0959 228.999 301.001 494.904>
VStem: 229 72<14.3688 209.998 282 476.904>
LayerCount: 2
Fore
SplineSet
301 207 m 6
 301 23 l 5
 301 23 286 13 241 7 c 4
 238 7 237 6 235 6 c 4
 229 6 229 10 229 14 c 6
 229 205 l 6
 229 207 228 210 223 210 c 6
 32 210 l 5
 32 210 26 210 26 220 c 4
 26 224 27 253 34 277 c 4
 36 283 41 282 41 282 c 5
 224 282 l 6
 227 282 229 286 229 288 c 6
 229 470 l 5
 229 470 228 475 234 477 c 4
 258 484 287 485 291 485 c 4
 301 485 301 479 301 479 c 5
 301 287 l 6
 301 284 302 282 305 282 c 6
 497 282 l 6
 501 282 505 282 505 275 c 4
 505 266 501 238 495 216 c 4
 493 210 488 210 488 210 c 5
 305 210 l 6
 302 210 301 209 301 207 c 6
EndSplineSet
Validated: 1
Substitution2: "'smcp' Lowercase to Small Capitals in Latin lookup 0 subtable" plus.sc
EndChar

StartChar: comma
Encoding: 44 44 12
Width: 219
Flags: W
HStem: -168 302
VStem: 94 96<-38.0986 62>
LayerCount: 2
Fore
SplineSet
94 -31 m 0
 94 2 56 -3 56 62 c 0
 56 78 74 134 136 134 c 0
 144 134 165 131 176 123 c 1
 184 105 190 74 190 50 c 0
 190 28 178 -13 176 -20 c 0
 152 -85 99 -146 48 -168 c 1
 46 -168 l 2
 38 -168 24 -143 24 -134 c 0
 24 -127 94 -108 94 -31 c 0
EndSplineSet
Validated: 1
Substitution2: "'smcp' Lowercase to Small Capitals in Latin lookup 0 subtable" comma.sc
EndChar

StartChar: hyphen
Encoding: 45 45 13
Width: 325
Flags: W
HStem: 193 74<34.0093 187.957> 204 75<141.043 287.537>
VStem: 31 261
LayerCount: 2
Back
SplineSet
28 210 m 0x60
 28 258 37 261 40 261 c 2
 41 261 l 1xa0
 282 273 l 1
 283 273 l 2
 285 273 289 272 289 264 c 0
 289 215 276 210 276 210 c 1x60
 35 199 l 1xa0
 35 199 28 198 28 210 c 0x60
EndSplineSet
Fore
SplineSet
31 204 m 4x60
 31 252 40 267 43 267 c 6
 44 267 l 5xa0
 285 279 l 5
 286 279 l 6
 288 279 292 278 292 270 c 4
 292 221 279 204 279 204 c 5x60
 38 193 l 5xa0
 38 193 31 192 31 204 c 4x60
EndSplineSet
Validated: 1
Substitution2: "'smcp' Lowercase to Small Capitals in Latin lookup 0 subtable" hyphen.sc
EndChar

StartChar: period
Encoding: 46 46 14
Width: 204
Flags: W
HStem: -11 150<53.1921 154.5>
VStem: 29 147<12.5 117.5>
LayerCount: 2
Fore
SplineSet
176 66 m 4
 176 26 146 -11 105 -11 c 31
 63 -11 29 26 29 66 c 4
 29 106 62 139 103 139 c 31
 143 139 176 106 176 66 c 4
EndSplineSet
Validated: 1
Substitution2: "'smcp' Lowercase to Small Capitals in Latin lookup 0 subtable" period.sc
EndChar

StartChar: slash
Encoding: 47 47 15
Width: 425
Flags: W
LayerCount: 2
Back
SplineSet
380 755 m 1
 84 -12 l 2
 82 -19 67 -35 32 -35 c 0
 17 -35 14 -28 14 -28 c 1
 310 739 l 1
 317 754 329 761 359 761 c 0
 373 761 376 757 380 755 c 1
EndSplineSet
Fore
SplineSet
404 755 m 5
 108 -12 l 6
 106 -19 75 -35 40 -35 c 4
 25 -35 22 -28 22 -28 c 5
 318 739 l 5
 325 754 337 761 367 761 c 4
 381 761 400 757 404 755 c 5
EndSplineSet
Validated: 1
Substitution2: "'smcp' Lowercase to Small Capitals in Latin lookup 0 subtable" slash.sc
EndChar

StartChar: zero
Encoding: 48 48 16
Width: 515
Flags: W
HStem: -3 52<224.615 300.594> 575 50<220.143 299.305>
VStem: 27 140<181.48 438.689> 348 140<180.567 440.658>
LayerCount: 2
Fore
SplineSet
764 748 m 31,0,-1
167 312 m 0,1,-1
 167 155 210 49 261 49 c 0,4,-1
 322 49 348 160 348 317 c 0,7,-1
 348 474 316 575 261 575 c 0,10,-1
 202 575 167 469 167 312 c 0,1,-1
27 311 m 0,13,-1
 27 485 140 625 260 625 c 0,16,-1
 380 625 488 485 488 311 c 0,19,-1
 488 137 380 -3 260 -3 c 0,22,-1
 140 -3 27 137 27 311 c 0,13,-1
EndSplineSet
Substitution2: "'smcp' Lowercase to Small Capitals in Latin lookup 0 subtable" zero.sc
Substitution2: "'c2sc' Capitals to Small Capitals in Latin lookup 0 subtable" zero.sc
Substitution2: "'onum' Oldstyle Figures in Latin lookup 3-1" zero.onum
EndChar

StartChar: one
Encoding: 49 49 17
Width: 346
Flags: W
HStem: -4 37<56.4365 112.082 269.279 323.993> 623 20G<249.5 256>
VStem: 126 130<46.5593 501.995>
LayerCount: 2
Fore
SplineSet
36 469 m 1
 28 473 21 487 21 493 c 0
 21 495 21 503 23 505 c 0
 134 577 248 643 251 643 c 2
 253 643 l 2
 259 643 264 629 265 624 c 1
 265 624 256 595 256 530 c 2
 256 129 l 2
 256 96 257 84 264 57 c 0
 267 46 313 33 321 33 c 0
 324 33 324 19 324 12 c 0
 324 7 323 -2 322 -4 c 1
 282 -2 231 4 191 4 c 0
 151 4 99 -2 59 -4 c 1
 54 1 54 33 59 33 c 4
 71 33 117 48 120 59 c 0
 125 79 126 97 126 116 c 2
 126 452 l 2
 126 496 115 502 106 502 c 0
 93 502 56 481 36 469 c 1
EndSplineSet
Validated: 33
Substitution2: "'smcp' Lowercase to Small Capitals in Latin lookup 0 subtable" one.sc
Substitution2: "'c2sc' Capitals to Small Capitals in Latin lookup 0 subtable" one.sc
Substitution2: "'onum' Oldstyle Figures in Latin lookup 3-1" one.onum
EndChar

StartChar: two
Encoding: 50 50 18
Width: 475
Flags: W
HStem: 0 102<154.863 383.339> 559 83<140.779 280.138>
VStem: 265 140<373.01 523.468> 412 40<137.291 197.881>
LayerCount: 2
Fore
SplineSet
232 642 m 0
 328 642 405 578 405 470 c 0
 405 336 281 227 155 111 c 0
 152 108 154 102 159 102 c 2
 330 102 l 2
 389 102 402 153 412 191 c 0
 413.37 196.208 423 198 429 198 c 0
 436 198 447 196 452 192 c 1
 440.835 144.547 423.518 65.4648 413 14 c 8
 412 7 406 0 401 0 c 2
 35 0 l 1
 28 8 24 15 23 33 c 1
 138 160 265 347 265 451 c 0
 265 505 234 559 180 559 c 0
 108 559 80 496 72 488 c 1
 64 488 43 498 43 513 c 1
 60 551 116 642 232 642 c 0
EndSplineSet
Substitution2: "'smcp' Lowercase to Small Capitals in Latin lookup 0 subtable" two.sc
Substitution2: "'c2sc' Capitals to Small Capitals in Latin lookup 0 subtable" two.sc
Substitution2: "'onum' Oldstyle Figures in Latin lookup 3-1" two.onum
EndChar

StartChar: three
Encoding: 51 51 19
Width: 456
Flags: W
HStem: -4 52<140.273 257.039> 314 45<128.598 189.72> 572 70<154.194 276.5>
VStem: 253 117<448.481 555.987> 295 135<126.865 272.305>
LayerCount: 2
Fore
SplineSet
254 642 m 0xf0
 299 642 370 609 370 527 c 0xf0
 370 456 315 397 285 378 c 1
 324 378 430 319 430 214 c 0
 430 73 281 -4 153 -4 c 0
 88 -4 58 16 36 30 c 1
 33 38 30 49 30 59 c 0
 30 83 38 119 72 119 c 0
 99 119 114 102 128 83 c 0
 144.648 60.4053 171.612 48 198 48 c 0
 260 48 295 98 295 188 c 0xe8
 295 263 257 319 190 319 c 0
 184 319 180 321 135 314 c 1
 131 319 128 336 128 344 c 0
 128 348 129 354 131 359 c 1
 207 371 253 420 253 493 c 0
 253 554 218 572 192 572 c 0
 138 572 105 538 98 530 c 1
 89 530 75 548 75 557 c 1
 112 606 176 642 254 642 c 0xf0
EndSplineSet
Substitution2: "'smcp' Lowercase to Small Capitals in Latin lookup 0 subtable" three.sc
Substitution2: "'c2sc' Capitals to Small Capitals in Latin lookup 0 subtable" three.sc
Substitution2: "'onum' Oldstyle Figures in Latin lookup 3-1" three.onum
EndChar

StartChar: four
Encoding: 52 52 20
Width: 492
Flags: W
HStem: -5 21G<329 367> 174 70<117.002 288 412 466.418> 624 20G<390 397>
VStem: 288 124<-1.33936 174 244 453.996>
LayerCount: 2
Fore
SplineSet
394 644 m 0
 400 644 412 642 412 634 c 10
 412 244 l 25
 453 244 l 2
 465 244 468 227 468 184 c 0
 468 178 459 174 459 174 c 9
 412 174 l 25
 412 4 l 17
 412 4 388 -5 346 -5 c 0
 312 -5 288 -1 288 8 c 2
 288 174 l 25
 39 174 l 17
 31 182 24 194 24 222 c 1
 145 367 261 498 367 630 c 0
 374 638 386 644 394 644 c 0
288 244 m 25
 288 445 l 2
 288 448 287 454 285 454 c 8
 285 454 283 453 282 452 c 2
 118 256 l 2
 117 255 117 254 117 253 c 0
 117 249 120 244 124 244 c 10
 288 244 l 25
EndSplineSet
Substitution2: "'smcp' Lowercase to Small Capitals in Latin lookup 0 subtable" four.sc
Substitution2: "'c2sc' Capitals to Small Capitals in Latin lookup 0 subtable" four.sc
Substitution2: "'onum' Oldstyle Figures in Latin lookup 3-1" four.onum
EndChar

StartChar: five
Encoding: 53 53 21
Width: 448
Flags: W
HStem: -3 52<131.273 245.984> 328 94<128.384 232.852> 535 108<144.468 369.113>
VStem: 286 135<139.016 270.12>
LayerCount: 2
Fore
SplineSet
112 638 m 1
 183 638 330 635 366 643 c 1
 370 637 374 627 374 609 c 0
 374 592 370 548 363 535 c 1
 229.892 530.946 183 533 159 531.796 c 0
 149.362 531.312 146.944 528.195 146 523 c 0
 138 479 127 412 127 412 c 1
 152 418 171 422 208 422 c 0
 306 422 421 340 421 235 c 0
 421 97 296 -3 144 -3 c 0
 79 -3 49 17 27 31 c 1
 24 39 21 50 21 60 c 0
 21 84 29 120 63 120 c 0
 90 120 105 103 119 84 c 0
 135.649 61.4053 162.613 49 189 49 c 0
 264 49 286 127 286 183 c 0
 286 274 231 328 174 328 c 0
 111 328 82 316 73 314 c 1
 69 316 62 319 56 328 c 1
 57 331 104 588 112 638 c 1
EndSplineSet
Substitution2: "'smcp' Lowercase to Small Capitals in Latin lookup 0 subtable" five.sc
Substitution2: "'c2sc' Capitals to Small Capitals in Latin lookup 0 subtable" five.sc
Substitution2: "'onum' Oldstyle Figures in Latin lookup 3-1" five.onum
EndChar

StartChar: six
Encoding: 54 54 22
Width: 460
Flags: W
HStem: -6 52<191.765 281.146> 315 52<183.45 267.989> 625 20G<308.5 401.5>
VStem: 27 135<108.826 304.027> 300 134<101.242 267.982>
LayerCount: 2
Fore
SplineSet
162 190 m 1
 162 100 184 46 238 46 c 0
 285 46 300 87 300 177 c 0
 300 262 279 315 213 315 c 0
 196 315 174 307 169 287 c 0
 164 266 163 240 162 190 c 1
237 -6 m 0
 133 -6 27 72 27 202 c 3
 27 424 223 576 394 645 c 1
 409 642 409 622 412 611 c 1
 299 562 213 470 183 376 c 0
 180 368 181 353 185 355 c 0
 197 360 220 367 242 367 c 0
 348 367 434 284 434 186 c 0
 434 86 343 -6 237 -6 c 0
EndSplineSet
Validated: 1
Substitution2: "'smcp' Lowercase to Small Capitals in Latin lookup 0 subtable" six.sc
Substitution2: "'c2sc' Capitals to Small Capitals in Latin lookup 0 subtable" six.sc
Substitution2: "'onum' Oldstyle Figures in Latin lookup 3-1" six.onum
EndChar

StartChar: seven
Encoding: 55 55 23
Width: 470
Flags: HW
HStem: 536 102<99.6962 145>
LayerCount: 2
Fore
SplineSet
145 536 m 6
 95 536 84.5098 486.53 72 449 c 0
 70 443 35 439 27 447 c 1
 40 496 64 595 71 626 c 0
 73 634 81 638 90 638 c 2
 385 638 l 2
 411 638 446 641 452 641 c 0
 458 641 459 637 459 632 c 0
 459 619 449 597 432 565 c 2
 158 -10 l 1
 155 -11 153 -11 151 -11 c 0
 133 -11 115 4 115 23 c 9
 369 536 l 1
 145 536 l 6
EndSplineSet
Substitution2: "'smcp' Lowercase to Small Capitals in Latin lookup 0 subtable" seven.sc
Substitution2: "'c2sc' Capitals to Small Capitals in Latin lookup 0 subtable" seven.sc
Substitution2: "'onum' Oldstyle Figures in Latin lookup 3-1" seven.onum
EndChar

StartChar: eight
Encoding: 56 56 24
Width: 464
Flags: W
HStem: -6 52<187.349 281.911> 580 53<188.007 274.47>
VStem: 24 134<77.7063 233.967> 43 130<430.756 556.078> 294 130<419.078 558.174> 306 134<91.6968 196.429>
LayerCount: 2
Fore
SplineSet
234 46 m 27xe4
 278 46 306 86 306 134 c 3
 306 198 235 248 205 270 c 0
 200 274 193 276 191 276 c 0
 189 276 188 276 186 275 c 0
 166 264 158 206 158 159 c 27
 158 106 181 46 234 46 c 27xe4
231 580 m 3
 190 580 173 549 173 494 c 3
 173 436 211 412 243 388 c 0
 245.884 385.837 252 384 256 384 c 0
 259 384 261 385 262 386 c 0
 286 409 294 443 294 483 c 3xd8
 294 542 276 580 231 580 c 3
228 633 m 27
 323 633 424 584 424 489 c 3xd8
 424 412 347 361 314 341 c 0
 312 340 312 335 314 334 c 0
 339 315 440 251 440 170 c 27
 440 62 334 -6 226 -6 c 27
 124 -6 24 39 24 159 c 3xe4
 24 253 109 298 141 315 c 0
 143 316 144 320 140 323 c 0
 105 353 43 392 43 486 c 3
 43 574 136 633 228 633 c 27
EndSplineSet
Substitution2: "'smcp' Lowercase to Small Capitals in Latin lookup 0 subtable" eight.sc
Substitution2: "'c2sc' Capitals to Small Capitals in Latin lookup 0 subtable" eight.sc
Substitution2: "'onum' Oldstyle Figures in Latin lookup 3-1" eight.onum
EndChar

StartChar: nine
Encoding: 57 57 25
Width: 453
Flags: W
HStem: -6 21G<55.5 148.5> 272 52<189.011 273.55> 593 52<175.854 265.235>
VStem: 23 134<371.018 537.758> 295 135<334.973 530.174>
LayerCount: 2
Fore
SplineSet
295 449 m 1
 295 539 273 593 219 593 c 0
 172 593 157 552 157 462 c 0
 157 377 178 324 244 324 c 0
 261 324 283 332 288 352 c 0
 293 373 294 399 295 449 c 1
220 645 m 0
 324 645 430 567 430 437 c 3
 430 215 234 63 63 -6 c 1
 48 -3 45 21 45 28 c 1
 158 77 244 169 274 263 c 0
 277 271 276 286 272 284 c 0
 260 279 237 272 215 272 c 0
 109 272 23 355 23 453 c 0
 23 553 114 645 220 645 c 0
EndSplineSet
Validated: 1
Substitution2: "'smcp' Lowercase to Small Capitals in Latin lookup 0 subtable" nine.sc
Substitution2: "'c2sc' Capitals to Small Capitals in Latin lookup 0 subtable" nine.sc
Substitution2: "'onum' Oldstyle Figures in Latin lookup 3-1" nine.onum
EndChar

StartChar: colon
Encoding: 58 58 26
Width: 202
Flags: W
HStem: -11 151<52.8889 152.448> 281 151<52.8889 152.448>
VStem: 28 147<13 117.243 305 409.243>
LayerCount: 2
Back
SplineSet
69 371 m 0
 69 404 96 430 129 430 c 0
 162 430 188 404 188 371 c 0
 188 338 162 310 129 310 c 0
 96 310 69 338 69 371 c 0
69 46 m 0
 69 79 96 106 129 106 c 0
 162 106 188 79 188 46 c 0
 188 13 162 -14 129 -14 c 0
 96 -14 69 13 69 46 c 0
EndSplineSet
Fore
SplineSet
175 359 m 0
 175 319 145 281 104 281 c 27
 62 281 28 319 28 359 c 0
 28 399 63 432 104 432 c 27
 144 432 175 399 175 359 c 0
175 67 m 0
 175 27 145 -11 104 -11 c 27
 62 -11 28 27 28 67 c 0
 28 107 63 140 104 140 c 27
 144 140 175 107 175 67 c 0
EndSplineSet
Validated: 1
Substitution2: "'smcp' Lowercase to Small Capitals in Latin lookup 0 subtable" colon.sc
EndChar

StartChar: semicolon
Encoding: 59 59 27
Width: 215
Flags: W
HStem: 281 151<64.8889 164.448>
VStem: 40 147<305 409.243> 85 103<-43.687 88.6185>
LayerCount: 2
Fore
SplineSet
40 359 m 0xc0
 40 399 75 432 116 432 c 27
 156 432 187 399 187 359 c 0
 187 319 157 281 116 281 c 27
 74 281 40 319 40 359 c 0xc0
85 -18 m 0xa0
 85 15 54 14 54 62 c 0
 54 78 72 134 134 134 c 0
 142 134 163 134 174 126 c 1
 180 110 188 76 188 52 c 0
 188 30 178 -18 175 -25 c 0
 151 -87 76 -156 46 -168 c 0
 44 -168 l 0
 36 -168 22 -143 22 -134 c 0
 22 -127 85 -95 85 -18 c 0xa0
EndSplineSet
Validated: 1
Substitution2: "'smcp' Lowercase to Small Capitals in Latin lookup 0 subtable" semicolon.sc
EndChar

StartChar: less
Encoding: 60 60 28
Width: 464
Flags: W
LayerCount: 2
Fore
SplineSet
439 45 m 0
 439 38 429 -15 423 -15 c 0
 422 -15 420 -14 418 -13 c 2
 43 177 l 2
 28 185 25 200 25 217 c 0
 25 228 33 236 43 241 c 2
 416 428 l 2
 418 429 420 430 421 430 c 0
 424 430 431 410 438 373 c 0
 439 367 435 364 435 364 c 1
 117 209 l 1
 436 51 l 1
 436 51 439 50 439 45 c 0
EndSplineSet
Validated: 1
Substitution2: "'smcp' Lowercase to Small Capitals in Latin lookup 0 subtable" less.sc
EndChar

StartChar: equal
Encoding: 61 61 29
Width: 530
Flags: W
HStem: 109 72<40.0959 488.905> 251 72<36.3765 488.905>
LayerCount: 2
Fore
SplineSet
499 176 m 4
 499 167 495 137 489 115 c 0
 487 109 483 109 483 109 c 1
 38 109 l 1
 38 109 31 109 31 119 c 0
 31 123 33 152 40 176 c 0
 42 182 47 181 47 181 c 1
 491 181 l 2
 495 181 499 183 499 176 c 4
31 261 m 1
 31 261 36 323 46 323 c 2
 495 323 l 2
 497 323 499 322 499 318 c 0
 499 309 495 279 489 257 c 0
 487 251 483 251 483 251 c 1
 38 251 l 1
 38 251 31 251 31 261 c 1
EndSplineSet
Validated: 1
Substitution2: "'smcp' Lowercase to Small Capitals in Latin lookup 0 subtable" equal.sc
EndChar

StartChar: greater
Encoding: 62 62 30
Width: 467
Flags: W
LayerCount: 2
Fore
SplineSet
27 45 m 0
 27 50 30 51 30 51 c 1
 349 209 l 1
 31 364 l 1
 31 364 27 367 28 373 c 0
 35 410 42 430 45 430 c 0
 46 430 48 429 50 428 c 2
 423 241 l 2
 433 236 441 228 441 217 c 0
 441 200 438 185 423 177 c 2
 48 -13 l 2
 46 -14 44 -15 43 -15 c 0
 37 -15 27 38 27 45 c 0
EndSplineSet
Validated: 1
Substitution2: "'smcp' Lowercase to Small Capitals in Latin lookup 0 subtable" greater.sc
EndChar

StartChar: question
Encoding: 63 63 31
Width: 350
Flags: W
HStem: -11 150<55.2891 156.25> 536 110<61.919 199.827>
VStem: 31 147<13.4641 117.875> 83 45<192.039 262.623> 241 86<436.657 526.793>
LayerCount: 2
Fore
SplineSet
31 66 m 0xe8
 31 108 65 139 103 139 c 0
 145 139 178 107 178 66 c 0
 178 25 147 -11 107 -11 c 0
 70 -11 31 21 31 66 c 0xe8
96 522 m 0
 51 522 23 557 23 590 c 0
 23 615 26 624 32 633 c 1
 50 642 60 646 91 646 c 1
 191 642 327 589 327 469 c 1
 327 366 279 325 206 293 c 0
 173 278 152 273 141 263 c 4
 131 255 128 244 128 221 c 0
 128 203 110 190 95 190 c 0
 90 190 84 202 83 212 c 0xd8
 81 233 80 252 79 268 c 0
 76 330 85 359 126 380 c 0
 211 423 241 443 241 486 c 0
 241 520 220 536 184 536 c 0
 148 536 138 522 96 522 c 0
EndSplineSet
Validated: 33
Substitution2: "'smcp' Lowercase to Small Capitals in Latin lookup 0 subtable" question.sc
EndChar

StartChar: at
Encoding: 64 64 32
Width: 781
Flags: W
HStem: -171 45<301.883 497.015> -13 47<554.614 643.924> -7 60<272.28 380.128> 359 51<380.925 496> 519 58<293.907 528.505>
VStem: 27 75<77.0028 322.656> 192 110<57.0395 245.56> 452 95<37.0965 67.0483 142.775 200.169> 691 63<100.814 338.682>
LayerCount: 2
Fore
SplineSet
691 214 m 0xdf80
 691 381 592 519 421 519 c 0
 240 519 102 399 102 223 c 0
 102 26 193 -126 444 -126 c 0
 477 -126 506 -116 514 -113 c 1
 514 -113 516 -121 516 -122 c 0
 516 -145 475 -171 389 -171 c 0
 173 -171 27 23 27 185 c 0
 27 432 209 577 432 577 c 0
 632 577 754 391 754 233 c 0
 754 40 650 -13 572 -13 c 0xdf80
 502 -13 452 28 452 69 c 0
 452 71 448 68 447 67 c 0
 433 37 379 -7 310 -7 c 0xbf80
 235 -7 192 73 192 141 c 0
 192 274 298 410 476 410 c 8
 516 410 577 401 577 401 c 1
 573 375 572 369 570 348 c 0
 562 268 549 143 549 143 c 2
 548 133 547 123 547 115 c 0
 545 50 561 34 584 34 c 0
 684 34 691 160 691 214 c 0xdf80
462 334 m 0
 462 347 459 359 430 359 c 0
 380 359 302 284 302 143 c 0
 302 73 313 53 338 53 c 0xbf80
 388 53 444 161 446 182 c 2
 461 322 l 1
 461 322 462 328 462 334 c 0
EndSplineSet
Validated: 33
Substitution2: "'smcp' Lowercase to Small Capitals in Latin lookup 0 subtable" at.sc
EndChar

StartChar: A
Encoding: 65 65 33
Width: 720
Flags: HMW
HStem: -4 37<7.01298 65.875 181.317 250.239 420.437 481.978 657.551 716.997> 213 60<258 407.999> 647 20G<364 378>
DStem2: 123 134 192 131 0.398924 0.916984<-38.4883 122.934 187.734 382.592> 405 655 335 459 0.374856 -0.927083<155.468 348.781 412.484 577.878>
LayerCount: 2
Fore
SplineSet
423 33 m 0
 446 33 491 44 491 68 c 0
 491 77 476 109 466 135 c 24
 455 164 436 208 436 208 c 1
 436 208 432 212 429 212 c 0
 391 214 358 213 333 213 c 0
 292 213 267 213 232 212 c 0
 229 212 226 209 225 207 c 1
 225 207 204 159 192 131 c 0
 181 106 172 85 172 70 c 0
 172 35 237 33 245 33 c 0
 250 33 248 2 246 -4 c 1
 206 -2 173 4 129 4 c 0
 83 4 61 -2 15 -4 c 1
 13 -2 11 5 11 11 c 0
 11 17 11 32 13 32 c 0
 25 32 78 48 88 64 c 0
 105.304 91.6867 123 134 123 134 c 2
 344 642 l 2
 349.71 655.126 364 668 381 668 c 0
 390 668 403 658 405 655 c 1
 610 148 l 2
 623 117 635 87 643 66 c 0
 652.723 40.4763 709 33 717 33 c 0
 720 33 721 22 721 16 c 0
 721 11 721 -1 719 -4 c 1
 679 -2 618 4 574 4 c 0
 528 4 459 -2 423 -4 c 1
 418 1 418 33 423 33 c 0
259 276 m 0
 279 274 310 273 333 273 c 0
 364 273 373 273 404 275 c 0
 406 275 407 280 407 280 c 1
 335 459 l 1
 257 280 l 1
 257 280 257 276 259 276 c 0
EndSplineSet
Substitution2: "'c2sc' Capitals to Small Capitals in Latin lookup 0 subtable" a.sc
Substitution2: "'c2sc' Capitals to Small Capitals in Latin lookup 0 subtable" a.sc
EndChar

StartChar: B
Encoding: 66 66 34
Width: 605
Flags: W
HStem: -4 37<27.0357 93.8863> 0 55<250.364 391.39> 315 56<243 370.124> 606 55<252.661 368.234> 627 32<26.0593 80.4754>
VStem: 103 140<62.1421 312.344 372.732 601.949> 402 153<408.508 563.595> 428 150<103.494 268.545>
LayerCount: 2
Fore
SplineSet
428 176 m 0x65
 428 251 400 315 305 315 c 0
 293 315 268 314 254 310 c 0
 249 308 243 306 243 301 c 2
 243 76 l 2
 243 70 246 65 250 62 c 0
 257 57 313 55 325 55 c 0
 371 55 428 73 428 176 c 0x65
103 143 m 2
 103 521 l 2
 103 539 103 576 97 599 c 1
 92 611 42 627 30 627 c 0
 28 627 26 638 26 645 c 0
 26 652 27 662 29 664 c 1
 29 664 109 659 176 659 c 0x6d
 269 659 268 660 327 661 c 0
 420 662 555 614 555 483 c 0x36
 555 403 488 360 472 354 c 0
 464 351 466 348 467 348 c 0
 503 342 578 289 578 187 c 0
 578 72 476 -2 324 0 c 2x75
 177 2 l 2
 110 3 31 -4 31 -4 c 1
 30 -3 27 4 27 13 c 0
 27 19 29 33 31 33 c 4xa5
 43 33 92 43 97 55 c 1
 103 78 103 106 103 143 c 2
352 380 m 0
 372 391 402 407 402 482 c 0
 402 577 361 606 310 606 c 0x36
 286 606 266 606 252 602 c 0
 247 601 243 594 243 590 c 0
 243 563 243 499 243 499 c 1
 243 385 l 2
 243 376 260 371 295 371 c 0
 313 371 342 375 352 380 c 0
EndSplineSet
Validated: 33
Substitution2: "'c2sc' Capitals to Small Capitals in Latin lookup 0 subtable" b.sc
Substitution2: "'c2sc' Capitals to Small Capitals in Latin lookup 0 subtable" b.sc
EndChar

StartChar: C
Encoding: 67 67 35
Width: 638
Flags: W
HStem: -7 54<304.369 478.526> 611 56<275.304 464.266>
VStem: 25 156<204.262 445.491> 561 43<475.367 522.554>
LayerCount: 2
Fore
SplineSet
611 180 m 5
 611 169 585 40 570 34 c 4
 507 11 437 -7 345 -7 c 4
 168 -7 25 145 25 322 c 4
 25 509 165 667 355 667 c 4
 421 667 518 654 584 638 c 4
 592 636 604 500 604 490 c 4
 604 480 589 475 577 475 c 7
 572 475 566 477 561 478 c 5
 551 517 501 611 360 611 c 4
 219 611 181 483 181 343 c 4
 181 187 251 47 392 47 c 4
 452 47 494 75 520 101 c 4
 550 131 562 190 566 190 c 7
 571 190 605 194 611 180 c 5
EndSplineSet
Validated: 33
Substitution2: "'c2sc' Capitals to Small Capitals in Latin lookup 0 subtable" c.sc
Substitution2: "'c2sc' Capitals to Small Capitals in Latin lookup 0 subtable" c.sc
EndChar

StartChar: D
Encoding: 68 68 36
Width: 724
Flags: W
HStem: -4 37<27.0357 93.8863> -3 56<213.187 446.733> 603 56<252.283 431.232> 627 32<26.0593 80.4754>
VStem: 103 140<61.6039 593.055> 541 156<212.958 452.415>
LayerCount: 2
Fore
SplineSet
176 659 m 0x9c
 243 659 306 659 350 659 c 0
 581 659 697 496 697 336 c 0
 697 152 573 -3 349 -3 c 0x6c
 305 -3 241 2 177 2 c 4
 120 2 31 -4 31 -4 c 5
 30 -3 27 4 27 13 c 4
 27 19 29 33 31 33 c 4
 43 33 92 43 97 55 c 5
 103 78 103 106 103 143 c 6
 103 521 l 2
 103 539 103 576 97 599 c 1
 92 611 42 627 30 627 c 0
 28 627 26 638 26 645 c 0
 26 652 27 662 29 664 c 1
 29 664 109 659 176 659 c 0x9c
243 524 m 2
 243 136 l 2
 243 106 242 72 252 66 c 0
 272 54 349 53 365 53 c 0
 475 53 541 145 541 340 c 0
 541 478 478 603 358 603 c 2
 353 603 l 2
 329 603 267 602 256 587 c 0
 245 572 243 542 243 524 c 2
EndSplineSet
Validated: 33
Substitution2: "'c2sc' Capitals to Small Capitals in Latin lookup 0 subtable" d.sc
Substitution2: "'c2sc' Capitals to Small Capitals in Latin lookup 0 subtable" d.sc
EndChar

StartChar: E
Encoding: 69 69 37
Width: 598
Flags: W
HStem: -4 37<27.0357 93.8863> 2 52<249.185 448.441> 304 55<243 392.471> 610 49<246.485 421.878> 627 32<26.0593 80.4754>
VStem: 103 140<59.3721 302.528 359.429 607.831> 421 37<230.09 289.239 361.215 427.85>
LayerCount: 2
Fore
SplineSet
176 659 m 0xae
 269 659 390 664 499 664 c 1
 506 614 519 561 528 516 c 1
 525 513 512 511 505 511 c 0
 498 511 493 513 491 518 c 0
 466 568 404 610 351 610 c 2
 313 610 l 2
 272 610 250 609 248 597 c 0
 244 578 243 542 243 519 c 2
 243 365 l 2
 243 360 264 359 286 359 c 2
 339 359 l 2
 435 359 404 355 421 421 c 0
 422 426 429 428 436 428 c 0
 443 428 455 426 458 423 c 1
 458 234 l 1
 456 232 444 230 437 230 c 0
 430 230 423 233 421 238 c 0
 406 295 402 290 393 296 c 0
 382 303 353 304 315 304 c 0
 287 304 243 304 243 295 c 2
 243 141 l 2
 243 122 244 90 251 70 c 0
 255 58 277 54 319 54 c 2
 345 54 l 2
 383 54 428 65 457 80 c 0
 476 90 512 125 529 170 c 0
 530 174 536 176 543 176 c 0
 553 176 570 173 573 170 c 1
 554 116 526 42 519 -2 c 1
 410 -2 310 2 177 2 c 0x76
 119 2 31 -4 31 -4 c 1
 30 -3 27 4 27 13 c 0
 27 19 29 33 31 33 c 0
 43 33 92 43 97 55 c 1
 103 78 103 106 103 143 c 2
 103 521 l 2
 103 539 103 576 97 599 c 1
 92 611 42 627 30 627 c 0
 28 627 26 638 26 645 c 0
 26 652 27 662 29 664 c 1
 29 664 109 659 176 659 c 0xae
EndSplineSet
Validated: 33
Substitution2: "'c2sc' Capitals to Small Capitals in Latin lookup 0 subtable" e.sc
Substitution2: "'c2sc' Capitals to Small Capitals in Latin lookup 0 subtable" e.sc
EndChar

StartChar: F
Encoding: 70 70 38
Width: 553
Flags: W
HStem: -4 37<27.0357 93.8863 255.958 331.997> 304 55<243 392.471> 610 49<246.485 421.878> 627 37<26.0058 85.046>
VStem: 103 140<46.0108 302.528 359.429 607.831> 421 37<230.09 289.239 361.215 427.85>
LayerCount: 2
Fore
SplineSet
176 659 m 24xec
 302 659 390 664 499 664 c 1xdc
 506 614 519 561 528 516 c 1
 525 513 512 511 505 511 c 0
 498 511 493 513 491 518 c 0
 466 568 404 610 351 610 c 2
 313 610 l 2xec
 272 610 250 609 248 597 c 0
 244 578 243 542 243 519 c 2
 243 365 l 2
 243 360 264 359 286 359 c 2
 339 359 l 2
 435 359 404 355 421 421 c 0
 422 426 429 428 436 428 c 0
 443 428 455 426 458 423 c 1
 458 234 l 1
 456 232 444 230 437 230 c 0
 430 230 423 233 421 238 c 0
 406 295 402 290 393 296 c 0
 382 303 353 304 315 304 c 0
 287 304 243 304 243 295 c 2
 243 141 l 2
 243 106 244 86 250 59 c 0
 254 40 320 33 328 33 c 0
 331 33 332 20 332 14 c 0
 332 9 331 -1 330 -4 c 1
 290 -2 237 2 177 2 c 24
 120 2 31 -4 31 -4 c 1
 30 -3 27 4 27 13 c 0
 27 19 29 33 31 33 c 0
 43 33 92 43 97 55 c 1
 103 78 103 106 103 143 c 2
 103 521 l 2
 103 539 103 576 97 599 c 1
 92 611 42 627 30 627 c 0
 28 627 26 638 26 645 c 0
 26 652 27 662 29 664 c 1xdc
 29 664 119 659 176 659 c 24xec
EndSplineSet
Validated: 33
Substitution2: "'c2sc' Capitals to Small Capitals in Latin lookup 0 subtable" f.sc
Substitution2: "'c2sc' Capitals to Small Capitals in Latin lookup 0 subtable" f.sc
EndChar

StartChar: G
Encoding: 71 71 39
Width: 705
Flags: W
HStem: -9 56<302.372 455.75> 267 37<389.9 453.882 618.833 678.95> 611 56<270.535 461.038>
VStem: 25 154<202.653 442.95> 466 140<63.3801 253.324> 557 49<466.324 519.394>
LayerCount: 2
Fore
SplineSet
25 322 m 0xf8
 25 509 170 667 354 667 c 0
 420 667 517 654 583 638 c 0
 591 636 606 484 606 474 c 0
 606 464 596 466 588 466 c 27
 576 466 563 468 557 471 c 1xf4
 547 510 500 611 359 611 c 0
 225 611 179 502 179 345 c 0
 179 207 235 47 391 47 c 0
 410 47 441 52 455 63 c 0
 465 71 466 86 466 93 c 0
 466 120 466 156 466 156 c 1
 466 163 l 2
 466 180 465 218 459 240 c 0
 452 265 405 267 393 267 c 0
 388 267 387 299 392 304 c 1
 443 302 490 298 541 298 c 0
 583 298 636 302 676 304 c 1
 677 301 679 290 679 284 c 0
 679 277 678 266 675 266 c 0
 667 266 634 257 622 251 c 0
 610 245 606 220 606 172 c 0
 606 136 606 124 606 114 c 0
 606 84 612 86 612 76 c 0
 612 70 608 57 591 48 c 0
 540 22 484 -9 343 -9 c 0
 166 -9 25 145 25 322 c 0xf8
EndSplineSet
Validated: 33
Substitution2: "'c2sc' Capitals to Small Capitals in Latin lookup 0 subtable" g.sc
Substitution2: "'c2sc' Capitals to Small Capitals in Latin lookup 0 subtable" g.sc
EndChar

StartChar: H
Encoding: 72 72 40
Width: 727
Flags: W
HStem: -4 37<26.0015 88.9863 257.761 315.247 407.9 467.63 636.691 696.977> 4 29<411 559> 311 60<242.571 483> 625 37<28.0375 86.7328 255.849 316.934 409.657 467.618 636.417 698.994>
VStem: 102 140<47.3274 310.564 371.001 610.771> 483 140<47.2789 308.999 371.001 610.422>
LayerCount: 2
Fore
SplineSet
483 138 m 6xbc
 483 305 l 6
 483 307 481 309 481 309 c 5
 434 310 415 311 364 311 c 4
 210 311 242 310 242 306 c 6
 242 142 l 6
 242 106 243 85 250 58 c 4
 253 47 304 33 312 33 c 4
 317 33 318 5 314 -4 c 5xbc
 274 -2 214 4 170 4 c 4x7c
 124 4 76 -2 30 -4 c 5
 28 -2 26 7 26 13 c 4
 26 19 26 33 28 33 c 4
 40 33 90 45 95 57 c 5
 101 80 102 120 102 138 c 6
 102 520 l 6
 102 538 100 586 95 598 c 4
 88 614 44 625 32 625 c 4
 30 625 28 639 28 645 c 4
 28 651 28 660 30 662 c 5
 76 660 123 656 169 656 c 4
 213 656 275 660 315 662 c 5
 319 655 319 625 314 625 c 4
 306 625 254 612 250 601 c 4
 244 585 242 522 242 516 c 6
 242 374 l 6
 242 373 244 371 244 371 c 5
 293 370 308 369 364 369 c 4
 411 369 436 370 481 371 c 5
 481 371 483 373 483 375 c 6
 483 520 l 6
 483 538 482 576 476 599 c 5
 471 611 425 625 413 625 c 4
 408 625 407 657 412 662 c 5
 458 660 515 656 561 656 c 4
 605 656 656 660 696 662 c 5
 697 659 699 649 699 644 c 4
 699 638 697 625 694 625 c 4
 686 625 634 612 631 601 c 4
 624 575 623 552 623 516 c 6
 623 142 l 6
 623 106 624 84 631 57 c 4
 634 46 685 34 693 34 c 4
 696 34 697 19 697 13 c 4
 697 8 695 -1 694 -4 c 5xbc
 654 -2 603 4 559 4 c 4x7c
 513 4 456 -2 410 -4 c 5
 405 1 406 33 411 33 c 4
 423 33 472 47 477 59 c 5
 483 82 483 120 483 138 c 6xbc
EndSplineSet
Validated: 33
Substitution2: "'c2sc' Capitals to Small Capitals in Latin lookup 0 subtable" h.sc
Substitution2: "'c2sc' Capitals to Small Capitals in Latin lookup 0 subtable" h.sc
EndChar

StartChar: I
Encoding: 73 73 41
Width: 346
Flags: W
HStem: -4 37<26.0511 86.2761 257.318 315.997> 625 37<28.0015 86.7073 254.574 317.994>
VStem: 102 140<47.4144 599.411>
LayerCount: 2
Fore
SplineSet
102 522 m 2
 102 540 101 588 94 600 c 0
 87 612 44 625 32 625 c 0
 30 625 28 636 28 642 c 0
 28 648 28 660 30 662 c 1
 76 660 129 652 175 656 c 1
 219 656 275 660 315 662 c 1
 316 659 318 649 318 644 c 0
 318 638 317 625 314 625 c 0
 306 625 252 612 249 601 c 0
 242 574 242 516 242 516 c 2
 242 146 l 2
 242 110 243 85 250 58 c 0
 253 47 304 33 312 33 c 0
 315 33 316 20 316 14 c 0
 316 9 315 -1 314 -4 c 1
 274 -2 219 4 175 4 c 0
 129 4 76 -2 30 -4 c 1
 28 -2 26 6 26 12 c 0
 26 18 27 33 29 33 c 0
 41 33 90 46 95 58 c 1
 101 81 102 120 102 138 c 2
 102 522 l 2
EndSplineSet
Validated: 33
Substitution2: "'c2sc' Capitals to Small Capitals in Latin lookup 0 subtable" i.sc
Substitution2: "'c2sc' Capitals to Small Capitals in Latin lookup 0 subtable" i.sc
EndChar

StartChar: J
Encoding: 74 74 42
Width: 493
Flags: W
HStem: -218 70<84 212.117> 625 37<177.001 235.707 403.574 466.994>
VStem: 251 140<-9.59375 599.411>
LayerCount: 2
Fore
SplineSet
324 656 m 0
 368 656 424 660 464 662 c 1
 465 659 467 649 467 644 c 0
 467 638 466 625 463 625 c 0
 455 625 401 612 398 601 c 0
 391 574 391 549 391 516 c 2
 391 143 l 2
 391 -85 277 -218 95 -218 c 3
 73 -218 47 -207 38 -200 c 1
 31 -189 23 -169 23 -148 c 3
 23 -114 54 -87 86 -87 c 3
 131 -87 148 -148 179 -148 c 3
 242 -148 251 -31 251 135 c 2
 251 522 l 2
 251 540 250 588 243 600 c 0
 236 612 193 625 181 625 c 0
 179 625 177 636 177 642 c 0
 177 648 177 660 179 662 c 1
 225 660 278 656 324 656 c 0
EndSplineSet
Substitution2: "'c2sc' Capitals to Small Capitals in Latin lookup 0 subtable" j.sc
Substitution2: "'c2sc' Capitals to Small Capitals in Latin lookup 0 subtable" j.sc
EndChar

StartChar: K
Encoding: 75 75 43
Width: 741
Flags: W
HStem: -4 37<26.0511 86.2761 257.318 315.997 410.437 458.316 643.787 709.997> 289 61<242 281.764> 625 37<28.0015 86.7073 254.574 317.994 426.34 489.963 601.007 690.808>
VStem: 102 140<47.4144 288.974 353.947 599.411>
LayerCount: 2
Fore
SplineSet
175 656 m 0
 219 656 275 660 315 662 c 1
 316 659 318 649 318 644 c 0
 318 638 317 625 314 625 c 0
 306 625 252 612 249 601 c 0
 242 574 242 549 242 516 c 2
 242 358 l 2
 242 350 249 350 249 350 c 1
 256 350 l 2
 262 350 275 362 300 388 c 0
 377 467 405 498 482 586 c 0
 487 592 490 598 490 609 c 0
 490 624 439 627 430 627 c 0
 425 627 421 653 424 662 c 1
 461 660 521 656 558 656 c 0
 602 656 650 660 690 662 c 1
 692 656 693 627 688 627 c 0
 679 626 606 624 572 586 c 2
 400 396 l 2
 390 385 393 374 399 367 c 2
 636 58 l 2
 653 38 698 33 706 33 c 0
 709 33 710 21 710 14 c 0
 710 9 707 -2 706 -4 c 1
 666 -2 596 4 555 4 c 0
 499 4 457 0 413 -4 c 1
 408 1 408 33 413 33 c 0
 424 33 460 41 460 53 c 0
 460 81 328 234 282 286 c 0
 277 291 270 289 268 289 c 0
 264 289 242 290 242 272 c 1
 242 146 l 2
 242 110 243 85 250 58 c 0
 253 47 304 33 312 33 c 0
 315 33 316 20 316 14 c 0
 316 9 315 -1 314 -4 c 1
 274 -2 219 4 175 4 c 0
 129 4 76 -2 30 -4 c 1
 28 -2 26 6 26 12 c 0
 26 18 27 33 29 33 c 0
 41 33 90 46 95 58 c 1
 101 81 102 120 102 138 c 2
 102 522 l 2
 102 540 101 588 94 600 c 0
 87 612 44 625 32 625 c 0
 30 625 28 636 28 642 c 0
 28 648 28 660 30 662 c 1
 76 660 129 656 175 656 c 0
EndSplineSet
Substitution2: "'c2sc' Capitals to Small Capitals in Latin lookup 0 subtable" k.sc
Substitution2: "'c2sc' Capitals to Small Capitals in Latin lookup 0 subtable" k.sc
EndChar

StartChar: L
Encoding: 76 76 44
Width: 598
Flags: W
HStem: -4 37<26.0357 92.8863> 2 52<248.185 447.441> 625 37<28.0015 86.7073 254.574 317.994>
VStem: 102 140<59.3721 599.414>
LayerCount: 2
Fore
SplineSet
175 656 m 0xb0
 219 656 275 660 315 662 c 1
 316 659 318 649 318 644 c 0
 318 638 317 625 314 625 c 0
 306 625 252 612 249 601 c 0
 242 574 242 553 242 521 c 2
 242 142 l 2
 242 120 243 90 250 70 c 0
 254 58 276 54 318 54 c 2
 344 54 l 2
 382 54 427 65 456 80 c 0
 475 90 511 125 528 170 c 0
 529 174 535 176 542 176 c 0
 552 176 569 173 572 170 c 1
 553 116 525 42 518 -2 c 1
 409 -2 266 2 176 2 c 0x70
 118 2 30 -4 30 -4 c 1
 29 -3 26 4 26 13 c 0
 26 19 28 33 30 33 c 0
 42 33 91 43 96 55 c 1
 102 78 102 106 102 143 c 2
 102 525 l 2
 102 543 101 588 94 600 c 0
 87 612 44 625 32 625 c 0
 30 625 28 636 28 642 c 0
 28 648 28 660 30 662 c 1
 76 660 129 656 175 656 c 0xb0
EndSplineSet
Substitution2: "'c2sc' Capitals to Small Capitals in Latin lookup 0 subtable" l.sc
Substitution2: "'c2sc' Capitals to Small Capitals in Latin lookup 0 subtable" l.sc
EndChar

StartChar: M
Encoding: 77 77 45
Width: 918
Flags: W
HStem: -4 37<26.0229 97 232.656 303.981 610.053 664.35 836.899 888.974> 625 37<71.1671 147.964 806.479 853.949>
VStem: 673 119<284.417 468.964> 681 131<89.484 375.584>
LayerCount: 2
Fore
SplineSet
190 656 m 0xe0
 224 656 255 660 295 662 c 1
 315 598 413 405 484 230 c 1
 484 230 485 230 486 230 c 0
 487 230 488 230 488 231 c 2
 488 231 565 422 610 546 c 24
 626 589 643 658 643 658 c 1
 652 657 705 656 724 656 c 0
 758 656 810 660 850 662 c 1
 852 659 854 651 854 646 c 0
 854 640 853 625 849 625 c 2
 848 625 l 2
 840 625 816 620 806 613 c 0
 796 606 791 599 792 572 c 0xe0
 795 502 806 280 812 152 c 0
 814 113 817 86 827 60 c 0
 833 46 877 33 885 33 c 0
 888 33 889 19 889 13 c 0
 889 8 888 -1 887 -4 c 1
 847 -2 804 4 760 4 c 0
 714 4 661 -2 615 -4 c 1
 613 -2 610 6 610 12 c 0
 610 18 611 33 613 33 c 0
 625 33 667 47 675 61 c 0
 683 76 683 79 683 89 c 0
 683 99 682 130 681 148 c 2xd0
 673 402 l 2
 672 419 672 469 665 469 c 0
 663 469 662 467 660 462 c 2
 487 31 l 2
 483 22 465 -2 447 -2 c 0
 444 -2 441 -1 438 0 c 1
 218 494 l 1
 209 287 208 273 201 109 c 0
 201 100 201 80 202 73 c 0
 206 52 292 33 300 33 c 0
 303 33 304 20 304 13 c 0
 304 7 303 -1 302 -4 c 1
 262 -2 208 4 164 4 c 0
 118 4 76 -2 30 -4 c 1
 28 -2 26 7 26 13 c 0
 26 19 27 32 29 32 c 0
 41 32 127 50 130 83 c 0
 132 102 133 115 134 131 c 0
 140 248 150 540 152 587 c 0
 152 594 152 598 149 605 c 0
 144 617 87 626 75 626 c 0
 73 626 71 641 71 647 c 0
 71 653 73 660 75 662 c 1
 121 660 144 656 190 656 c 0xe0
EndSplineSet
Validated: 33
Substitution2: "'c2sc' Capitals to Small Capitals in Latin lookup 0 subtable" m.sc
Substitution2: "'c2sc' Capitals to Small Capitals in Latin lookup 0 subtable" m.sc
EndChar

StartChar: N
Encoding: 78 78 46
Width: 777
Flags: W
HStem: -4 37<28.0029 95.5469 221.819 290.987> 625 37<28.4447 110.588 490.419 556.898 680.721 750.994> 625 29<687.388 745.125>
VStem: 126 64<57.1606 524> 585 64<248.338 599.976>
LayerCount: 2
Fore
SplineSet
585 524 m 6xd8
 585 541 587 579 572 596 c 4
 558 612 506 625 494 625 c 4
 489 625 487 657 491 662 c 5xd8
 537 658 577 654 623 654 c 4xb8
 667 654 707 660 747 662 c 5
 749 658 751 649 751 644 c 4
 751 638 749 625 746 625 c 4
 738 625 689 623 663 592 c 4
 653 580 649 555 649 519 c 6
 649 139 l 6
 649 81 651 51 653 -1 c 5
 650 -4 631 -5 628 -5 c 4
 619 -5 608 5 597 18 c 6
 190 524 l 5
 190 141 l 6
 190 105 190 86 198 70 c 4
 212 43 280 34 288 34 c 4
 293 34 292 2 290 -4 c 5
 250 -2 199 4 155 4 c 4
 109 4 77 -2 31 -4 c 5
 29 -2 28 8 28 14 c 4
 28 20 29 33 31 33 c 4
 43 33 95 37 116 71 c 4
 126 87 126 106 126 144 c 4
 126 275 126 406 126 537 c 4
 126 565 127 588 111 608 c 4
 103 618 44 625 32 625 c 4
 27 625 25 657 30 662 c 5xd8
 76 660 121 654 167 654 c 4xb8
 202 654 233 658 265 662 c 5
 303 584 459 412 583 248 c 5
 585 255 585 275 585 289 c 6
 585 524 l 6xd8
EndSplineSet
Validated: 33
Substitution2: "'c2sc' Capitals to Small Capitals in Latin lookup 0 subtable" n.sc
Substitution2: "'c2sc' Capitals to Small Capitals in Latin lookup 0 subtable" n.sc
EndChar

StartChar: O
Encoding: 79 79 47
Width: 695
Flags: W
HStem: -10 56<289.371 428.219> 611 56<263.259 410.82>
VStem: 25 156<204.749 449.761> 512 156<208.412 447.752>
LayerCount: 2
Fore
SplineSet
331 611 m 4
 219 611 181 484 181 350 c 4
 181 226 224 46 362 46 c 4
 469 46 512 174 512 309 c 4
 512 443 476 611 331 611 c 4
25 328 m 4
 25 515 170 667 346 667 c 4
 522 667 668 515 668 328 c 4
 668 141 522 -10 346 -10 c 4
 170 -10 25 141 25 328 c 4
EndSplineSet
Validated: 1
Substitution2: "'c2sc' Capitals to Small Capitals in Latin lookup 0 subtable" o.sc
Substitution2: "'c2sc' Capitals to Small Capitals in Latin lookup 0 subtable" o.sc
EndChar

StartChar: P
Encoding: 80 80 48
Width: 572
Flags: W
HStem: -4 37<27.0357 93.8863 255.958 331.997> 280 52<265.06 360.341> 605 57<247.925 355.853> 627 37<26.0058 85.046>
VStem: 103 140<46.0108 601.876> 393 152<392.561 564.601>
LayerCount: 2
Fore
SplineSet
176 659 m 4xdc
 234 659 245 662 304 662 c 4
 412 662 545 616 545 479 c 4
 545 372 451 280 331 280 c 4
 295 280 267.906 297.932 265 302 c 4
 260 309 257 340 264 340 c 5
 274 334 294 332 309 332 c 4
 373 332 393 391 393 468 c 4
 393 547 368 605 301 605 c 4xec
 277 605 264.765 604.324 255 597 c 4
 247 591 243 570 243 499 c 6
 243 141 l 6
 243 106 244 86 250 59 c 4
 254 40 320 33 328 33 c 4
 331 33 332 20 332 14 c 4
 332 9 331 -1 330 -4 c 5
 290 -2 237 2 177 2 c 28
 120 2 31 -4 31 -4 c 5
 30 -3 27 4 27 13 c 4
 27 19 29 33 31 33 c 4
 43 33 92 43 97 55 c 5
 103 78 103 106 103 143 c 6
 103 521 l 6
 103 539 103 576 97 599 c 5
 92 611 42 627 30 627 c 4
 28 627 26 638 26 645 c 4
 26 652 27 662 29 664 c 5
 29 664 119 659 176 659 c 4xdc
EndSplineSet
Substitution2: "'c2sc' Capitals to Small Capitals in Latin lookup 0 subtable" p.sc
Substitution2: "'c2sc' Capitals to Small Capitals in Latin lookup 0 subtable" p.sc
EndChar

StartChar: Q
Encoding: 81 81 49
Width: 775
Flags: W
HStem: -143 69<548.121 673.065> 603 64<257.523 408.777>
VStem: 25 154<207.884 451.934> 510 154<207.101 450.53>
LayerCount: 2
Back
SplineSet
347 625 m 0
 213 625 138 484 138 350 c 0
 138 195 223 33 378 33 c 0
 513 33 587 174 587 309 c 0
 587 464 502 625 347 625 c 0
691 -84 m 0
 731 -84 752 -76 759 -76 c 0
 767 -76 771 -86 771 -96 c 2
 771 -101 l 1
 716 -130 664 -136 603 -136 c 0
 493 -136 384 -33 276 0 c 0
 188 27 43 141 43 328 c 0
 43 515 186 667 362 667 c 0
 538 667 682 515 682 328 c 0
 682 141 545 22 458 5 c 1
 555 -41 587 -84 691 -84 c 0
EndSplineSet
Fore
SplineSet
329 603 m 0
 217 603 179 484 179 350 c 0
 179 226 222 51 360 51 c 0
 467 51 510 174 510 309 c 0
 510 443 474 603 329 603 c 0
662 -74 m 0
 702 -74 731 -64 738 -64 c 0
 746 -64 750 -74 750 -84 c 2
 750 -89 l 1
 695 -118 614 -143 553 -143 c 0
 443 -143 366 -33 258 0 c 0
 170 27 25 141 25 328 c 0
 25 515 168 667 344 667 c 0
 520 667 664 515 664 328 c 0
 664 141 527 22 440 5 c 1
 537 -41 558 -74 662 -74 c 0
EndSplineSet
Validated: 1
Substitution2: "'c2sc' Capitals to Small Capitals in Latin lookup 0 subtable" q.sc
Substitution2: "'c2sc' Capitals to Small Capitals in Latin lookup 0 subtable" q.sc
EndChar

StartChar: R
Encoding: 82 82 50
Width: 709
Flags: W
HStem: -4 37<27.0357 93.8863 256.143 331.997 622.32 676.993> 293 55<246.019 283.799> 605 55<248.173 358.455> 627 37<26.0058 85.046>
VStem: 103 140<46.0108 292.996 350.212 601.876> 394 152<403.181 568.163>
LayerCount: 2
Fore
SplineSet
301 605 m 0xec
 277 605 264.766 604.324 255 597 c 0
 247 591 244 570 243 499 c 2
 243 391 l 2
 243 350 266 348 285 348 c 2
 312 348 l 2
 366 348 394 400.124 394 472 c 0
 394 567 357 605 301 605 c 0xec
316 660 m 0
 398 660 546 621 546 492 c 0
 546 394 474 327 423 310 c 0
 418 308 416.39 305.242 420 299 c 0
 468 216 486 198 529 135 c 0
 555.735 95.8301 617 33 673 33 c 1
 676 29 677 20 677 15 c 0
 677 10 676 2 673 -5 c 1
 666 -6 646 -7 638 -7 c 0
 467 -7 417 69 366 147 c 0
 319.688 217.832 280.181 286.273 263 292 c 0
 260 293 257 293 252 293 c 0
 246 293 243 288 243 277 c 2
 243 141 l 0
 243 106 244 86 250 59 c 0
 254 40 320 33 328 33 c 0
 331 33 332 20 332 14 c 0
 332 9 331 -1 330 -4 c 1
 290 -2 237 2 177 2 c 24
 120 2 31 -4 31 -4 c 1
 30 -3 27 4 27 13 c 0
 27 19 29 33 31 33 c 0
 43 33 92 43 97 55 c 1
 103 78 103 106 103 143 c 2
 103 521 l 2
 103 539 103 576 97 599 c 1
 92 611 42 627 30 627 c 0
 28 627 26 638 26 645 c 0
 26 652 27 662 29 664 c 1xdc
 29 664 121 659 176 659 c 0
 231 659 257 660 316 660 c 0
EndSplineSet
Substitution2: "'c2sc' Capitals to Small Capitals in Latin lookup 0 subtable" r.sc
Substitution2: "'c2sc' Capitals to Small Capitals in Latin lookup 0 subtable" r.sc
EndChar

StartChar: S
Encoding: 83 83 51
Width: 483
Flags: W
HStem: -10 57<153.2 284.542> 614 56<186.573 308.551>
VStem: 25 50<131.873 191.95> 31 133<470.093 565.322> 317 139<94.2238 206.125> 377 46<466.002 536.4>
LayerCount: 2
Fore
SplineSet
31 489 m 0xd8
 31 592 141 670 244 670 c 0
 303 670 349 655 412 642 c 1
 418 589 423 538 423 476 c 1
 420 469 412 466 408 466 c 0
 397 466 379 465 377 473 c 0
 369 529 322 614 245 614 c 0
 206 614 164 593 164 526 c 0xd4
 164 464 243 419 309 377 c 0
 376 334 456 308 456 175 c 0
 456 65 348 -10 238 -10 c 0
 179 -10 108 2 48 16 c 1
 36 61 25 154 25 182 c 1
 27 188 38 192 43 192 c 0
 53 192 74 194 75 186 c 0xe8
 84 132 144 47 218 47 c 0
 274 47 317 76 317 156 c 0
 317 216 227 261 177 295 c 0
 104 344 31 385 31 489 c 0xd8
EndSplineSet
Validated: 33
Substitution2: "'c2sc' Capitals to Small Capitals in Latin lookup 0 subtable" s.sc
Substitution2: "'c2sc' Capitals to Small Capitals in Latin lookup 0 subtable" s.sc
EndChar

StartChar: T
Encoding: 84 84 52
Width: 665
Flags: W
HStem: -4 37<184.051 244.276 415.318 473.997> 607 56<104.125 253.732 406.927 558.5>
VStem: 24 39<504.931 557.873> 260 140<47.4144 601> 600 39<503.931 557.047>
LayerCount: 2
Fore
SplineSet
331 657 m 4
 411 657 462 662 551 663 c 4
 565 663 604 670 620 674 c 5
 639 510 l 5
 636 507 619 503 610 503 c 4
 605 503 601 504 600 508 c 4
 581 582 544 607 493 607 c 4
 414 607 410 597 408 589 c 4
 400 561 400 538 400 500 c 6
 400 139 l 6
 400 103 401 85 408 58 c 4
 411 47 462 33 470 33 c 4
 473 33 474 20 474 14 c 4
 474 9 473 -1 472 -4 c 5
 432 -2 377 4 333 4 c 4
 287 4 234 -2 188 -4 c 5
 186 -2 184 6 184 12 c 4
 184 18 185 33 187 33 c 4
 199 33 248 46 253 58 c 5
 259 81 260 117 260 135 c 6
 260 497 l 6
 260 537 260 575 252 589 c 4
 248 597 249 607 170 607 c 4
 118 607 82 583 63 509 c 4
 62 505 58 504 53 504 c 4
 44 504 27 508 24 511 c 5
 43 674 l 5
 59 670 98 663 112 663 c 4
 201 662 251 657 331 657 c 4
EndSplineSet
Validated: 1
Substitution2: "'c2sc' Capitals to Small Capitals in Latin lookup 0 subtable" t.sc
Substitution2: "'c2sc' Capitals to Small Capitals in Latin lookup 0 subtable" t.sc
EndChar

StartChar: U
Encoding: 85 85 53
Width: 753
Flags: W
HStem: -5 80<318.393 480.081> 625 37<24.0015 82.7073 250.574 313.994 466.419 532.898 656.721 726.994> 625 29<663.388 721.125>
VStem: 98 140<165.359 599.411> 561 64<166.174 599.976>
LayerCount: 2
Fore
SplineSet
171 656 m 4xd8
 215 656 271 660 311 662 c 5
 312 659 314 649 314 644 c 4
 314 638 313 625 310 625 c 4
 302 625 248 612 245 601 c 4
 238 574 238 549 238 516 c 6
 238 279 l 6
 238 158 296 75 392 75 c 4
 478 75 561 122 561 286 c 6
 561 524 l 6
 561 541 563 579 548 596 c 4
 534 612 482 625 470 625 c 4
 465 625 463 657 467 662 c 5xd8
 513 658 553 654 599 654 c 4xb8
 643 654 683 660 723 662 c 5
 725 658 727 649 727 644 c 4
 727 638 725 625 722 625 c 4
 714 625 665 623 639 592 c 4
 629 580 625 555 625 519 c 6
 625 291 l 6
 625 88 512 -5 368 -5 c 4
 217 -5 98 80 98 311 c 6
 98 522 l 6
 98 540 97 588 90 600 c 4
 83 612 40 625 28 625 c 4
 26 625 24 636 24 642 c 4
 24 648 24 660 26 662 c 5
 72 660 125 656 171 656 c 4xd8
EndSplineSet
Validated: 33
Substitution2: "'c2sc' Capitals to Small Capitals in Latin lookup 0 subtable" u.sc
Substitution2: "'c2sc' Capitals to Small Capitals in Latin lookup 0 subtable" u.sc
EndChar

StartChar: V
Encoding: 86 86 54
Width: 729
Flags: W
HStem: -10 21G<349.5 360> 625 37<16.003 78.9697 256.631 315.563 491.761 556.589 666.641 726.987>
LayerCount: 2
Fore
SplineSet
162 654 m 0
 208 654 277 660 313 662 c 1
 318 657 318 625 313 625 c 0
 301 625 247 617 247 589 c 0
 247 580 260 548 270 523 c 24
 321 394 404 193 404 193 c 1
 404 193 533 494 545 522 c 0
 556 547 565 575 565 590 c 0
 565 610 534 625 494 625 c 0
 489 625 491 656 493 662 c 1
 533 660 563 654 607 654 c 0
 653 654 677 660 723 662 c 1
 725 660 727 653 727 647 c 0
 727 641 727 626 725 626 c 0
 713 626 673 615 651 597 c 0
 643.338 590.731 626 553 613 524 c 24
 527 331 396.785 27 396.785 27 c 2
 386.131 2.50818 366 -10 354 -10 c 0
 345 -10 336 -4 331 3 c 1
 126 510 l 2
 114.169 539.26 101 571 93 592 c 0
 83.2764 617.523 28 625 20 625 c 0
 17 625 16 636 16 642 c 0
 16 647 16 659 18 662 c 1
 58 660 118 654 162 654 c 0
EndSplineSet
Substitution2: "'c2sc' Capitals to Small Capitals in Latin lookup 0 subtable" v.sc
Substitution2: "'c2sc' Capitals to Small Capitals in Latin lookup 0 subtable" v.sc
EndChar

StartChar: W
Encoding: 87 87 55
Width: 1094
Flags: HMW
HStem: 625 37<2.0058 67.4355 232.639 280.362 291.006 356.436 521.639 569.362 581.775 653.028 768.741 829.362 843.775 915.936 1030.83 1091.36>
LayerCount: 2
Fore
SplineSet
146 656 m 0
 190 656 242 660 282 662 c 1
 284 656 287 625 282 625 c 0
 274 625 236 624 236 591 c 0
 236 584 248 560 248 560 c 1
 432 195 l 2
 436 187 444 195 447 200 c 2
 508.649 309.731 l 1
 399 527 l 2
 388.324 548.154 368 588 356 600 c 0
 342.417 613.583 320 625 298 625 c 0
 296 625 294 638 294 644 c 0
 294 650 294 660 296 662 c 1
 342 660 389 656 435 656 c 0
 479 656 527 660 567 662 c 1
 569 656 572 625 567 625 c 0
 551 625 521 618 521 593 c 0
 521 586 533 562 533 562 c 1
 591.369 446.755 l 1
 638.683 542.183 l 2
 648 561 659 581 659 594 c 0
 659 622 595 626 585 626 c 0
 580 626 579 657 584 662 c 1
 616 660 671 656 703 656 c 0
 754 656 788 660 828 662 c 1
 830 656 833 626 828 626 c 0
 808 626 768.092 610.339 755 596 c 0
 734 573 716 543 699 510 c 2
 629 372 l 1
 716 201 l 2
 720 193 726 200 729 205 c 2
 729 205 872 488 900 544 c 0
 909.818 563.636 918 585 918 594 c 0
 918 621 857 626 847 626 c 0
 842 626 841 657 846 662 c 1
 878 660 933 656 965 656 c 0
 1016 656 1050 660 1090 662 c 1
 1091.2 658.407 1092.74 646.21 1092.74 637 c 3
 1092.74 630.829 1092.01 626 1090 626 c 0
 1070 626 1032.39 612.06 1019 598 c 0
 999 577 979.263 545.937 961 510 c 0
 930 449 714 19 714 19 c 2
 703.545 -1.78327 688 -13 680 -13 c 0
 676 -13 671 -11 669 -8 c 2
 546 233 l 1
 426 19 l 2
 415 -1 400 -13 392 -13 c 0
 388 -13 385 -11 383 -8 c 2
 112 527 l 2
 93.8123 562.906 89 575 66 604 c 0
 54 619 18 625 6 625 c 0
 4 625 2 638 2 644 c 0
 2 650 2 660 4 662 c 1
 50 660 100 656 146 656 c 0
EndSplineSet
Substitution2: "'c2sc' Capitals to Small Capitals in Latin lookup 0 subtable" w.sc
Substitution2: "'c2sc' Capitals to Small Capitals in Latin lookup 0 subtable" w.sc
EndChar

StartChar: X
Encoding: 88 88 56
Width: 768
Flags: HW
HStem: -4 37<27.1322 97.6092 222.226 292.93 427.445 482.092 677.308 735.987> 625 37<68.4365 123.334 301.606 356.998 475.657 545.395 670.622 736.64>
LayerCount: 2
Fore
SplineSet
212 656 m 0
 261 656 316 660 356 662 c 1
 358 656 359 625 354 625 c 0
 340 625 302 619 301 604 c 0
 301 598 305 588 309 582 c 2
 420.085 413.662 l 1
 470.325 477.63 553 571.317 553 594 c 0
 553 611 513 625 479 625 c 0
 474 625 473 657 478 662 c 1
 515 660 565 656 602 656 c 0
 654 656 695 660 735 662 c 1
 738 656 739 625 734 625 c 0
 726 625 671.44 618.456 645 586 c 2
 457.995 356.449 l 1
 542.157 229.594 633.424 93.1788 648 76 c 0
 677 41 725 33 733 33 c 0
 736 33 736 18 736 11 c 0
 736 6 734 -2 733 -4 c 1
 693 -2 628 2 587 2 c 0
 531 2 485 -2 429 -4 c 1
 424 1 426 33 431 33 c 0
 442 33 487 43 487 61 c 0
 487 64 485.987 68.9911 484 72 c 2
 353.845 269.14 l 1
 336.047 245.487 214 82.6875 214 66 c 0
 214 44 258 33 288 33 c 0
 291 33 293 19 293 12 c 0
 293 5 292 -2 291 -4 c 1
 258 -2 196 2 159 2 c 0
 107 2 71 -2 31 -4 c 1
 30 -1 27 5 27 10 c 0
 27 16 28 33 31 33 c 0
 39 33 102 44 119 67 c 2
 312.309 332.053 l 1
 178 537 l 2
 160.657 563.464 138 600 124 610 c 0
 110 620 83 625 71 625 c 0
 66 625 66 657 71 662 c 1
 120 660 163 656 212 656 c 0
EndSplineSet
Substitution2: "'c2sc' Capitals to Small Capitals in Latin lookup 0 subtable" x.sc
Substitution2: "'c2sc' Capitals to Small Capitals in Latin lookup 0 subtable" x.sc
EndChar

StartChar: Y
Encoding: 89 89 57
Width: 669
Flags: HW
HStem: -4 37<191.051 251.276 422.318 480.997> 625 37<32.4365 87.3001 265.606 320.998 424.657 491.422 599.953 663.994>
VStem: 267 140<47.4144 346.885>
LayerCount: 2
Fore
SplineSet
177 656 m 4
 226 656 280 660 320 662 c 5
 322 656 323 625 318 625 c 4
 304 625 266 619 265 604 c 4
 265 598 269.354 588.52 273 582 c 6
 373 405 l 5
 378 400 380.951 404.033 383 407 c 4
 412 449 492 579 492 603 c 4
 492 616 470 625 428 625 c 4
 423 625 422 657 427 662 c 5
 457 660 511 656 548 656 c 4
 600 656 632 660 661 662 c 5
 662 659 664 649 664 644 c 4
 664 638 663 626 660 626 c 4
 641 626 602 616 582 590 c 4
 558 557 407 323 407 304 c 6
 407 145 l 6
 407 110 408 85 415 58 c 4
 418 47 469 33 477 33 c 4
 480 33 481 20 481 14 c 4
 481 9 480 -1 479 -4 c 5
 439 -2 384 4 340 4 c 4
 294 4 241 -2 195 -4 c 5
 193 -2 191 6 191 12 c 4
 191 18 192 33 194 33 c 4
 206 33 255 46 260 58 c 5
 266 81 267 120 267 139 c 6
 267 309 l 6
 267 324 142 537 142 537 c 6
 126.227 565.769 103 601 88 610 c 4
 73.2472 618.852 47 625 35 625 c 4
 30 625 30 657 35 662 c 5
 84 660 128 656 177 656 c 4
EndSplineSet
Substitution2: "'c2sc' Capitals to Small Capitals in Latin lookup 0 subtable" y.sc
Substitution2: "'c2sc' Capitals to Small Capitals in Latin lookup 0 subtable" y.sc
EndChar

StartChar: Z
Encoding: 90 90 58
Width: 635
Flags: W
HStem: 0 57<216.005 483.359> 599 57<146.432 398.673> 646 16G<71.5 83 536 580>
LayerCount: 2
Fore
SplineSet
237 656 m 2xc0
 346 656 l 2
 430 656 494 660 578 666 c 1
 582 665 588 643 588 633 c 1
 586 625 223 82 223 82 c 2
 219 76 216 71 216 67 c 0
 216 60 223 57 230 57 c 2
 389 57 l 2
 489 57 545 115 565 174 c 0
 566 176 567 180 578 180 c 0
 588 180 602 180 609 174 c 1
 587 108 562 47 555 0 c 1
 38 0 l 1
 32 7 30 18 30 26 c 0
 30 33 31 39 34 43 c 2
 402 599 l 1
 231 599 l 0xc0
 125 598 114 546 91 484 c 0
 90 481 88 478 78 478 c 0
 67 478 48 479 45 482 c 1
 56 540 68 599 75 662 c 1xa0
 91 658 223 656 237 656 c 2xc0
EndSplineSet
Substitution2: "'c2sc' Capitals to Small Capitals in Latin lookup 0 subtable" z.sc
Substitution2: "'c2sc' Capitals to Small Capitals in Latin lookup 0 subtable" z.sc
EndChar

StartChar: bracketleft
Encoding: 91 91 59
Width: 310
Flags: W
HStem: -110 50<157 254.154> 720 50<157 255.166>
VStem: 34 123<-61.1899 720.956>
LayerCount: 2
Fore
SplineSet
53 770 m 0
 156 770 246 786 282 793 c 1
 284 793 288 788 288 778 c 0
 288 758 280 753 278 752 c 0
 248 737 192 720 166 720 c 0
 160 720 157 716 157 711 c 2
 157 -52 l 2
 157 -56 159 -60 165 -60 c 0
 186 -60 242 -74 278 -92 c 0
 284 -95 288 -105 288 -117 c 0
 288 -128 285 -132 282 -133 c 1
 205 -120 153 -110 53 -110 c 0
 35 -110 34 -88 34 -87 c 2
 34 747 l 2
 34 748 35 770 53 770 c 0
EndSplineSet
Validated: 1
Substitution2: "'smcp' Lowercase to Small Capitals in Latin lookup 0 subtable" bracketleft.sc
Substitution2: "'c2sc' Capitals to Small Capitals in Latin lookup 0 subtable" bracketleft.taboldstyle
EndChar

StartChar: backslash
Encoding: 92 92 60
Width: 413
Flags: W
LayerCount: 2
Back
SplineSet
96.1299 755 m 5
 399.129 -12 l 6
 402.596 -19 384.091 -35 349.091 -35 c 4
 334.091 -35 325.625 -28 325.625 -28 c 5
 22.625 739 l 5
 17.9111 754 24.4434 761 54.4434 761 c 4
 68.4434 761 90.5684 757 96.1299 755 c 5
EndSplineSet
Fore
SplineSet
391 -6 m 0
 391 -33 366 -39 358 -39 c 1
 352 -39 334 -37 334 -37 c 1
 21 755 l 1
 21 755 28 761 42 761 c 0
 72 761 94 754 101 739 c 2
 388 13 l 2
 389 11 391 2 391 -6 c 0
EndSplineSet
Validated: 1
Substitution2: "'smcp' Lowercase to Small Capitals in Latin lookup 0 subtable" backslash.sc
Substitution2: "'c2sc' Capitals to Small Capitals in Latin lookup 0 subtable" backslash.taboldstyle
EndChar

StartChar: bracketright
Encoding: 93 93 61
Width: 310
Flags: W
HStem: -110 50<54.8457 152> 720 50<53.8337 152>
VStem: 152 123<-59.9971 719.997>
LayerCount: 2
Back
SplineSet
17 -117 m 4
 17 -128 20 -132 23 -133 c 5
 100 -120 152 -110 252 -110 c 4
 270 -110 271 -88 271 -87 c 6
 271 747 l 6
 271 748 270 770 252 770 c 4
 149 770 59 786 23 793 c 5
 21 793 17 788 17 778 c 4
 17 758 25.2109 752.895 27 752 c 4
 57 737 113 720 139 720 c 4
 145 720 148 716 148 711 c 6
 148 -52 l 6
 148 -56 146 -60 140 -60 c 4
 119 -60 63.4199 -73.79 27 -92 c 4
 21 -95 17 -105 17 -117 c 4
EndSplineSet
Fore
SplineSet
21 -117 m 0
 21 -105 25 -95 31 -92 c 0
 67 -74 123 -60 144 -60 c 0
 150 -60 152 -56 152 -52 c 2
 152 711 l 2
 152 716 149 720 143 720 c 0
 117 720 61 737 31 752 c 0
 29 753 21 758 21 778 c 0
 21 788 25 793 27 793 c 1
 63 786 153 770 256 770 c 0
 274 770 275 748 275 747 c 2
 275 -87 l 2
 275 -88 274 -110 256 -110 c 0
 156 -110 104 -120 27 -133 c 1
 24 -132 21 -128 21 -117 c 0
EndSplineSet
Validated: 1
Substitution2: "'smcp' Lowercase to Small Capitals in Latin lookup 0 subtable" bracketright.sc
Substitution2: "'c2sc' Capitals to Small Capitals in Latin lookup 0 subtable" bracketright.taboldstyle
EndChar

StartChar: asciicircum
Encoding: 94 94 62
Width: 388
Flags: W
HStem: 469 221
VStem: 56 304
LayerCount: 2
Fore
SplineSet
347 469 m 4
 331 469 255 525 207 582 c 5
 163 525 85 469 69 469 c 4
 59 469 56 499 56 499 c 5
 62 513 142 567 193 677 c 4
 197 686 195 690 203 690 c 4
 228 690 218 668 278 588 c 4
 301 558 358 505 360 500 c 5
 360 496 355 469 347 469 c 4
EndSplineSet
Validated: 1
Substitution2: "'smcp' Lowercase to Small Capitals in Latin lookup 0 subtable" asciicircum.sc
EndChar

StartChar: underscore
Encoding: 95 95 63
Width: 529
Flags: W
HStem: -43 56<33.9907 492.32>
LayerCount: 2
Fore
SplineSet
30 -33 m 1
 30 -33 35 13 45 13 c 2
 494 13 l 2
 496 13 498 12 498 8 c 0
 498 -1 494 -15 488 -37 c 0
 486 -43 482 -43 482 -43 c 1
 37 -43 l 1
 37 -43 30 -43 30 -33 c 1
EndSplineSet
Validated: 1
EndChar

StartChar: grave
Encoding: 96 96 64
Width: 247
Flags: W
HStem: 522 165
VStem: 42 173
LayerCount: 2
Fore
SplineSet
42 658 m 4
 42 666 53 687 88 687 c 4
 102 687 117 683 122 678 c 4
 159 635 215 545 215 540 c 4
 215 534 205 522 198 522 c 4
 188 522 42 619 42 658 c 4
EndSplineSet
Validated: 1
EndChar

StartChar: a
Encoding: 97 97 65
Width: 486
Flags: W
HStem: -7 72<110 232.222> -6 81<332.5 424.374> 393 56<168.779 294.062>
VStem: 28 130<75.4548 165.83> 37 121<292.604 366.343> 266 130<75.0608 209 260.097 380.349>
LayerCount: 2
Fore
SplineSet
211 65 m 0xb4
 248 65 266 85 266 108 c 2
 266 209 l 1
 220 194 158 180 158 133 c 0
 158 81 185 65 211 65 c 0xb4
251 449 m 0
 334 449 396 416 396 271 c 2
 396 109 l 2
 396 82 407 75 420 75 c 0
 437 75 450 85 454 88 c 1
 458 86 461 78 461 73 c 3
 461 54 457 41 454 36 c 1
 440 23 391 -6 349 -6 c 0x6c
 316 -6 283 18 274 42 c 1
 270 41 219 -7 148 -7 c 0
 72 -7 28 41 28 100 c 0xb4
 28 214 179 235 257 260 c 0
 263 262 266 268 266 275 c 2
 266 311 l 2
 266 361 251 393 216 393 c 0
 178 393 158 373 158 326 c 0
 158 293 123 283 100 283 c 0
 75 283 49 292 37 313 c 1xac
 37 382 147 449 251 449 c 0
EndSplineSet
Validated: 1
Substitution2: "'smcp' Lowercase to Small Capitals in Latin lookup 0 subtable" a.sc
EndChar

StartChar: b
Encoding: 98 98 66
Width: 564
Flags: W
HStem: -8 54<249.914 359.304> 386 61<248.49 358.528> 619 37<24.0366 89.1438> 675 20G<221.5 228>
VStem: 97 130<68.2352 363.755 417.779 614.125> 396 144<126.686 322.195>
LayerCount: 2
Fore
SplineSet
320 447 m 0
 440 447 540 349 540 226 c 0
 540 92 435 -8 305 -8 c 0
 219 -8 234 10 176 10 c 0
 158 10 129 -9 121 -9 c 0
 118 -9 89 8 89 15 c 0
 89 26 97 62 97 128 c 2
 97 531 l 6
 97 548 95 583 91 603 c 1
 87 617 56 619 39 619 c 2
 30 619 l 2
 26 619 24 632 24 639 c 0
 24 641 25 656 30 656 c 0
 142 666 220 695 223 695 c 2
 225 695 l 2
 231 695 237 683 238 678 c 1
 238 678 227 633 227 577 c 2
 227 431 l 2
 227 426 227 413 233 418 c 0
 248 430 282 447 320 447 c 0
309 386 m 0
 253 386 227 346 227 318 c 2
 227 129 l 2
 227 74 263 46 308 46 c 0
 372 46 396 111 396 193 c 0
 396 315 371 386 309 386 c 0
EndSplineSet
Substitution2: "'smcp' Lowercase to Small Capitals in Latin lookup 0 subtable" b.sc
EndChar

StartChar: c
Encoding: 99 99 67
Width: 462
Flags: HW
HStem: -7 80<215.778 343.272> 392 55<198.822 295.212>
VStem: 26 142<125.918 318.127>
LayerCount: 2
Fore
SplineSet
265 447 m 0
 361 447 411 400 421 388 c 1
 421 328 402 296 367 296 c 0
 336 296 319.811 317.009 308 346 c 0
 297 373 283 392 248 392 c 0
 178 392 168 303 168 242 c 0
 168 88 238 73 281 73 c 0
 353 73 392 103 418 122 c 1
 423 120 427 109 427 103 c 3
 427 96 425 87 423 83 c 0
 414 61 347 -7 252 -7 c 0
 123 -7 26 96 26 226 c 0
 26 348 132 447 265 447 c 0
EndSplineSet
Substitution2: "'smcp' Lowercase to Small Capitals in Latin lookup 0 subtable" c.sc
EndChar

StartChar: d
Encoding: 100 100 68
Width: 554
Flags: W
HStem: -6 61<201.132 303.18> 20 37<467.979 528.613> 393 54<196.406 308.852> 619 37<258.037 323.144> 675 20G<455.5 462>
VStem: 18 144<113.256 311.937> 331 130<75.0087 370.113 438.001 614.125>
LayerCount: 2
Fore
SplineSet
252 393 m 0xbe
 190 393 162 345 162 236 c 0
 162 98 198 55 252 55 c 0
 298 55 331 86 331 122 c 2
 331 304 l 2
 331 324 327 393 252 393 c 0xbe
258 447 m 0
 296 447 315 442 328 438 c 1
 331 438 331 440 331 452 c 2
 331 531 l 2
 331 548 329 583 325 603 c 1
 321 617 290 619 273 619 c 2
 264 619 l 2
 260 619 258 632 258 639 c 0
 258 641 259 656 264 656 c 0
 376 666 454 695 457 695 c 2
 459 695 l 2
 465 695 471 683 472 678 c 1
 472 678 461 633 461 577 c 2
 461 147 l 2
 461 136 461 104 467 75 c 0
 472 56 523 58 526 57 c 0
 528 56 529 48 529 45 c 0
 529 43 528 20 523 20 c 0x7e
 470 17 338 -6 337 -6 c 0
 332 -6 331 4 331 11 c 2
 331 32 l 2
 331 37 329 38 327 36 c 0
 310 19 280 -6 226 -6 c 0
 126 -6 18 75 18 212 c 0
 18 345 121 447 258 447 c 0
EndSplineSet
Substitution2: "'smcp' Lowercase to Small Capitals in Latin lookup 0 subtable" d.sc
EndChar

StartChar: e
Encoding: 101 101 69
Width: 462
Flags: W
HStem: -7 80<215.906 342.92> 220 55<163.002 311> 392 55<193.684 283.703>
VStem: 26 137<131.056 324.263> 311 131<241 337.913>
LayerCount: 2
Fore
SplineSet
238 392 m 3
 179 392 163 315 163 281 c 0
 163 278 166 275 170 275 c 16
 213 275 272 275 297 275 c 0
 311 275 311 288 311 294 c 11
 311 342 283 392 238 392 c 3
243 447 m 0
 374 447 442 331 442 257 c 0
 442 225 431.014 220 395 220 c 0
 324 220 247 220 169 220 c 0
 165 220 163 216 163 213 c 0
 163 150 199 73 281 73 c 3
 353 73 392 103 418 122 c 1
 423 120 427 109 427 103 c 3
 427 96 425 87 423 83 c 0
 414 61 346 -7 251 -7 c 0
 128 -7 26 95 26 221 c 0
 26 347 112 447 243 447 c 0
EndSplineSet
Substitution2: "'smcp' Lowercase to Small Capitals in Latin lookup 0 subtable" e.sc
EndChar

StartChar: f
Encoding: 102 102 70
Width: 380
Flags: W
HStem: -4 37<39.4365 99.3777 258.119 316.998> 370 59<49.5799 114 244 360.231> 634 61.6<272.964 344.477>
VStem: 114 130<46.8035 369.997 430.055 551.38>
LayerCount: 2
Fore
SplineSet
336 695.6 m 0
 397 695.708 443 679 453 662 c 1
 462 627 457 565 406 565 c 0
 356 565 352 634 306 634 c 0
 259 634 244 552 244 475 c 2
 244 434 l 2
 244 432 247 429 249 429 c 2
 360 429 l 2
 365 429 365 428 365 422 c 0
 365 413 360 384 353 370 c 1
 250 370 l 2
 247 370 244 367 244 364 c 0
 244 274 244 149 244 149 c 2
 244 115 244 85 251 58 c 0
 254 47 306 33 314 33 c 0
 319 33 318 2 316 -4 c 1
 275 -2 218 4 179 4 c 0
 137 4 84 -2 42 -4 c 1
 37 1 37 33 42 33 c 0
 54 33 104 47 107 58 c 0
 113 84 114 127 114 134 c 2
 114 134 114 274 114 363 c 0
 114 366 112 370 109 370 c 2
 42 370 l 2
 40 370 39 372 39 376 c 0
 39 389 55 430 81 430 c 2
 109 430 l 2
 112 430 114 433 114 436 c 2
 114 443 l 2
 114 580 207 695.37 336 695.6 c 0
EndSplineSet
Substitution2: "'smcp' Lowercase to Small Capitals in Latin lookup 0 subtable" f.sc
EndChar

StartChar: g
Encoding: 103 103 71
Width: 485
Flags: W
HStem: -218 61<148.532 307.977> -36 105<135.542 320.698> 120 52<182.013 264.71> 367 56<390.003 452.634> 396 53<177.888 258.353>
VStem: 23 95<-129.518 -62.7333> 36 129<203.32 368.832> 37 97<43 106.813> 276 129<209.817 364.564> 337 116<-105.705 -54.9593>
LayerCount: 2
Fore
SplineSet
337 -81 m 0xe440
 337 -33 186 -36 169 -36 c 0
 169 -36 165.949 -36.6838 165 -37 c 0xe240
 138 -46 118 -50 118 -86 c 0
 118 -128 171 -157 220 -157 c 0
 285 -157 337 -134 337 -81 c 0xe440
165 294 m 0
 165 236 170 172 222 172 c 0
 274 172 276 221 276 268 c 0
 276 341 269 396 216 396 c 0xea80
 162 396 165 328 165 294 c 0
223 449 m 0
 292 449 325 423 385 423 c 2
 440 423 l 1
 443 422 459 391 459 381 c 0
 459 373 457 367 453 367 c 2xf240
 394 367 l 2
 394 367 390 366 390 364 c 0
 390 355 405 326 405 287 c 0
 405 209 334 120 226 120 c 0
 200 120 169 123 158 125 c 1
 141 119 134 103 134 95 c 0xf180
 134 71 235 72 292 69 c 0
 384.414 64.1361 452 36 453 -36 c 0
 454.403 -136.99 319 -218 203 -218 c 0
 105 -218 23 -176 23 -108 c 0xf440
 23 -80 57 -40 105 -25 c 1
 76 -12 37 22 37 64 c 0xf1
 37 102 86 127 113 142 c 1
 78 162 36 221 36 282 c 0
 36 398 127 449 223 449 c 0
EndSplineSet
Substitution2: "'smcp' Lowercase to Small Capitals in Latin lookup 0 subtable" g.sc
EndChar

StartChar: h
Encoding: 104 104 72
Width: 622
Flags: W
HStem: -4 37<27.4365 87.3777 245.833 300.998 316.437 372.715 531.119 589.997> 361 23<236 302> 619 37<30.0366 95.1438> 675 20G<227.5 234>
VStem: 102 130<46.8035 351.282 384.003 614.125> 387 130<46.8035 328.755>
LayerCount: 2
Fore
SplineSet
386 446 m 0
 458 446 517 389 517 248 c 2
 517 149 l 2
 517 115 517 85 524 58 c 0
 527 47 579 33 587 33 c 0
 592 33 591 2 589 -4 c 1
 548 -2 491 4 452 4 c 0
 410 4 361 -2 319 -4 c 1
 314 1 314 33 319 33 c 0
 331 33 377 47 380 58 c 0
 386 84 387 127 387 134 c 2
 387 224 l 2
 387 323 361 361 302 361 c 0
 264 361 232 348 232 317 c 2
 232 149 l 2
 232 115 232 85 239 58 c 0
 242 47 290 33 298 33 c 0
 303 33 302 2 300 -4 c 1
 259 -2 206 4 167 4 c 0
 125 4 72 -2 30 -4 c 1
 25 1 25 33 30 33 c 0
 42 33 92 47 95 58 c 0
 101 84 102 127 102 134 c 2
 102 531 l 2
 102 547 101 583 97 603 c 1
 93 617 62 619 45 619 c 2
 36 619 l 2
 32 619 30 632 30 639 c 0
 30 641 31 656 36 656 c 0
 148 666 226 695 229 695 c 2
 231 695 l 2
 237 695 243 683 244 678 c 1
 244 678 232 633 232 577 c 2
 232 577 232 464 232 391 c 16
 232 388 234 384 236 384 c 0
 238 384 239 386 241 388 c 0
 269 420 327 446 386 446 c 0
EndSplineSet
Substitution2: "'smcp' Lowercase to Small Capitals in Latin lookup 0 subtable" h.sc
EndChar

StartChar: i
Encoding: 105 105 73
Width: 326
Flags: W
HStem: -4 37<27.7979 87.739 246.481 305.359> 423 20G<227.861 232.361> 542 148<105.986 210.736>
VStem: 84.3613 148<563.625 668.375> 102.361 130<46.8035 349.88>
LayerCount: 2
Fore
SplineSet
84.3613 616 m 0xf0
 84.3613 657 117.361 690 158.361 690 c 0
 199.361 690 232.361 657 232.361 616 c 0
 232.361 575 199.361 542 158.361 542 c 0
 117.361 542 84.3613 575 84.3613 616 c 0xf0
232.361 149 m 2xe8
 232.361 115 232.361 85 239.361 58 c 0
 242.361 47 294.361 33 302.361 33 c 0
 307.361 33 306.361 2 304.361 -4 c 1
 263.361 -2 206.361 4 167.361 4 c 0
 125.361 4 72.3613 -2 30.3613 -4 c 1
 25.3613 1 25.3613 33 30.3613 33 c 0
 42.3613 33 92.3613 47 95.3613 58 c 0
 101.361 84 102.361 127 102.361 134 c 2
 102.361 271 l 2xe8
 102.361 281 100.361 329 84.3613 346 c 0xf0
 68.3613 364 29.3613 365 29.3613 369 c 0
 29.3613 372 29.3613 404 34.3613 404 c 0
 60.3613 404 180.361 428 217.361 440 c 0
 218.361 440 227.361 443 228.361 443 c 0
 236.361 443 243.361 431 243.361 426 c 0
 239.361 394 232.361 360 232.361 326 c 2
 232.361 149 l 2xe8
EndSplineSet
Validated: 33
Substitution2: "'smcp' Lowercase to Small Capitals in Latin lookup 0 subtable" i.sc
EndChar

StartChar: j
Encoding: 106 106 74
Width: 294
Flags: W
HStem: -218 34<24.1768 47.3928> 423 20G<251.5 256> 542 148<130.625 235.375>
VStem: 109 148<563.625 668.375> 126 130<-40.2156 349.88>
LayerCount: 2
Fore
SplineSet
126 271 m 2xe8
 126 281 124 329 108 346 c 0
 92 364 54 365 54 369 c 0
 54 372 53 404 58 404 c 0
 84 404 205 428 242 440 c 0
 243 440 251 443 252 443 c 0
 260 443 268 431 268 426 c 0
 264 394 256 360 256 326 c 2
 256 120 l 6
 256 36 243 -47 208 -102 c 4
 174 -156 67 -218 39 -218 c 5
 32 -214 23 -206 23 -194 c 4
 23 -192 23 -185 24 -184 c 4
 28 -182 126 -145 126 100 c 6
 126 271 l 2xe8
109 616 m 0xf0
 109 657 142 690 183 690 c 0
 224 690 257 657 257 616 c 0
 257 575 224 542 183 542 c 0
 142 542 109 575 109 616 c 0xf0
EndSplineSet
Validated: 33
Substitution2: "'smcp' Lowercase to Small Capitals in Latin lookup 0 subtable" j.sc
EndChar

StartChar: k
Encoding: 107 107 75
Width: 646
Flags: W
HStem: -4 37<27.4365 87.3777 246.119 304.998 351.437 389.982 557.507 614.994> 405 35<337.036 383.971 499.137 561.596> 619 37<30.0366 95.1438> 675 20G<227.5 234>
VStem: 102 130<46.8035 213 259 614.125>
LayerCount: 2
Fore
SplineSet
489 382 m 4
 468 370 407 330 352 273 c 5
 427 192 519 79 546 59 c 5
 566 42 602 33 610 33 c 4
 613 33 615 21 615 14 c 4
 615 9 614 -1 613 -3 c 5
 573 -1 525 3 487 3 c 4
 446 3 395 -2 354 -4 c 5
 349 1 349 33 354 33 c 4
 365 33 390 39 390 46 c 4
 390 47 390 48 389 49 c 6
 243 216 l 5
 232 213 l 5
 232 149 l 6
 232 115 232 85 239 58 c 4
 242 47 294 33 302 33 c 4
 307 33 306 2 304 -4 c 5
 263 -2 206 4 167 4 c 4
 125 4 72 -2 30 -4 c 5
 25 1 25 33 30 33 c 4
 42 33 92 47 95 58 c 4
 101 84 102 127 102 134 c 6
 102 531 l 6
 102 547 101 583 97 603 c 5
 93 617 62 619 45 619 c 6
 36 619 l 6
 32 619 30 632 30 639 c 4
 30 641 31 656 36 656 c 4
 148 666 226 695 229 695 c 6
 231 695 l 6
 237 695 243 683 244 678 c 5
 244 678 232 633 232 577 c 6
 232 259 l 5
 240 261 258 265 266 272 c 4
 355 349 384 368 384 388 c 4
 384 408 344 401 338 405 c 5
 335 414 335 439 340 441 c 5
 340 441 412 440 454 440 c 4
 490 440 513 440 558 442 c 5
 566 437 562 405 559 405 c 4
 530 405 501 389 489 382 c 4
EndSplineSet
Validated: 33
Substitution2: "'smcp' Lowercase to Small Capitals in Latin lookup 0 subtable" k.sc
EndChar

StartChar: l
Encoding: 108 108 76
Width: 334
Flags: W
HStem: -4 37<27.4365 87.3777 246.119 304.998> 619 37<30.0366 95.1438> 675 20G<227.5 234>
VStem: 102 130<46.8035 614.125>
LayerCount: 2
Fore
SplineSet
102 531 m 6
 102 547 101 583 97 603 c 5
 93 617 62 619 45 619 c 6
 36 619 l 6
 32 619 30 632 30 639 c 4
 30 641 31 656 36 656 c 4
 148 666 226 695 229 695 c 6
 231 695 l 6
 237 695 243 683 244 678 c 5
 244 678 233 633 233 577 c 6
 232 149 l 6
 232 115 232 85 239 58 c 4
 242 47 294 33 302 33 c 4
 307 33 306 2 304 -4 c 5
 263 -2 206 4 167 4 c 4
 125 4 72 -2 30 -4 c 5
 25 1 25 33 30 33 c 4
 42 33 92 47 95 58 c 4
 101 84 102 127 102 134 c 6
 102 531 l 6
EndSplineSet
Validated: 33
Substitution2: "'smcp' Lowercase to Small Capitals in Latin lookup 0 subtable" l.sc
EndChar

StartChar: m
Encoding: 109 109 77
Width: 888
Flags: W
HStem: -4 37<28.4365 88.3777 246.833 301.998 315.437 374.281 533.111 588.997 601.437 660.281 819.111 874.997> 361 85<291.433 397.828 560.821 694.548> 361 28<241 302>
VStem: 103 130<46.8035 349.875> 388 130<46.8035 331.64> 674 130<46.8035 328.755>
LayerCount: 2
Fore
SplineSet
387 446 m 0xdc
 435.272 446 472 420 493 377 c 1
 530 417 592 445 673 446 c 0
 745 446 804 389 804 248 c 2
 804 149 l 2
 804 115 804 85 811 58 c 0
 814 47 864 33 872 33 c 0
 877 33 876 2 874 -4 c 1
 833 -2 778 4 739 4 c 0
 697 4 646 -2 604 -4 c 1
 599 1 599 33 604 33 c 0
 616 33 664 47 667 58 c 0
 673 84 674 127 674 134 c 2
 674 224 l 2
 674 314 650 361 588 361 c 0
 547 361 525 342 518 323 c 0
 516 318 515.448 306.969 516 302 c 0
 518 284 518 260 518 248 c 2
 518 149 l 2
 518 115 518 85 525 58 c 0
 528 47 578 33 586 33 c 0
 591 33 590 2 588 -4 c 1
 547 -2 492 4 453 4 c 0
 411 4 360 -2 318 -4 c 1
 313 1 313 33 318 33 c 0
 330 33 378 47 381 58 c 0
 387 84 388 127 388 134 c 2
 388 224 l 2
 388 323 362 361 302 361 c 0xdc
 262 361 233 346 233 317 c 2
 233 149 l 2
 233 115 233 85 240 58 c 0
 243 47 291 33 299 33 c 0
 304 33 303 2 301 -4 c 1
 260 -2 207 4 168 4 c 0
 126 4 73 -2 31 -4 c 1
 26 1 26 33 31 33 c 0
 43 33 93 47 96 58 c 0
 102 84 103 127 103 134 c 2
 103 271 l 2
 103 281 101 329 85 346 c 0
 69 364 30 365 30 369 c 0
 30 372 30 404 35 404 c 0
 61 404 147 426 218 440 c 24
 222 441 228 443 229 443 c 0
 237 443 244 431 244 426 c 0
 243 419 240 396 240 395 c 0
 240 392 240 390 241 389 c 1xbc
 243 389 245.934 392.068 248 394 c 0
 279 423 327 446 387 446 c 0xdc
EndSplineSet
Validated: 33
Substitution2: "'smcp' Lowercase to Small Capitals in Latin lookup 0 subtable" m.sc
EndChar

StartChar: n
Encoding: 110 110 78
Width: 622
Flags: W
HStem: -4 37<28.4365 88.3777 246.833 301.998 317.437 373.715 532.119 590.997> 361 28<241 302> 423 20G<228.5 233>
VStem: 103 130<46.8035 349.875> 388 130<46.8035 328.755>
LayerCount: 2
Fore
SplineSet
387 446 m 0
 459 446 518 389 518 248 c 2
 518 149 l 2
 518 115 518 85 525 58 c 0
 528 47 580 33 588 33 c 0
 593 33 592 2 590 -4 c 1
 549 -2 492 4 453 4 c 0
 411 4 362 -2 320 -4 c 1
 315 1 315 33 320 33 c 0
 332 33 378 47 381 58 c 0
 387 84 388 127 388 134 c 2
 388 224 l 2
 388 323 362 361 302 361 c 0
 262 361 233 346 233 317 c 2
 233 149 l 2
 233 115 233 85 240 58 c 0
 243 47 291 33 299 33 c 0
 304 33 303 2 301 -4 c 1
 260 -2 207 4 168 4 c 0
 126 4 73 -2 31 -4 c 1
 26 1 26 33 31 33 c 0
 43 33 93 47 96 58 c 0
 102 84 103 127 103 134 c 2
 103 271 l 2
 103 281 101 329 85 346 c 0
 69 364 30 365 30 369 c 0
 30 372 30 404 35 404 c 0
 61 404 147 426 218 440 c 24
 222 441 228 443 229 443 c 0
 237 443 244 431 244 426 c 0
 243 419 240 396 240 395 c 0
 240 392 240 390 241 389 c 1
 243 389 245.934 392.068 248 394 c 0
 279 423 327 446 387 446 c 0
EndSplineSet
Substitution2: "'smcp' Lowercase to Small Capitals in Latin lookup 0 subtable" n.sc
EndChar

StartChar: o
Encoding: 111 111 79
Width: 523
Flags: W
HStem: -7 55<216.948 316.876> 392 55<200.468 303.656>
VStem: 26 142<124.995 315.599> 352 144<124.594 314.308>
LayerCount: 2
Fore
SplineSet
247 392 m 31
 184 392 168 314 168 251 c 31
 168 162 182 48 271 48 c 31
 333 48 352 123 352 185 c 31
 352 276 338 392 247 392 c 31
261 447 m 4
 392 447 496 346 496 220 c 4
 496 94 393 -7 261 -7 c 4
 130 -7 26 94 26 220 c 4
 26 346 130 447 261 447 c 4
EndSplineSet
Substitution2: "'smcp' Lowercase to Small Capitals in Latin lookup 0 subtable" o.sc
EndChar

StartChar: p
Encoding: 112 112 80
Width: 567
Flags: W
HStem: -218 37<25.4365 85.3777 244.119 302.998> -8 54<253.583 360.973> 388 58<250.123 357.68>
VStem: 100 130<-167.197 0.997055 70.0271 349.331> 398 144<121.647 321.193>
LayerCount: 2
Fore
SplineSet
322 446 m 4
 453 446 542 338 542 227 c 4
 542 74 429 -8 292 -8 c 4
 264 -8 238 1 234 1 c 5
 231 1 230 -3 230 -15 c 6
 230 -65 l 6
 230 -99 230 -129 237 -156 c 4
 240 -167 292 -181 300 -181 c 4
 305 -181 304 -212 302 -218 c 5
 261 -216 204 -210 165 -210 c 4
 123 -210 70 -216 28 -218 c 5
 23 -213 23 -181 28 -181 c 4
 40 -181 90 -167 93 -156 c 4
 99 -130 100 -87 100 -80 c 14
 100 271 l 6
 100 281 98 329 82 346 c 4
 66 364 27 365 27 369 c 4
 27 372 27 404 32 404 c 4
 58 404 124 413 193 433 c 4
 193 433 224 443 226 443 c 4
 231 443 232 435 232 430 c 4
 232 427 231 418 230 412 c 5
 247 425 283 446 322 446 c 4
307 388 m 4
 259 388 230 355 230 314 c 6
 230 125 l 6
 230 70 276 46 308 46 c 4
 341 46 398 62 398 194 c 4
 398 281 388 388 307 388 c 4
EndSplineSet
Validated: 33
Substitution2: "'smcp' Lowercase to Small Capitals in Latin lookup 0 subtable" p.sc
EndChar

StartChar: q
Encoding: 113 113 81
Width: 516
Flags: HW
HStem: -218 37<266.437 326.378 485.119 543.997> -8 63<209.566 322.691> 393 54<205.805 318.971>
VStem: 28 144<118.076 313.108> 341 130<-167.197 21.2047 74.4648 370.461>
LayerCount: 2
Fore
SplineSet
266 447 m 0
 346 447 341 429 395 429 c 0
 409 429 440 448 446 448 c 0
 451 448 480 431 480 424 c 0
 480 420 471 380 471 307 c 2
 471 -65 l 2
 471 -99 471 -129 478 -156 c 0
 481 -167 533 -181 541 -181 c 0
 546 -181 545 -212 543 -218 c 1
 502 -216 445 -210 406 -210 c 0
 364 -210 311 -216 269 -218 c 1
 264 -213 264 -181 269 -181 c 0
 281 -181 331 -167 334 -156 c 0
 340 -130 341 -87 341 -80 c 2
 341 8 l 2
 341 14 341.298 25.6187 335 21 c 0
 320 10 291 -8 244 -8 c 0
 139 -8 28 81 28 213 c 0
 28 351 136 447 266 447 c 0
259 393 m 0
 186 393 172 315 172 244 c 0
 172 161 180 55 264 55 c 0
 303 55 341 81 341 116 c 2
 341 302 l 2
 341 333 334 393 259 393 c 0
EndSplineSet
Substitution2: "'smcp' Lowercase to Small Capitals in Latin lookup 0 subtable" q.sc
EndChar

StartChar: r
Encoding: 114 114 82
Width: 465
Flags: W
HStem: -4 37<28.4365 88.3777 246.833 301.998> 354 93<284.023 370.5>
VStem: 103 130<46.8035 336.898>
LayerCount: 2
Fore
SplineSet
352 447 m 27
 389 447 422 424 438 410 c 1
 438 346 426 308 380 308 c 27
 340 308 328 354 288 354 c 27
 242 354 233 285 233 249 c 2
 233 148 l 2
 233 115 233 85 240 58 c 0
 243 47 291 33 299 33 c 0
 304 33 303 2 301 -4 c 1
 260 -2 207 4 168 4 c 0
 126 4 73 -2 31 -4 c 1
 26 1 26 33 31 33 c 0
 43 33 93 47 96 58 c 0
 102 84 103 127 103 134 c 2
 103 271 l 2
 103 281 101 329 85 346 c 0
 69 364 30 365 30 369 c 0
 30 372 30 404 35 404 c 0
 61 404 147 426 218 440 c 16
 218 440 228 443 229 443 c 0
 237 443 244 431 244 426 c 0
 241 405 241 399 239 382 c 17
 260 410 301 447 352 447 c 27
EndSplineSet
Substitution2: "'smcp' Lowercase to Small Capitals in Latin lookup 0 subtable" r.sc
EndChar

StartChar: s
Encoding: 115 115 83
Width: 384
Flags: W
HStem: -10 55<115.244 232.429> 394 55<150.083 260.937>
VStem: 26 119<311.725 387.496> 27 48<87.875 152.321> 239 119<53.5541 128.694> 294 46<296.488 358.361>
LayerCount: 2
Fore
SplineSet
200 449 m 0xe8
 247 449 294 446 330 429 c 1
 337 397 340 342 340 305 c 0
 340 301 336 296 327 296 c 0
 311 296 295 299 294 304 c 0
 284 349 265 394 195 394 c 0
 167 394 145 380 145 353 c 0xe4
 145 319 180 299 224 278 c 0
 272 255 358 215 358 124 c 0
 358 31 276 -10 179 -10 c 0
 135 -10 66 6 39 28 c 1
 35 51 27 124 27 150 c 1
 31 153 37 153 42 153 c 0
 49 153 74 151 75 144 c 0xd8
 89 62 143 45 183 45 c 0
 213 45 239 59 239 87 c 0
 239 123 207 141 140 174 c 0
 66 210 26 250 26 318 c 0
 26 418 121 449 200 449 c 0xe8
EndSplineSet
Validated: 1
Substitution2: "'smcp' Lowercase to Small Capitals in Latin lookup 0 subtable" s.sc
EndChar

StartChar: t
Encoding: 116 116 84
Width: 374
Flags: W
HStem: -7 64<200 310.156> 370 59<227 339.799>
VStem: 97 130<68.9375 370>
LayerCount: 2
Fore
SplineSet
97 370 m 1
 32 370 l 2
 26 370 24 393 24 401 c 0
 24 405 24 409 26 412 c 1
 42 420 86 443 116 466 c 0
 150 492 197 535 201 538 c 1
 211 538 227 532 227 527 c 2
 227 429 l 1
 271 429 321 429 335 429 c 0
 340 429 343 425 343 419 c 0
 343 410 340 384 333 370 c 1
 227 370 l 1
 227 133 l 2
 227 80 244 57 281 57 c 0
 314 57 332 72 336 72 c 0
 342 72 349 52 349 47 c 0
 349 33 283 -7 231 -7 c 0
 169 -7 97 27 97 139 c 2
 97 370 l 1
EndSplineSet
Validated: 1
Substitution2: "'smcp' Lowercase to Small Capitals in Latin lookup 0 subtable" t.sc
EndChar

StartChar: u
Encoding: 117 117 85
Width: 599
Flags: W
HStem: -4 82<186 323.257> 21 37<522.532 573.363> 423 20G<222.5 227 507.5 512>
VStem: 97 130<106.726 349.88> 382 130<89.8777 348.768>
LayerCount: 2
Fore
SplineSet
512 327 m 6xb8
 512 131 l 6
 512 106 513 78 522 68 c 4
 533 56 567 59 570 58 c 4
 572 57 574 53 574 50 c 4
 574 48 573 21 568 21 c 4x78
 515 18 387 -5 386 -5 c 4
 381 -5 380 6 380 13 c 6
 380 50 l 6
 380 55 377.957 56.0421 376 54 c 4
 353 30 296 -4 227 -4 c 7
 145 -4 97 80 97 174 c 6
 97 271 l 6
 97 281 95 329 79 346 c 4
 63 364 24 365 24 369 c 4
 24 372 24 404 29 404 c 4
 55 404 175 428 212 440 c 4
 213 440 222 443 223 443 c 4
 231 443 238 431 238 426 c 4
 234 394 227 360 227 326 c 6
 227 219 l 6
 227 113 253 78 314 78 c 4
 364 78 382 107 382 128 c 6
 382 271 l 6
 382 281 380 329 364 346 c 4
 348 364 309 365 309 369 c 4
 309 372 309 404 314 404 c 4
 340 404 460 428 497 440 c 4
 498 440 507 443 508 443 c 4
 516 443 523 431 523 426 c 4
 519 394 512 360 512 327 c 6xb8
EndSplineSet
Validated: 1
Substitution2: "'smcp' Lowercase to Small Capitals in Latin lookup 0 subtable" u.sc
EndChar

StartChar: v
Encoding: 118 118 86
Width: 597
Flags: W
HStem: -11 21G<277.5 287.5> 406 37<25.012 84.611 246.96 311.563 333.761 399.088 510.211 569.987>
LayerCount: 2
Fore
SplineSet
402 385 m 24
 383 404 344 406 336 406 c 0
 331 406 333 437 335 443 c 1
 376 441 412 435 451 435 c 0
 493 435 524 441 566 443 c 1
 568 441 570 433 570 426 c 3
 570 417 569 406 566 406 c 0
 554 406 502 395 487 366 c 2
 311 18 l 2
 307 10 294 -11 281 -11 c 0
 274 -11 266 -5 265 -3 c 0
 199 150 169 212 99 371 c 0
 86 401 37 406 29 406 c 0
 26 406 25 417 25 426 c 3
 25 433 26 439 29 443 c 1
 70 441 127 435 166 435 c 0
 208 435 267 441 309 443 c 1
 314 438 314 406 309 406 c 0
 297 406 241 396 241 379 c 0
 241 373 243 364 243 364 c 2
 322 176 l 1
 401 342 l 2
 407 354 414 373 402 385 c 24
EndSplineSet
Validated: 33
Substitution2: "'smcp' Lowercase to Small Capitals in Latin lookup 0 subtable" v.sc
EndChar

StartChar: w
Encoding: 119 119 87
Width: 880
Flags: W
HStem: -11 21G<273 287 558 570> 405 38<24.0015 77.7553 240.846 298.362 316.9 380.961 527.698 581.422 603.445 676.734 797.961 852.973> 405 30<606.928 671.728>
VStem: 392 132<308.751 382.438>
LayerCount: 2
Fore
SplineSet
689 363 m 0xd0
 689 397 634 405 611 405 c 2
 607 405 l 2
 602 405 600 438 605 443 c 1
 646 441 696 434 737 434 c 0
 775 434 810 441 850 443 c 1
 851 440 853 428 853 423 c 0
 853 417 852 406 849 406 c 0
 841 406 777 385 764 357 c 2
 599 10 l 2
 595 1 578 -11 562 -11 c 0
 554 -11 549 -4 547 0 c 2
 428 258 l 1
 314 11 l 2
 311 4 298 -11 276 -11 c 0
 270 -11 263 -6 260 0 c 0
 192 152 159 221 91 372 c 0
 81 393 40 405 28 405 c 0
 26 405 24 418 24 424 c 0
 24 430 25 441 27 443 c 1xd0
 68 441 117 435 158 435 c 0xb0
 196 435 257 441 297 443 c 1
 299 437 302 407 297 407 c 0
 289 407 235 396 235 375 c 0
 235 368 274 273 316 177 c 1
 366 283 392 333 392 348 c 0
 392 360 393 371 385 383 c 16
 379 392 370 397 361 401 c 0
 351 405 332 406 320 406 c 0
 315 406 314 438 319 443 c 1xd0
 360 441 406 435 447 435 c 0xb0
 485 435 542 441 582 443 c 1
 584 437 583 405 578 405 c 0
 563 405 524 399 524 375 c 0
 524 358 551 296 602 176 c 1
 648 276 689 349 689 363 c 0xd0
EndSplineSet
Validated: 33
Substitution2: "'smcp' Lowercase to Small Capitals in Latin lookup 0 subtable" w.sc
EndChar

StartChar: x
Encoding: 120 120 88
Width: 605
Flags: W
HStem: -4 37<30.0058 93.9273 215 277.994 296.133 338.935 521.377 571.802> 406 37<27.0087 79.1825 256.604 304.991 320.007 385.648 493.855 571.997>
LayerCount: 2
Fore
SplineSet
27 425 m 3
 27 432 28 439 30 443 c 9
 83 440 114 436 167 436 c 27
 220 436 249 440 302 443 c 17
 304 440 305 432 305 425 c 27
 305 417 302 406 300 406 c 0
 284 406 255 397 255 382 c 0
 255 379 256 375 260 370 c 10
 322 293 l 17
 348 329 386 371 386 385 c 0
 386 405 331 406 324 406 c 0
 321 406 320 417 320 424 c 3
 320 429 321 439 324 443 c 9
 374 440 401 436 451 436 c 27
 497 436 523 440 569 443 c 17
 571 439 572 432 572 425 c 27
 572 417 571 406 569 406 c 0
 535 402 494 393 480 378 c 2
 366 253 l 2
 364 250 363 248 363 245 c 27
 363 241 364 238 367 235 c 2
 487 84 l 2
 511 53 541 36 568 31 c 0
 570 31 572 18 572 10 c 27
 572 4 571 0 568 -4 c 9
 517 -1 488 4 436 4 c 27
 382 4 352 -1 298 -4 c 25
 297 1 296 3 296 8 c 27
 296 18 297 33 300 33 c 0
 314 34 346 47 346 65 c 0
 346 67 345 69 344 71 c 2
 276 150 l 17
 219 78 l 2
 213 71 212 64 212 59 c 0
 212 40 255 38 276 33 c 0
 278 33 278 22 278 15 c 27
 278 7 276 -2 274 -4 c 9
 228 -1 202 4 156 4 c 27
 108 4 80 -1 32 -4 c 17
 31 0 30 8 30 15 c 27
 30 22 32 33 34 33 c 0
 66 38 107 54 119 68 c 2
 230 190 l 17
 232 193 232 196 232 198 c 3
 232 202 230 205 228 207 c 9
 100 368 l 18
 82 391 52 405 32 405 c 0
 30 405 27 418 27 425 c 3
EndSplineSet
Validated: 1
Substitution2: "'smcp' Lowercase to Small Capitals in Latin lookup 0 subtable" x.sc
EndChar

StartChar: y
Encoding: 121 121 89
Width: 544
Flags: W
HStem: -218 100<20.905 143.602> 406 37<4.01298 57.9226 221.38 281.888 300.006 363.282 479.382 543.977>
LayerCount: 2
Fore
SplineSet
148 435 m 0
 186 435 239 441 279 443 c 1
 280 440 282 427 282 422 c 0
 282 416 281 406 278 406 c 0
 266 406 216 395 216 380 c 0
 216 376 217 371 217 371 c 2
 219 357 235 318 295 176 c 9
 324 239 342 274 369 338 c 16
 375 352 375 361 375 368 c 0
 375 378 360 406 304 406 c 0
 302 406 300 418 300 424 c 0
 300 430 301 440 302 443 c 1
 343 441 392 435 433 435 c 0
 471 435 500 441 540 443 c 1
 542 439 544 435 544 426 c 0
 544 420 543 406 540 406 c 0
 532 406 471 397 456 366 c 2
 270 -37 l 2
 193 -204 116 -218 76 -218 c 0
 34 -218 9 -192 9 -165 c 3
 9 -142 19 -127 32 -118 c 1
 111 -118 169 -98 197 -40 c 0
 212.185 -8.54502 215 -4 228 26 c 1
 79 356 l 2
 74 368 l 0
 59 400 20 406 8 406 c 0
 6 406 4 415 4 421 c 0
 4 427 4 441 6 443 c 1
 47 441 107 435 148 435 c 0
EndSplineSet
Substitution2: "'smcp' Lowercase to Small Capitals in Latin lookup 0 subtable" y.sc
EndChar

StartChar: z
Encoding: 122 122 90
Width: 430
Flags: W
HStem: 0 54<184.007 328.875> 370 54<109.002 230>
LayerCount: 2
Fore
SplineSet
184 61 m 0
 184 56 194 54 196 54 c 2
 258 54 l 2
 319 54 350 88 366 130 c 0
 369 138 389 139 393 139 c 0
 399 139 403 136 404 135 c 1
 387 0 l 1
 45 0 l 1
 45 0 25 12 25 23 c 0
 25 24 25 26 26 27 c 2
 230 369 l 1
 169 370 l 2
 112 371 79 318 71 300 c 0
 69 296 56 294 46 294 c 0
 40 294 34 294 34 296 c 0
 34 310 47 377 50 430 c 1
 50 430 109 424 145 424 c 2
 267 424 l 2
 321 424 355 427 396 432 c 1
 401 424 399 413 399 408 c 1
 191 75 l 2
 186 68 184 64 184 61 c 0
EndSplineSet
Validated: 33
Substitution2: "'smcp' Lowercase to Small Capitals in Latin lookup 0 subtable" z.sc
EndChar

StartChar: braceleft
Encoding: 123 123 91
Width: 328
Flags: W
HStem: -125 33<264.334 305.937> 717 33<264.226 305.96>
VStem: 94 122<-15.2928 199.839 423.165 651.781> 110 123<41.0684 265.24 355.192 589.381>
LayerCount: 2
Fore
SplineSet
25 291 m 5xd0
 23 295 22 303 22 310 c 4
 22 316 23 323 26 328 c 5
 70 339 110 353 110 406 c 4xd0
 110 458 92 511 92 572 c 4
 92 686 217 750 302 750 c 4
 305 750 306 742 306 738 c 4
 306 730 306 718 300 717 c 4
 269 715 216 678 216 613 c 4xe0
 216 540 233 518 233 434 c 4
 233 369 189 308 153 308 c 5
 189 308 233 252 233 187 c 4xd0
 233 103 216 91 216 18 c 4
 216 -47 269 -90 300 -92 c 4
 306 -93 306 -106 306 -114 c 4
 306 -118 305 -125 302 -125 c 4
 217 -125 94 -46 94 58 c 4xe0
 94 117 110 167 110 219 c 4
 110 272 67 278 25 291 c 5xd0
EndSplineSet
Validated: 1
Substitution2: "'smcp' Lowercase to Small Capitals in Latin lookup 0 subtable" braceleft.sc
EndChar

StartChar: bar
Encoding: 124 124 92
Width: 156
Flags: W
VStem: 35 87<-112.764 764.903>
LayerCount: 2
Back
SplineSet
98 -115 m 2
 98 757 l 1
 98 757 97 763 103 765 c 0
 120 770 150 772 153 772 c 0
 162 772 161 766 161 766 c 1
 162 -106 l 1
 158 -109 163 -115 110 -122 c 0
 107 -122 105 -123 103 -123 c 0
 96 -123 98 -119 98 -115 c 2
EndSplineSet
Fore
SplineSet
122 -106 m 1
 122 -112 44 -121 42 -121 c 0
 35 -121 35 -119 35 -115 c 2
 35 757 l 1
 35 757 34 763 40 765 c 0
 57 770 111 772 114 772 c 0
 123 772 122 766 122 766 c 1
 122 -106 l 1
EndSplineSet
Validated: 1
Substitution2: "'smcp' Lowercase to Small Capitals in Latin lookup 0 subtable" bar.sc
EndChar

StartChar: braceright
Encoding: 125 125 93
Width: 328
Flags: W
HStem: -125 33<22.0628 63.666> 717 33<22.0396 63.7736>
VStem: 95 123<41.0684 265.24 355.192 589.381> 112 122<-15.2928 199.839 423.165 651.781>
LayerCount: 2
Fore
SplineSet
303 291 m 1xe0
 261 278 218 272 218 219 c 0xe0
 218 167 234 117 234 58 c 0
 234 -46 111 -125 26 -125 c 0
 23 -125 22 -118 22 -114 c 0
 22 -106 22 -93 28 -92 c 0
 59 -90 112 -47 112 18 c 0xd0
 112 91 95 103 95 187 c 0
 95 252 139 308 175 308 c 1
 139 308 95 369 95 434 c 0xe0
 95 518 112 540 112 613 c 0xd0
 112 678 59 715 28 717 c 0
 22 718 22 730 22 738 c 0
 22 742 23 750 26 750 c 0
 111 750 236 686 236 572 c 0
 236 511 218 458 218 406 c 0
 218 353 258 339 302 328 c 1
 305 323 306 316 306 310 c 0
 306 303 305 295 303 291 c 1xe0
EndSplineSet
Validated: 1
Substitution2: "'smcp' Lowercase to Small Capitals in Latin lookup 0 subtable" braceright.sc
EndChar

StartChar: asciitilde
Encoding: 126 126 94
Width: 570
Flags: W
HStem: 245 61<310.203 467.208> 298 61<101.533 256.31>
LayerCount: 2
Fore
SplineSet
59 254 m 1x40
 53 257 50 273 50 281 c 0
 50 296 62 312 74 320 c 0
 96 335 136 359 180 359 c 0x40
 274 359 322 306 416 306 c 0
 455 306 477 327 506 350 c 1
 512 347 515 331 515 323 c 0
 515 308 504 293 492 284 c 0
 464 262 431 245 387 245 c 0x80
 292 245 245 298 150 298 c 0
 111 298 88 277 59 254 c 1x40
EndSplineSet
Validated: 1
Substitution2: "'smcp' Lowercase to Small Capitals in Latin lookup 0 subtable" asciitilde.sc
EndChar

StartChar: exclamdown
Encoding: 161 161 96
Width: 195
Flags: W
HStem: 293 150<49.2891 150.25>
VStem: 25 147<314.125 418.536> 36 128<-222.241 49.6143>
LayerCount: 2
Fore
SplineSet
102 -238 m 0xa0
 66 -238 36 -213 36 -171 c 0
 36 -120 66 153 77 220 c 0
 79 232 84 242 89 242 c 0
 104 242 119 231 122 211 c 0
 135 123 164 -142 164 -170 c 0
 164 -213 133 -238 102 -238 c 0xa0
25 366 m 0xc0
 25 411 64 443 101 443 c 0
 141 443 172 407 172 366 c 0
 172 325 139 293 97 293 c 0
 59 293 25 324 25 366 c 0xc0
EndSplineSet
Validated: 1
Substitution2: "'smcp' Lowercase to Small Capitals in Latin lookup 0 subtable" exclamdown.sc
EndChar

StartChar: cent
Encoding: 162 162 97
Width: 462
Flags: HW
HStem: -45 38<194.123 231> -7 80<185.283 343.272> 447 27<275 310.454>
VStem: 26 142<125.918 318.127> 192 39<-40.9908 -0.869301> 275 39<429.956 470.779>
LayerCount: 2
Fore
SplineSet
275 474 m 1
 283 474 314 473 314 466 c 1
 310.309 443.276 l 1
 376.954 431.927 412.713 397.945 421 388 c 1
 421 328 402 296 367 296 c 0
 336 296 319.811 317.009 308 346 c 0
 304.959 353.464 301.689 360.316 297.81 366.324 c 1
 250.696 76.2614 l 1
 261.399 73.6843 271.815 73 281 73 c 0
 353 73 392 103 418 122 c 1
 423 120 427 109 427 103 c 0
 427 96 425 87 423 83 c 0
 414 61 347 -7 252 -7 c 0
 247.033 -7 242.114 -6.84732 237.246 -6.54628 c 1
 231 -45 l 1
 222 -45 192 -43 192 -36 c 1
 197.753 -0.651368 l 1
 96.7465 23.6478 26 114.978 26 226 c 0
 26 348 132 447 265 447 c 0
 266.883 447 268.749 446.982 270.597 446.946 c 1
 275 474 l 1
213.34 95.1233 m 1
 261.479 390.919 l 1
 257.363 391.63 252.886 392 248 392 c 0
 178 392 168 303 168 242 c 0
 168 159.516 188.081 116.908 213.34 95.1233 c 1
EndSplineSet
Substitution2: "'smcp' Lowercase to Small Capitals in Latin lookup 0 subtable" cent.sc
EndChar

StartChar: sterling
Encoding: 163 163 98
Width: 491
Flags: HW
HStem: -8 90<283.44 406.034> 26 86<144 271.437> 290 45<51.2818 337.932> 590 52<212.362 302.596>
VStem: 81 109<349.3 532.792> 110 111<137.034 287.596>
LayerCount: 2
Fore
SplineSet
57 335 m 1x30
 86 335 321 335 335 335 c 0
 339 335 340 330 340 325 c 3
 340 319 336 297 325 290 c 1
 296 290 70 290 56 290 c 0
 52 290 51 298 51 303 c 3
 51 309 51 326 57 335 c 1x30
290 642 m 27
 341 642 398 624 414 600 c 1
 414 566 406 515 362 515 c 3
 315 515 313 590 265 590 c 27
 214 590 190 558 190 484 c 3xb8
 190 425 221 348 221 260 c 27
 221 197 210 146 180 103 c 1
 198 111 224 112 231 112 c 3x74
 285 112 337 82 368 82 c 0
 414 82 428 114 450 149 c 1
 456 149 468 138 468 127 c 27
 468 122 466.461 115.946 466 114 c 0
 457 76 419 -8 348 -8 c 3xb4
 283 -8 216 26 166 26 c 3x74
 122 26 95 0 79 -8 c 1
 55 -3 46 14 46 20 c 1
 56.8468 36.2703 79 60 98 83 c 1
 109 111 110 179.978 110 218 c 3xb4
 110 275 81 366 81 439 c 3
 81 561 176 642 290 642 c 27
EndSplineSet
Substitution2: "'smcp' Lowercase to Small Capitals in Latin lookup 0 subtable" sterling.sc
EndChar

StartChar: currency
Encoding: 164 164 99
Width: 469
Flags: W
HStem: 119 45<195.865 288.097> 452 45<183.915 275.975>
VStem: 42 119<220.578 394.689> 313 119<218.449 394.413>
LayerCount: 2
Fore
SplineSet
246 164 m 27
 297 164 313 228 313 279 c 27
 313 355 302 452 226 452 c 27
 174 452 161 386 161 334 c 27
 161 260 172 164 246 164 c 27
351 462 m 5
 402 510 l 2
 411 519 440 486 446 462 c 1
 397 416 l 1
 419 385 432 348 432 308 c 0
 432 263 417 222 391 190 c 1
 436 142 l 2
 445 133 412 104 388 98 c 1
 342 148 l 1
 312 130 276 119 237 119 c 0
 192 119 152 133 119 157 c 1
 67 108 l 2
 58 99 29 132 23 156 c 1
 74 204 l 1
 54 234 42 269 42 308 c 0
 42 352 58 392 83 424 c 1
 34 476 l 2
 25 485 58 514 82 520 c 1
 131 467 l 1
 161 486 198 497 237 497 c 0
 280 497 319 484 351 462 c 5
EndSplineSet
Validated: 33
EndChar

StartChar: yen
Encoding: 165 165 100
Width: 689
Flags: HW
HStem: -4 37<181.051 240.599 409.086 466.997> 133 45<181.844 469.471> 214 45<181.844 469.471> 606 37<22.0898 86.9006 278.359 324.998 428.657 497.138 602.905 666.977>
VStem: 257 136<47.3274 325.812>
LayerCount: 2
Fore
SplineSet
166 636 m 0
 215 636 269 640 309 642 c 1
 311 636 312 605 307 605 c 0
 293 605 255 599 254 584 c 0
 254 578 258.354 568.52 262 562 c 2
 362 385 l 1
 367 380 369.951 384.033 372 387 c 0
 401 429 481 559 481 583 c 0
 481 596 459 605 417 605 c 0
 412 605 411 637 416 642 c 1
 446 640 500 636 537 636 c 0
 589 636 621 640 650 642 c 1
 651 639 653 629 653 624 c 0
 653 618 652 606 649 606 c 0
 630 606 591 596 571 570 c 0
 547 537 396 303 396 284 c 2
 396 259 l 1
 465 259 l 2
 469 259 470 252 470 247 c 0
 470 236 468 221 464 214 c 1
 396 214 l 1
 396 178 l 1
 465 178 l 2
 469 178 470 171 470 166 c 0
 470 155 468 140 464 133 c 1
 396.05 133 l 1
 396.32 104.068 397.827 81.8118 404 58 c 0
 407 47 458 33 466 33 c 0
 469 33 470 20 470 14 c 0
 470 9 469 -1 468 -4 c 1
 428 -2 373 4 329 4 c 0
 283 4 230 -2 184 -4 c 1
 182 -2 180 6 180 12 c 0
 180 18 181 33 183 33 c 0
 195 33 244 46 249 58 c 1
 254.423 78.7897 255.762 112.652 255.969 133 c 1
 186 133 l 2
 182 133 181 141 181 146 c 0
 181 152 183 167 187 178 c 1
 256 178 l 1
 256 214 l 1
 186 214 l 2
 182 214 181 222 181 227 c 0
 181 233 183 248 187 259 c 1
 256 259 l 1
 256 289 l 2
 256 304 131 517 131 517 c 2
 115.227 545.769 92 581 77 590 c 0
 62.2471 598.852 36 605 24 605 c 0
 19 605 19 637 24 642 c 1
 73 640 117 636 166 636 c 0
EndSplineSet
Substitution2: "'smcp' Lowercase to Small Capitals in Latin lookup 0 subtable" yen.sc
EndChar

StartChar: brokenbar
Encoding: 166 166 101
Width: 154
Flags: W
VStem: 34 87<-112.764 255.903 392.236 760.903>
LayerCount: 2
Fore
SplineSet
121 399 m 1
 121 393 43 384 41 384 c 0
 34 384 34 386 34 390 c 2
 34 753 l 1
 34 753 33 759 39 761 c 0
 56 766 110 768 113 768 c 0
 122 768 121 762 121 762 c 1
 121 399 l 1
121 -106 m 1
 121 -112 43 -121 41 -121 c 0
 34 -121 34 -119 34 -115 c 2
 34 248 l 1
 34 248 33 254 39 256 c 0
 56 261 110 263 113 263 c 0
 122 263 121 257 121 257 c 1
 121 -106 l 1
EndSplineSet
Validated: 1
Substitution2: "'smcp' Lowercase to Small Capitals in Latin lookup 0 subtable" brokenbar.sc
EndChar

StartChar: section
Encoding: 167 167 102
Width: 410
Flags: W
HStem: -41 58<160.784 263.52> 593 58<142.221 249.168>
VStem: 25 70<322.525 417.761> 79 58<502.036 585.792> 271 58<26.5798 108.239> 316 68<203.694 369.5>
LayerCount: 2
Fore
SplineSet
384 290 m 0xd4
 384 222 341 164 318 148 c 1
 323 137 329 110 329 89 c 0
 329 -17 234 -41 177 -41 c 0
 127 -41 90 -19 80 -4 c 1
 79 0 79 10 79 14 c 0xd8
 79 53 99 65 112 65 c 0
 150 65 164 17 209 17 c 0
 245 17 271 34 271 58 c 0
 271 169 25 168 25 330 c 0xe8
 25 399 57 440 89 463 c 1
 82 475 79 500 79 518 c 0
 79 608 153 651 231 651 c 0
 281 651 316 628 326 613 c 1
 326 609 329 597 329 593 c 0xd8
 329 554 317 543 293 543 c 0
 263 543 247 593 202 593 c 0
 174 593 137 588 137 550 c 0
 137 443 384 449 384 290 c 0xd4
298 185 m 1
 310 197 316 208 316 225 c 0
 316 327 164 336 110 424 c 1
 95 412 95 391 95 381 c 0xe4
 94 272 241 282 298 185 c 1
EndSplineSet
Validated: 33
Substitution2: "'smcp' Lowercase to Small Capitals in Latin lookup 0 subtable" section.sc
EndChar

StartChar: dieresis
Encoding: 168 168 103
Width: 405
Flags: W
HStem: 442 143<38.3194 142.204 260.796 365.204>
VStem: 19 143<461.796 565.681> 241 144<461.796 565.681>
LayerCount: 2
Fore
SplineSet
241 514 m 0
 241 554 273 585 313 585 c 0
 353 585 385 554 385 514 c 0
 385 474 353 442 313 442 c 0
 273 442 241 474 241 514 c 0
19 514 m 0
 19 554 50 585 90 585 c 0
 130 585 162 554 162 514 c 0
 162 474 130 442 90 442 c 0
 50 442 19 474 19 514 c 0
EndSplineSet
Validated: 1
EndChar

StartChar: copyright
Encoding: 169 169 104
Width: 600
Flags: W
HStem: 69 44<206.089 393.972> 199 30<273.367 369.717> 451 30<266.372 358.841> 569 46<203.58 396.481>
VStem: 27 45<245.08 437.92> 164 70<262.305 415.034> 528 46<245.08 437.92>
LayerCount: 2
Fore
SplineSet
411 268 m 1
 411 263 403 225 392 219 c 0
 367 205 336 199 297 199 c 0
 223 199 164 263 164 337 c 0
 164 415 222 481 302 481 c 0
 330 481 370 476 398 469 c 0
 401 468 408 405 408 401 c 0
 408 397 403 397 400 397 c 27
 395 397 390 398 387 399 c 1
 383 415 363 451 304 451 c 0
 256 451 234 398 234 346 c 0
 234 286 258 229 317 229 c 0
 345 229 359 234 370 244 c 0
 383 256 392 273 394 273 c 3
 397 273 408 274 411 268 c 1
72 341 m 0
 72 215 174 113 300 113 c 0
 426 113 528 215 528 341 c 0
 528 467 426 569 300 569 c 0
 174 569 72 467 72 341 c 0
27 342 m 0
 27 493 149 615 300 615 c 0
 451 615 574 493 574 342 c 0
 574 191 451 69 300 69 c 0
 149 69 27 191 27 342 c 0
EndSplineSet
Validated: 1
Substitution2: "'smcp' Lowercase to Small Capitals in Latin lookup 0 subtable" copyright.sc
EndChar

StartChar: ordfeminine
Encoding: 170 170 105
Width: 347
Flags: W
HStem: 248 49<77.5 179.093 234 315.089> 447 21G<61 82> 518 38<122.407 182.973>
VStem: 27 88<299.942 374.109> 35 78<449.938 510.652> 189 88<299.042 394 428.05 514.716>
LayerCount: 2
Fore
SplineSet
189 326 m 2xf4
 189 394 l 1
 158 384 115 375 115 343 c 0
 115 308 133 297 151 297 c 0
 176 297 189 310 189 326 c 2xf4
277 326 m 2
 277 308 278 298 296 298 c 0
 309 298 315 306 317 306 c 0
 318 306 322 301 322 297 c 27
 322 287 318 276 316 271 c 1
 305 263 276 249 245 249 c 0
 223 249 201 265 195 281 c 1
 192 280 156 248 108 248 c 0
 47 248 27 290 27 330 c 0xf4
 27 398 130 411 183 428 c 0
 187 429 189 434 189 439 c 2
 189 463 l 2
 189 497 178 518 159 518 c 0
 137 518 113 502 113 467 c 0
 113 456 90 447 74 447 c 0
 48 447 35 464 35 482 c 0xec
 35 515 100 556 170 556 c 0
 226 556 277 534 277 436 c 2
 277 326 l 2
EndSplineSet
Validated: 1
Substitution2: "'smcp' Lowercase to Small Capitals in Latin lookup 0 subtable" ordfeminine.sc
EndChar

StartChar: guillemotleft
Encoding: 171 171 106
Width: 477
Flags: W
LayerCount: 2
Fore
SplineSet
307 248 m 1
 325 231 349 206 379 177 c 0
 433 125 453 106 453 98 c 0
 453 86 424 74 418 73 c 1
 417 75 359 132 212 227 c 1
 207 229 205 235 205 241 c 0
 205 251 206 260 213 268 c 1
 344 347 414 419 419 423 c 1
 425 422 454 410 454 398 c 0
 454 390 434 371 380 319 c 0
 350 290 325 265 307 248 c 1
128 248 m 1
 146 231 170 206 200 177 c 0
 254 125 274 106 274 98 c 0
 274 86 245 74 239 73 c 1
 238 75 180 132 33 227 c 1
 28 229 26 235 26 241 c 0
 26 251 27 260 34 268 c 1
 165 347 235 419 240 423 c 1
 246 422 275 410 275 398 c 0
 275 390 255 371 201 319 c 0
 171 290 146 265 128 248 c 1
EndSplineSet
Validated: 1
Substitution2: "'smcp' Lowercase to Small Capitals in Latin lookup 0 subtable" guillemotleft.sc
EndChar

StartChar: logicalnot
Encoding: 172 172 107
Width: 539
Flags: W
HStem: 356 71<33.2881 434>
VStem: 434 70<160.679 355.996>
LayerCount: 2
Fore
SplineSet
28 366 m 1
 28 366 33 427 43 427 c 0
 191 427 344 427 492 427 c 0
 498 427 504 426 504 416 c 2
 504 169 l 1
 503 168 496 161 445 154 c 1
 441 154 l 2
 431 154 434 161 434 161 c 1
 434 346 l 2
 434 350 430 356 423 356 c 2
 34 356 l 1
 34 356 28 356 28 366 c 1
EndSplineSet
Validated: 1
EndChar

StartChar: registered
Encoding: 174 174 108
Width: 599
Flags: W
HStem: 136 44<206.089 393.972> 273 15<169.001 192.191 275.245 297.323 431.046 452.981> 399 26<269.102 278.952> 532 22<273.143 310.746> 540 15<170 192.33> 636 46<203.58 396.481>
VStem: 27 45<312.08 504.92> 199 70<299.571 398.999 425 528.572> 323 70<426.373 529.089> 528 46<312.08 504.92>
LayerCount: 2
Fore
SplineSet
269 335 m 1xf7c0
 269 335 268 311 272 299 c 0
 273 294 292 288 296 288 c 0
 298 288 298 278 296 273 c 1
 280 274 254 277 235 277 c 0
 215 277 191 274 171 273 c 1
 170 274 169 278 169 280 c 0
 169 282 169 288 170 288 c 0
 175 288 194 294 196 299 c 1
 198 308 199 325 199 332 c 2
 199 496 l 2
 199 503 198 520 196 529 c 1
 194 534 176 540 171 540 c 0
 170 540 170 545 170 547 c 0
 170 549 170 554 171 555 c 1xefc0
 191 554 214 553 236 553 c 1
 261 553 270 554 295 554 c 0
 330 554 393 539 393 483 c 0
 393 440 360 412 344 405 c 0
 342 404 343 403 344 401 c 0
 365 365 384 339 408 315 c 0
 423 300 437 288 451 288 c 1
 452 287 453 282 453 280 c 0
 453 278 453 277 452 273 c 1
 449 272 445 272 441 272 c 0
 368 272 343 308 319 341 c 0
 298 370 285 394 279 398 c 0
 278 399 276 399 274 399 c 0
 272 399 269 398 269 393 c 2
 269 335 l 1xf7c0
294 425 m 0
 319 425 323 459 323 475 c 0
 323 507 312 532 290 532 c 0xf7c0
 282 532 276 532 273 529 c 0
 272 528 270 523 270 521 c 0
 269 516 269 506 269 487 c 2
 269 441 l 2
 269 426 274 425 291 425 c 2
 291 425 293 425 294 425 c 0
72 408 m 0
 72 282 174 180 300 180 c 0
 426 180 528 282 528 408 c 0
 528 534 426 636 300 636 c 0
 174 636 72 534 72 408 c 0
27 409 m 0
 27 560 149 682 300 682 c 4
 451 682 574 560 574 409 c 0
 574 258 451 136 300 136 c 0
 149 136 27 258 27 409 c 0
EndSplineSet
Validated: 33
Substitution2: "'smcp' Lowercase to Small Capitals in Latin lookup 0 subtable" registered.sc
EndChar

StartChar: macron
Encoding: 175 175 109
Width: 384
Flags: W
HStem: 530 69<61.0228 321.537>
VStem: 57 269
LayerCount: 2
Fore
SplineSet
57 541 m 4
 59 589 69 599 72 599 c 6
 73 599 l 5
 319 599 l 5
 320 599 l 6
 322 599 326 597 326 589 c 4
 324 540 312 530 312 530 c 5
 63 530 l 5
 63 530 56 529 57 541 c 4
EndSplineSet
Validated: 1
EndChar

StartChar: degree
Encoding: 176 176 110
Width: 233
Flags: W
HStem: 437 45<74.3445 159.559> 590 44<74.3445 159.559>
VStem: 18 46<492.644 579.26> 170 45<492.644 579.26>
LayerCount: 2
Fore
SplineSet
64 536 m 0
 64 506 87 482 117 482 c 0
 147 482 170 506 170 536 c 0
 170 566 147 590 117 590 c 0
 87 590 64 566 64 536 c 0
18 536 m 0
 18 590 63 634 117 634 c 0
 171 634 215 590 215 536 c 0
 215 482 171 437 117 437 c 0
 63 437 18 482 18 536 c 0
EndSplineSet
Validated: 1
Substitution2: "'smcp' Lowercase to Small Capitals in Latin lookup 0 subtable" degree.sc
EndChar

StartChar: plusminus
Encoding: 177 177 111
Width: 530
Flags: W
HStem: -1 72<36.0959 490.652> 309 72<35.0959 229.999 302.001 495.904>
VStem: 230 72<113.369 308.998 381 575.904>
LayerCount: 2
Fore
SplineSet
302 306 m 2
 302 122 l 1
 302 122 287 112 242 106 c 0
 239 106 238 106 236 106 c 0
 230 106 230 109 230 113 c 2
 230 304 l 2
 230 306 229 309 224 309 c 2
 33 309 l 1
 33 309 27 309 27 319 c 0
 27 323 28 352 35 376 c 0
 37 382 42 381 42 381 c 1
 225 381 l 2
 228 381 230 385 230 387 c 2
 230 569 l 1
 230 569 229 574 235 576 c 0
 259 583 288 584 292 584 c 0
 302 584 302 578 302 578 c 1
 302 386 l 2
 302 383 303 381 306 381 c 2
 498 381 l 2
 502 381 506 381 506 374 c 0
 506 365 502 337 496 315 c 0
 494 309 489 309 489 309 c 1
 306 309 l 2
 303 309 302 308 302 306 c 2
490 71 m 1
 490 71 500 72 498 60 c 0
 491 12 485 2 482 -1 c 1
 34 -1 l 1
 34 -1 26 -2 28 12 c 0
 30 26 30 46 36 66 c 0
 38 72 43 71 43 71 c 1
 490 71 l 1
EndSplineSet
Validated: 1
EndChar

StartChar: uni00B2
Encoding: 178 178 112
Width: 322
Flags: W
HStem: 253 63<100.908 258.924> 586 58<76.1879 160.578>
VStem: 173 87<460.586 574.713> 271 27<336.672 367.209>
LayerCount: 2
Fore
SplineSet
121 586 m 0
 76 586 48 540 43 540 c 1
 35 540 26 559 26 564 c 3
 26 569 27 573 27 574 c 0
 37 593 84 644 151 644 c 0
 215 644 260 600 260 534 c 0
 260 449 164 364 101 322 c 0
 99 320 100 316 103 316 c 2
 217 316 l 2
 256 316 259 340 271 364 c 0
 272 367 274 368 278 368 c 0
 281 368 295 366 298 363 c 1
 291 332 277 281 270 253 c 1
 167 254 l 1
 167 254 44 253 39 253 c 1
 35 257 26 266 26 279 c 3
 26 282 26 285 27 288 c 1
 99 360 173 454 173 528 c 0
 173 551 157 586 121 586 c 0
EndSplineSet
Validated: 1
EndChar

StartChar: uni00B3
Encoding: 179 179 113
Width: 298
Flags: W
HStem: 246 36<88.7547 166.268> 440 32<81.0029 126.822> 596 49<85.4903 173>
VStem: 159 82<515.536 592.473> 188 85<311.371 424.361>
LayerCount: 2
Fore
SplineSet
159 645 m 0xf0
 187 645 241 627 241 574 c 0xf0
 241 525 194 485 169 472 c 1
 193 472 273 453 273 382 c 0
 273 288 181 246 102 246 c 0
 65 246 40 257 29 266 c 1
 27 269 26 278 26 284 c 0
 26 302 45 315 60 315 c 0
 86 315 92 282 123 282 c 0
 162 282 188 309 188 365 c 0xe8
 188 422 160 440 110 440 c 0
 106 440 101 440 87 440 c 1
 85 443 81 451 81 456 c 0
 81 458 82 467 83 470 c 1
 128 480 159 501 159 554 c 0
 159 582 139 596 123 596 c 0
 90 596 68 559 58 559 c 0
 49 559 34 574 38 580 c 0
 58 612 111 645 159 645 c 0xf0
EndSplineSet
Validated: 1
EndChar

StartChar: acute
Encoding: 180 180 114
Width: 234
Flags: W
HStem: 522 165
VStem: 27 173
LayerCount: 2
Fore
SplineSet
200 658 m 4
 200 619 54 522 44 522 c 4
 37 522 27 534 27 540 c 4
 27 545 83 635 120 678 c 4
 125 683 140 687 154 687 c 4
 189 687 200 666 200 658 c 4
EndSplineSet
Validated: 1
EndChar

StartChar: uni00B5
Encoding: 181 181 115
Width: 535
Flags: W
HStem: -9 99<179.437 267.408> -4 82<416.085 491.143> 426 20G<105 116 347 358>
VStem: 60 115<227.01 428.698> 64 88<118.579 379.241> 303 126<250.148 426.42> 303 98<132.667 343.445>
LayerCount: 2
Fore
SplineSet
209 -9 m 0xa2
 167 -9 153 42 141 76 c 1
 143 51 141 -89 163 -207 c 1
 158 -215 131 -227 113 -227 c 0
 94 -227 43 -203 43 -190 c 0
 43 -172 52 100 64 204 c 1xaa
 64 228 60 275 60 298 c 0
 60 311 60 390 60 426 c 1
 65 434 99 446 111 446 c 0
 121 446 175 422 175 409 c 0xb0
 175 399 177 355 158 266 c 0
 157 260 152 223 152 223 c 0
 152 144 179 90 215 90 c 0
 282 90 297 160 303 227 c 1xaa
 303 251 303 275 303 298 c 0
 303 311 304 388 303 426 c 1
 308 434 341 446 353 446 c 0
 363 446 429 422 429 409 c 0xa4
 429 391 425 335 406 246 c 0
 405 240 401 223 401 223 c 1
 400 141 405 78 451 78 c 0
 477 78 506 100 513 109 c 1
 516 109 523 101 526 96 c 0
 528 92 529 79 529 76 c 0
 516 32 476 -4 436 -4 c 0x62
 388 -3 352 64 343 128 c 1
 313 58 279 -9 209 -9 c 0xa2
EndSplineSet
EndChar

StartChar: paragraph
Encoding: 182 182 116
Width: 468
Flags: W
HStem: -4 34<158.094 210.238 389.47 442.696> 2 42<280.938 313.539> 263 389<113.739 217> 274 52<279.062 316.998> 622 26<383.536 438.316>
VStem: 16 263<361.409 555.329> 217 64<44.384 262.991> 317 59<60.8202 273.999 343.001 603.643>
LayerCount: 2
Fore
SplineSet
279 261 m 2x55
 281 57 l 2x53
 281 48 289 44 299 44 c 0
 309 44 313 52 313 58 c 0
 316 92 317 164 317 270 c 0
 317 273 315 274 313 274 c 0
 308 274 295 272 287 270 c 0
 281 269 279 266 279 261 c 2x55
206 652 m 0xa5
 265 652 258 648 317 648 c 0
 384 648 438 654 438 654 c 1
 443 649 439 622 434 622 c 0
 422 622 384 616 379 604 c 0
 377 597 376 551 376 500 c 0
 376 439 377 367 377 348 c 0
 377 344 380 343 382 343 c 0
 399 346 425 352 425 352 c 1
 427 348 428 337 428 333 c 0
 428 323 423 313 408 304 c 0
 400 300 393 297 383 294 c 0
 381 293 378 292 378 290 c 0
 378 261 378 78 385 52 c 1
 390 40 427 30 439 30 c 0
 441 30 443 24 443 18 c 0
 443 12 441 -2 439 -4 c 1x8d
 376 -2 341 2 278 2 c 0x45
 232 2 199 -2 159 -4 c 1
 157 2 156 28 161 28 c 0
 169 28 209 39 212 50 c 0
 216 67 217 122 217 183 c 2
 217 256 l 2x83
 217 263 207 263 197 263 c 0
 82 263 16 350 16 460 c 0
 16 604 124 652 206 652 c 0xa5
281 594 m 2x13
 281 594 279 434 279 332 c 0x15
 279 329 282 326 287 326 c 0
 297 326 304 329 310 332 c 0
 314 334 317 336 317 340 c 0
 317 466 316 583 315 596 c 0
 315 600 308 606 298 606 c 0
 288 606 281 605 281 594 c 2x13
EndSplineSet
Validated: 33
Substitution2: "'smcp' Lowercase to Small Capitals in Latin lookup 0 subtable" paragraph.sc
EndChar

StartChar: periodcentered
Encoding: 183 183 117
Width: 205
Flags: W
HStem: 188 150<55.1921 156.5>
VStem: 31 147<211.5 316.5>
LayerCount: 2
Fore
SplineSet
31 265 m 4
 31 305 64 338 105 338 c 27
 145 338 178 305 178 265 c 0
 178 225 148 188 107 188 c 27
 65 188 31 225 31 265 c 4
EndSplineSet
Validated: 1
EndChar

StartChar: cedilla
Encoding: 184 184 118
Width: 443
Flags: W
HStem: -156 32<156.792 243.563> -73 71<196.649 225.565> -67 40<221 246.732>
VStem: 248 51<-121.755 -67.099>
LayerCount: 2
Fore
SplineSet
226 -28 m 5xd0
 226 -28 238 -27 245 -27 c 31
 274 -27 299 -52 299 -78 c 4
 299 -125 263 -156 202 -156 c 4
 180 -156 161 -147 154 -140 c 5
 153 -137 152 -127 152 -123 c 4
 152 -116 156 -109 159 -109 c 4
 164 -109 187 -124 209 -124 c 4
 237 -124 248 -109 248 -95 c 4
 248 -81 241 -67 224 -67 c 4xb0
 218 -67 204 -69 194 -73 c 4
 192 -73 178 -61 180 -57 c 4
 189 -42 200 -16 208 -2 c 5
 240 -2 l 5
 226 -28 l 5xd0
EndSplineSet
Validated: 1
EndChar

StartChar: uni00B9
Encoding: 185 185 119
Width: 277
Flags: W
HStem: 252 29<30.1807 81.3616 197.441 250.987>
VStem: 94 93<297.333 559.997>
LayerCount: 2
Fore
SplineSet
38 543 m 5
 33 544 23 555 23 563 c 4
 23 564 22 571 23 572 c 4
 97 608 180 648 182 648 c 6
 183 648 l 6
 187 648 199 631 200 628 c 5
 197 617 187 582 187 543 c 6
 187 331 l 6
 187 311 190 303 197 295 c 4
 206 285 242 281 247 281 c 4
 249 281 251 270 251 266 c 4
 251 263 249 253 248 252 c 5
 222 253 171 257 145 257 c 4
 119 257 58 253 32 252 c 5
 29 255 29 281 32 281 c 4
 40 281 76 288 83 297 c 4
 88 304 94 318 94 330 c 6
 94 529 l 6
 94 556 87 560 81 560 c 4
 72 560 49 548 38 543 c 5
EndSplineSet
Validated: 1
EndChar

StartChar: ordmasculine
Encoding: 186 186 120
Width: 370
Flags: W
HStem: 247 37<151.947 226.496> 517 37<141.643 217.507>
VStem: 27 96<323.152 477.988> 247 97<322.676 476.997>
LayerCount: 2
Fore
SplineSet
176 517 m 27
 134 517 123 463 123 421 c 27
 123 361 132 284 192 284 c 27
 234 284 247 335 247 377 c 27
 247 438 237 517 176 517 c 27
185 554 m 4
 273 554 344 485 344 400 c 0
 344 315 274 247 185 247 c 0
 97 247 27 315 27 400 c 0
 27 485 97 554 185 554 c 4
EndSplineSet
Validated: 1
Substitution2: "'smcp' Lowercase to Small Capitals in Latin lookup 0 subtable" ordmasculine.sc
EndChar

StartChar: guillemotright
Encoding: 187 187 121
Width: 479
Flags: W
LayerCount: 2
Fore
SplineSet
172 248 m 1
 154 265 129 290 99 319 c 0
 45 371 25 390 25 398 c 0
 25 410 54 422 60 423 c 1
 65 419 135 347 266 268 c 1
 273 260 274 251 274 241 c 0
 274 235 272 229 267 227 c 1
 120 132 62 75 61 73 c 1
 55 74 26 86 26 98 c 0
 26 106 46 125 100 177 c 0
 130 206 154 231 172 248 c 1
351 248 m 1
 333 265 308 290 278 319 c 0
 224 371 204 390 204 398 c 0
 204 410 233 422 239 423 c 1
 244 419 314 347 445 268 c 1
 452 260 453 251 453 241 c 0
 453 235 451 229 446 227 c 1
 299 132 241 75 240 73 c 1
 234 74 205 86 205 98 c 0
 205 106 225 125 279 177 c 0
 309 206 333 231 351 248 c 1
EndSplineSet
Validated: 1
Substitution2: "'smcp' Lowercase to Small Capitals in Latin lookup 0 subtable" guillemotright.sc
EndChar

StartChar: onequarter
Encoding: 188 188 122
Width: 699
Flags: W
HStem: -3 21G<584.5 607> 100 56<467 551.952 641.001 674.36> 252 29<29.1807 80.3616 196.441 249.987>
VStem: 93 93<297.333 559.997> 552 89<-1.52688 97.9902 156.017 266.997>
LayerCount: 2
Fore
SplineSet
37 543 m 1
 32 544 22 555 22 563 c 0
 22 564 21 571 22 572 c 0
 96 608 179 648 181 648 c 2
 182 648 l 2
 186 648 198 631 199 628 c 1
 196 617 186 582 186 543 c 2
 186 331 l 2
 186 311 189 303 196 295 c 0
 205 285 241 281 246 281 c 0
 248 281 250 270 250 266 c 0
 250 263 248 253 247 252 c 1
 221 253 170 257 144 257 c 0
 118 257 57 253 31 252 c 1
 28 255 28 281 31 281 c 0
 39 281 75 288 82 297 c 0
 87 304 93 318 93 330 c 2
 93 529 l 2
 93 556 86 560 80 560 c 0
 71 560 48 548 37 543 c 1
595 -3 m 0
 574 -3 552 0 552 3 c 2
 552 97 l 1
 551 100 548 100 546 100 c 2
 390 100 l 1
 383 104 382 113 382 123 c 1
 457 213 540 313 604 388 c 0
 608 393 615 398 624 398 c 0
 633 398 641 396 641 391 c 2
 641 158 l 2
 641 155 643 155 647 154 c 1
 666 154 l 2
 673 154 676 131 676 104 c 0
 676 100 670 98 670 98 c 1
 645 98 l 2
 643 98 641 96 641 93 c 2
 641 2 l 1
 641 2 619 -3 595 -3 c 0
552 160 m 1
 552 261 l 2
 552 263 552 267 551 267 c 8
 550 267 548 266 548 266 c 2
 463 164 l 2
 462 163 463 163 463 162 c 0
 463 160 465 156 467 156 c 2
 546 156 l 1
 548 157 551 156 552 160 c 1
577 617 m 1
 229 -14 l 1
 229 -14 229 -16 225 -16 c 0
 222 -16 202 -13 189 3 c 0
 185 7 187 12 187 12 c 1
 532 644 l 1
 532 644 534 647 538 647 c 0
 544 647 562 641 574 628 c 0
 579 623 577 617 577 617 c 1
EndSplineSet
Validated: 1
EndChar

StartChar: onehalf
Encoding: 189 189 123
Width: 748
Flags: W
HStem: -1 63<528.908 686.924> 252 29<29.1807 80.3616 196.441 249.987> 332 58<504.188 588.578>
VStem: 93 93<297.333 559.997> 601 87<206.586 320.713> 699 27<82.6719 113.209>
LayerCount: 2
Fore
SplineSet
549 332 m 0
 504 332 476 286 471 286 c 1
 463 286 454 305 454 310 c 3
 454 315 455 319 455 320 c 0
 465 339 512 390 579 390 c 0
 643 390 688 346 688 280 c 1
 688 195 592 110 529 68 c 1
 527 66 528 62 531 62 c 2
 645 62 l 2
 684 62 687 86 699 110 c 0
 700 113 702 114 706 114 c 0
 709 114 723 112 726 109 c 1
 719 78 705 27 698 -1 c 1
 595 0 l 1
 595 0 472 -1 467 -1 c 1
 462 4 451 17 455 34 c 1
 527 106 601 200 601 274 c 0
 601 297 585 332 549 332 c 0
37 543 m 1
 32 544 22 555 22 563 c 0
 22 564 21 571 22 572 c 0
 96 608 179 648 181 648 c 2
 182 648 l 2
 186 648 198 631 199 628 c 1
 196 617 186 582 186 543 c 2
 186 331 l 2
 186 311 189 303 196 295 c 0
 205 285 241 281 246 281 c 0
 248 281 250 270 250 266 c 0
 250 263 248 253 247 252 c 1
 221 253 170 257 144 257 c 0
 118 257 57 253 31 252 c 1
 28 255 28 281 31 281 c 0
 39 281 75 288 82 297 c 0
 87 304 93 318 93 330 c 2
 93 529 l 2
 93 556 86 560 80 560 c 0
 71 560 48 548 37 543 c 1
577 617 m 1
 229 -14 l 1
 229 -14 229 -16 225 -16 c 0
 222 -16 201 -12 188 4 c 0
 184 8 187 12 187 12 c 1
 532 644 l 1
 532 644 534 647 538 647 c 0
 544 647 562 641 574 628 c 0
 579 623 577 617 577 617 c 1
EndSplineSet
Validated: 33
EndChar

StartChar: threequarters
Encoding: 190 190 124
Width: 693
Flags: W
HStem: -3 21G<578.5 601> 100 56<461 545.952 635.001 668.36> 246 36<85.7547 163.268> 440 32<78.0029 123.75> 596 49<82.967 170>
VStem: 156 82<515.536 592.473> 185 85<311.371 424.361> 546 89<-1.52688 97.9902 156.017 266.997>
LayerCount: 2
Fore
SplineSet
156 645 m 0xfd
 184 645 238 627 238 574 c 0xfd
 238 525 191 485 166 472 c 1
 190 472 270 453 270 382 c 0
 270 288 178 246 99 246 c 0
 62 246 37 257 26 266 c 1
 24 269 23 278 23 284 c 0
 23 302 42 315 57 315 c 0
 83 315 89 282 120 282 c 0
 159 282 185 309 185 365 c 0xfb
 185 422 156 440 106 440 c 0
 102 440 98 440 84 440 c 1
 82 443 78 451 78 456 c 0
 78 458 79 467 80 470 c 1
 125 480 156 501 156 554 c 0
 156 582 136 596 120 596 c 0
 87 596 66 559 56 559 c 0
 47 559 32 574 36 580 c 0
 56 612 108 645 156 645 c 0xfd
589 -3 m 0
 568 -3 546 0 546 3 c 2
 546 97 l 1
 545 100 542 100 540 100 c 2
 384 100 l 1
 377 104 376 113 376 123 c 1
 451 213 534 313 598 388 c 0
 602 393 609 398 618 398 c 0
 627 398 635 396 635 391 c 2
 635 158 l 2
 635 155 637 155 641 154 c 1
 660 154 l 2
 667 154 670 131 670 104 c 0
 670 100 664 98 664 98 c 1
 639 98 l 2
 637 98 635 96 635 93 c 2
 635 2 l 1
 635 2 613 -3 589 -3 c 0
545 267 m 8
 544 267 542 266 542 266 c 2
 457 164 l 2
 456 163 457 163 457 162 c 0
 457 160 459 156 461 156 c 2
 540 156 l 1
 542 157 545 156 546 160 c 1
 546 261 l 2
 546 263 546 267 545 267 c 8
571 617 m 5
 223 -14 l 5
 223 -14 221 -16 217 -16 c 4
 214 -16 195 -12 182 4 c 4
 178 8 181 12 181 12 c 5
 526 644 l 5
 526 644 527 647 531 647 c 4
 537 647 556 641 568 628 c 4
 573 623 571 617 571 617 c 5
EndSplineSet
Validated: 1
EndChar

StartChar: questiondown
Encoding: 191 191 125
Width: 349
Flags: W
HStem: -232 110<150.173 288.081> 299 150<193.75 294.711>
VStem: 23 86<-112.793 -19.6954> 172 147<320.125 424.536> 222 45<154.438 245.961>
LayerCount: 2
Fore
SplineSet
319 372 m 0xf0
 319 330 285 299 247 299 c 0
 205 299 172 331 172 372 c 0
 172 413 203 449 243 449 c 0
 280 449 319 417 319 372 c 0xf0
222 217 m 0xe8
 222 235 240 248 255 248 c 0
 260 248 266 236 267 226 c 0
 282 109 287 60 238 40 c 0
 118 -9 109 -38 109 -72 c 0
 109 -106 130 -122 166 -122 c 0
 202 -122 212 -108 254 -108 c 0
 299 -108 327 -143 327 -176 c 0
 327 -201 324 -210 318 -219 c 1
 300 -228 290 -232 259 -232 c 1
 159 -228 23 -175 23 -55 c 1
 23 48 74 83 144 121 c 0
 203 153 222 154 222 217 c 0xe8
EndSplineSet
Validated: 33
Substitution2: "'smcp' Lowercase to Small Capitals in Latin lookup 0 subtable" questiondown.sc
EndChar

StartChar: AE
Encoding: 198 198 132
Width: 931
Flags: W
HStem: -4 37<10.6562 77.3985 200.719 256.498 378.023 438.14> 2 52<594.185 793.441> 211 60<316 448> 304 55<588 737.471> 627 29<384 521> 644 20G<382 521>
VStem: 448 140<59.3359 210.432 273.001 302.528 359.429 479.998> 766 37<230.09 289.239 361.215 427.85>
LayerCount: 2
Fore
SplineSet
429 584 m 4xb3
 431 587 433 595 433 598 c 7
 433 615 394 627 384 627 c 4xbb
 382 627 380 637 380 644 c 4
 380 651 381 662 383 664 c 5x37
 383 664 454 656 521 656 c 4x3b
 614 656 735 664 844 664 c 5
 851 614 864 561 873 516 c 5
 870 513 857 511 850 511 c 4
 843 511 838 513 836 518 c 4
 811 568 749 610 696 610 c 6
 658 610 l 6
 617 610 595 609 593 597 c 4
 589 578 588 542 588 519 c 6
 588 365 l 6
 588 360 609 359 631 359 c 6
 684 359 l 6
 780 359 749 355 766 421 c 4
 767 426 774 428 781 428 c 4
 788 428 800 426 803 423 c 5
 803 234 l 5
 801 232 789 230 782 230 c 4
 775 230 768 233 766 238 c 4
 751 295 747 290 738 296 c 4
 727 303 698 304 660 304 c 4
 632 304 588 304 588 295 c 6
 588 141 l 6
 588 122 589 90 596 70 c 4
 600 58 622 54 664 54 c 6
 690 54 l 6
 728 54 773 65 802 80 c 4
 821 90 857 125 874 170 c 4
 875 174 881 176 888 176 c 4
 898 176 915 173 918 170 c 5
 899 116 871 42 864 -2 c 5
 755 -2 613 2 522 2 c 4x77
 465 2 382 -4 382 -4 c 5
 380 -2 378 5 378 13 c 4
 378 21 380 33 382 33 c 4
 394 33 438 45 442 56 c 5
 448 79 448 118 448 135 c 6
 448 135 448 174 448 200 c 4
 448 205 443 210 439 210 c 4
 413 211 395 211 370 211 c 4
 329 211 313 211 278 210 c 4
 275 210 271 207 270 205 c 5
 223 129 l 5
 207 105 193 84 190 67 c 4
 187 52 194 47 200 44 c 4
 215 37 252 33 260 33 c 4
 265 33 257 2 254 -4 c 5
 214 -2 183 4 139 4 c 4
 93 4 58 -2 12 -4 c 5
 10 -2 10 2 10 8 c 4
 10 15 14 33 16 33 c 4
 28 33 93 51 106 69 c 4
 126 98 147 132 147 132 c 6
 147 132 320 410 429 584 c 4xb3
448 282 m 4
 448 298 448 475 448 475 c 6
 448 477 447 480 445 480 c 7
 443 480 440 478 438 475 c 28
 389 399 316 278 316 278 c 5
 316 278 316 274 318 274 c 4
 338 272 360 271 383 271 c 4
 414 271 410 272 439 273 c 4
 441 273 448 275 448 282 c 4
EndSplineSet
Validated: 33
EndChar

StartChar: Ccedilla
Encoding: 199 199 133
Width: 638
Flags: W
HStem: -183 38<266.341 369.083> -85 84<316.026 347.74> -78 47<341.5 372.139> -7 54<304.369 478.526> 611 56<275.304 464.266>
VStem: 25 156<204.262 445.491> 374 60<-140.758 -79.1211> 561 43<475.367 522.554>
LayerCount: 2
Back
SplineSet
353 -24 m 1
 378 -24 l 2
 404 -24 422 -47 422 -73 c 0
 422 -120 380 -148 328 -148 c 0
 316 -148 300 -144 294 -140 c 1
 292 -136 291 -132 291 -126 c 0
 291 -119 299 -112 305 -112 c 0
 317 -112 326 -125 342 -125 c 0
 370 -125 385 -109 385 -92 c 0
 385 -68 367 -58 354 -58 c 0
 333 -58 329 -65 328 -65 c 0
 326 -65 318 -57 318 -53 c 2
 318 -52 l 1
 327 -37 342 -15 350 -1 c 1
 371 -1 l 1
 353 -24 l 1
633 183 m 0
 633 173 599 40 590 35 c 0
 532 0 452 -6 360 -6 c 0
 183 -6 43 145 43 322 c 0
 43 509 186 667 371 667 c 0
 437 667 527 644 608 622 c 1
 608 622 612 508 612 498 c 0
 612 488 601 483 591 483 c 0
 585 483 580 485 578 488 c 1
 572 519 548 625 374 625 c 0
 239 625 138 483 138 343 c 0
 138 187 224 37 398 37 c 0
 465 37 520 62 551 95 c 0
 577 123 586 167 596 189 c 0
 597 190 598 190 599 190 c 3
 610 190 633 186 633 183 c 0
EndSplineSet
Fore
Refer: 283 63639 N 1 0 0 1 106 1 2
Refer: 35 67 N 1 0 0 1 0 0 3
Validated: 5
EndChar

StartChar: Eth
Encoding: 208 208 142
Width: 706
Flags: HW
HStem: -4 37<12.0357 78.8863> -3 56<198.256 431.86> 311 46<32.2188 388.225> 603 56<237.283 416.146> 627 32<11.0593 65.4754>
VStem: 88 140<61.6039 593.055> 528 152<209.616 455.254>
LayerCount: 2
Fore
SplineSet
38 353 m 5x26
 67 353 369 353 383 353 c 4
 387 353 389 344 389 339 c 7
 389 333 387 316 383 307 c 5
 354 307 51 307 37 307 c 4
 33 307 32 317 32 322 c 7
 32 328 32 344 38 353 c 5x26
161 659 m 0xae
 229 659 291 659 335 659 c 0
 566 659 680 496 680 336 c 0
 680 152 558 -3 334 -3 c 0x76
 290 -3 229 2 162 2 c 0
 105 2 16 -4 16 -4 c 1
 15 -3 12 4 12 13 c 0
 12 19 14 33 16 33 c 0xa6
 28 33 77 43 82 55 c 1
 88 78 88 106 88 143 c 2
 88 521 l 2
 88 539 88 576 82 599 c 1
 77 611 27 627 15 627 c 0
 13 627 11 638 11 645 c 0
 11 652 12 662 14 664 c 1
 14 664 95 659 161 659 c 0xae
228 524 m 2
 228 136 l 2
 228 106 227 72 237 66 c 0
 257 54 334 53 350 53 c 0
 460 53 528 145 528 340 c 0
 528 478 463 603 343 603 c 2
 338 603 l 2x76
 314 603 252 602 241 587 c 0
 230 572 228 542 228 524 c 2
EndSplineSet
EndChar

StartChar: multiply
Encoding: 215 215 149
Width: 425
Flags: W
LayerCount: 2
Back
SplineSet
374 427 m 4
 383 427 410 399 410 388 c 4
 410 386 409 385 409 385 c 5
 273 249 l 6
 271 247 271 245 272 244 c 6
 409 109 l 5
 409 109 410 107 410 104 c 4
 410 99 386 58 380 58 c 4
 378 58 377 60 375 62 c 6
 234 203 l 6
 233 204 231 207 227 203 c 6
 86 61 l 5
 86 61 84 60 82 60 c 4
 72 60 50 99 50 103 c 4
 50 106 52 109 52 109 c 5
 188 244 l 6
 190 246 188 249 187 250 c 6
 52 385 l 5
 52 385 50 386 50 389 c 4
 50 396 72 427 87 427 c 4
 89 427 90 426 92 424 c 6
 228 289 l 6
 230 287 231 287 233 289 c 6
 369 424 l 6
 371 426 372 427 374 427 c 4
EndSplineSet
Fore
SplineSet
160 245 m 1
 161 246 161 248 159 250 c 2
 30 379 l 2
 26 383 25 386 28 392 c 0
 39 412 58 431 64 437 c 0
 69 442 73 438 76 435 c 2
 210 301 l 2
 212 299 215 300 217 302 c 2
 352 437 l 1
 352 437 357 442 364 435 c 0
 367 432 386 411 398 389 c 0
 401 383 397 380 397 380 c 1
 268 251 l 2
 267 250 265 246 267 244 c 2
 397 114 l 1
 397 114 401 112 398 106 c 0
 386 84 367 63 364 60 c 0
 357 53 352 57 352 57 c 1
 217 192 l 2
 213 196 210 194 209 193 c 2
 71 55 l 2
 70 54 69 54 66 54 c 0
 62 54 55 57 50 63 c 0
 31 86 21 106 26 111 c 2
 160 245 l 1
EndSplineSet
Validated: 33
Substitution2: "'smcp' Lowercase to Small Capitals in Latin lookup 0 subtable" multiply.sc
EndChar

StartChar: Oslash
Encoding: 216 216 150
Width: 700
Flags: HW
HStem: -10 56<289.371 428.219> 611 56<263.259 410.82>
VStem: 25 156<204.749 449.761> 512 156<208.412 447.752>
LayerCount: 2
Fore
SplineSet
331 611 m 0
 219 611 181 484 181 350 c 0
 181 226 224 46 362 46 c 0
 469 46 512 174 512 309 c 0
 512 443 476 611 331 611 c 0
506.102 675.878 m 17
 513.617 673.137 546.398 661.576 544 655 c 9
 167 -18 l 17
 158.544 -14.917 127.046 -2.75879 129.444 3.81738 c 9
 506.102 675.878 l 17
346 667 m 0
 522 667 668 515 668 328 c 0
 668 141 522 -10 346 -10 c 0
 170 -10 25 141 25 328 c 0
 25 515 170 667 346 667 c 0
EndSplineSet
EndChar

StartChar: Thorn
Encoding: 222 222 156
Width: 572
Flags: W
HStem: -4 37<6.05109 66.2761 237.318 295.997> 140 52<244.06 339.341> 465 55<225.574 338.438> 625 37<8.00146 66.7073 234.574 297.994>
VStem: 82 140<47.4144 463.818 512.001 599.411> 372 152<252.561 421.037>
LayerCount: 2
Fore
SplineSet
155 656 m 0
 199 656 255 660 295 662 c 1
 296 659 298 649 298 644 c 0
 298 638 297 625 294 625 c 0
 286 625 232 612 229 601 c 0
 222.358 575.38 222.018 551.561 222.001 521 c 2
 222 516 l 0
 222 514 223.764 512 226 512 c 0
 229 512 261 520 296 520 c 1
 378 520 524 476 524 339 c 0
 524 232 430 140 310 140 c 0
 274 140 246.906 157.932 244 162 c 0
 239 169 236 200 243 200 c 1
 253 194 273 192 288 192 c 0
 352 192 372 251 372 328 c 0
 372 407 347 465 280 465 c 0
 256 465 244 466 234 460 c 0
 227 456 222 458 222 359 c 2
 222 359 222 143 222 141 c 0
 222 114 223 85 230 58 c 0
 233 47 284 33 292 33 c 0
 295 33 296 20 296 14 c 0
 296 9 295 -1 294 -4 c 1
 254 -2 199 4 155 4 c 0
 109 4 56 -2 10 -4 c 1
 8 -2 6 6 6 12 c 0
 6 18 7 33 9 33 c 0
 21 33 70 46 75 58 c 1
 81 81 82 120 82 138 c 2
 82 522 l 2
 82 540 81 588 74 600 c 0
 67 612 24 625 12 625 c 0
 10 625 8 636 8 642 c 0
 8 648 8 660 10 662 c 1
 56 660 109 656 155 656 c 0
EndSplineSet
Validated: 33
EndChar

StartChar: germandbls
Encoding: 223 223 157
Width: 608
Flags: W
HStem: -7 55<412.521 462.573> -4 28<29.0359 78.5601 264.345 294.771> 369 57<42.3339 97.9985> 642 54<255.283 369.211>
VStem: 98 130<43.0007 368.996 426.002 562.688> 285 100<321.367 398.426> 396 122<491.265 615.628> 466 118<54.8667 155.363>
LayerCount: 2
Fore
SplineSet
518 565 m 0x7e
 518 432 385 460 385 379 c 0
 385 330 427 296 473 271 c 0
 519 247 584 191 584 130 c 0
 584 51 521 -7 445 -7 c 0
 384 -7 319 32 309 49 c 1
 309 82 321 120 348 120 c 0
 415 120 397 48 444 48 c 27
 468 48 466 104 466 104 c 3xbd
 466 205 285 198 285 334 c 0
 285 434 396 424 396 549 c 0
 396 613 362 642 300 642 c 0
 232 642 228 557 228 475 c 0
 228 343 228 139 228 139 c 2
 228 106 230 81 236 54 c 0
 238 44 284 30 292 30 c 0
 297 30 296 2 294 -4 c 1
 254 -2 203 4 163 4 c 0
 122 4 73 -2 32 -4 c 1
 30 -2 29 6 29 12 c 0
 29 18 31 24 33 24 c 0
 45 24 85 35 88 46 c 0
 96 77 97 100 97 135 c 2
 97 135 98 273 98 361 c 0
 98 364 96 369 93 369 c 2
 40 369 l 2
 38 369 37 371 37 375 c 0
 37 388 47 426 52 426 c 2
 93 426 l 2
 96 426 98 429 98 432 c 2
 98 452 l 2
 98 624 215 696 334 696 c 0
 422 696 518 649 518 565 c 0x7e
EndSplineSet
Validated: 33
Substitution2: "'smcp' Lowercase to Small Capitals in Latin lookup 0 subtable" germandbls.sc
EndChar

StartChar: ae
Encoding: 230 230 164
Width: 679
Flags: HW
HStem: -8 81<438.365 564.656> -7 72<101 246.782> 393 56<159.779 264.5 416.595 502.106>
VStem: 19 130<75.4548 166.129> 28 121<292.604 366.343> 252 135<128.882 193 264.073 359.997>
LayerCount: 2
Fore
SplineSet
252 108 m 2
 252 193 l 1
 208 187 149 180 149 133 c 0
 149 81 176 65 202 65 c 0x74
 236 65 252 85 252 108 c 2
460 392 m 3
 404 392 387 318 387 270 c 0
 387 267 390 264 394 264 c 0
 424 268 504 278 526 282 c 0
 530 283 532 286 532 292 c 11
 532 340 505 392 460 392 c 3
242 449 m 0
 287 449 315 438 346 404 c 1
 385 432 418 449 471 449 c 0
 602 449 653 328 658 262 c 0
 659 249 653.118 238.268 618 233 c 0
 578 227 509 218 392 203 c 0
 388 202 387 199 387 196 c 0
 387 174 409 73 506 73 c 3
 578 73 615 103 641 122 c 1
 645 119 650 112 650 104 c 3
 650 98 648 88 645 81 c 0
 635.637 59.1522 566 -8 471 -8 c 0xac
 407 -8 350 20 311 61 c 1
 268 21 227 -7 139 -7 c 0
 63 -7 19 41 19 100 c 0x74
 19 214 166 233 243 252 c 0
 249.14 253.515 252 259 252 266 c 2
 252 311 l 2
 252 361 233 393 207 393 c 0
 169 393 149 373 149 326 c 0
 149 293 114 283 91 283 c 0
 66 283 40 292 28 313 c 1
 28 382 138 449 242 449 c 0
EndSplineSet
Substitution2: "'smcp' Lowercase to Small Capitals in Latin lookup 0 subtable" ae.sc
EndChar

StartChar: eth
Encoding: 240 240 174
Width: 521
Flags: HW
HStem: -6 54<217.037 317.299> 392 55<201.864 308.521> 662 33.1133<85.033 122.354>
VStem: 28 142<125.111 309.695> 349 142<135.239 348.602>
LayerCount: 2
Fore
SplineSet
398.874 696.917 m 17
 404.049 690.816 423.338 666.527 418 662 c 9
 144 492 l 17
 138.177 498.864 120.298 523.036 125.636 527.563 c 9
 398.874 696.917 l 17
250 447 m 0
 270 447 305 446 315 443 c 1
 277 557 193 632 82 662 c 1
 82 670 82 695.097 92 695.113 c 1
 249 695.113 491 560.296 491 271 c 0
 491 55 369 -6 259 -6 c 0
 147 -6 28 84 28 217 c 0
 28 323 117.985 447 250 447 c 0
252 392 m 0
 188 392 170 326 170 245 c 0
 170 147 193 48 270 48 c 0
 327 48 349 105 349 203 c 0
 348 257 345.493 295.112 340 318 c 0
 328 368 285 392 252 392 c 0
EndSplineSet
Substitution2: "'smcp' Lowercase to Small Capitals in Latin lookup 0 subtable" eth.sc
EndChar

StartChar: divide
Encoding: 247 247 181
Width: 522
Flags: W
HStem: -6 124<213.813 303.267> 211 72<29.2323 486.903> 378 120<213.444 304.556>
VStem: 198 122<10.625 102.219 393.258 482.649>
LayerCount: 2
Fore
SplineSet
259 378 m 0
 226 378 202 401 198 434 c 1
 198 438 l 2
 198 469 227 498 259 498 c 0
 292 498 316 476 320 443 c 1
 320 437 l 2
 320 407 291 378 259 378 c 0
259 -6 m 0
 226 -6 202 19 198 52 c 1
 198 57 l 2
 198 88 227 118 259 118 c 0
 292 118 316 91 320 58 c 1
 320 56 l 2
 320 26 291 -6 259 -6 c 0
25 220 m 0
 25 222 28 283 39 283 c 2
 488 283 l 1
 488 283 495 282 495 273 c 0
 495 255 488 222 487 218 c 0
 485 212 479 211 479 211 c 1
 31 211 l 1
 31 211 25 210 25 220 c 0
EndSplineSet
Validated: 1
Substitution2: "'smcp' Lowercase to Small Capitals in Latin lookup 0 subtable" divide.sc
EndChar

StartChar: oslash
Encoding: 248 248 182
Width: 462
Flags: HW
HStem: -7 55<216.948 316.876> 392 55<200.468 303.656>
VStem: 26 142<124.995 315.599> 352 144<124.594 314.308>
LayerCount: 2
Fore
SplineSet
373.161 454.509 m 17
 380.677 451.768 409.458 440.207 407.06 433.631 c 9
 154 -18 l 17
 145.544 -14.917 118.046 -2.75879 120.444 3.81738 c 9
 373.161 454.509 l 17
247 392 m 27
 184 392 168 314 168 251 c 27
 168 162 182 48 271 48 c 27
 333 48 352 123 352 185 c 27
 352 276 338 392 247 392 c 27
261 447 m 0
 392 447 496 346 496 220 c 0
 496 94 393 -7 261 -7 c 0
 130 -7 26 94 26 220 c 0
 26 346 130 447 261 447 c 0
EndSplineSet
Substitution2: "'smcp' Lowercase to Small Capitals in Latin lookup 0 subtable" oslash.sc
EndChar

StartChar: thorn
Encoding: 254 254 188
Width: 567
Flags: HW
HStem: -218 37<18.4365 78.3777 237.119 295.998> -8 54<246.583 353.973> 388 58<243.305 350.68> 619 37<21.0366 86.1438> 675 20G<218.5 225>
VStem: 93 130<-167.197 0.997055 70.0271 367.614 412.002 614.125> 391 144<121.647 321.193>
LayerCount: 2
Fore
SplineSet
315 446 m 0
 446 446 535 338 535 227 c 0
 535 74 422 -8 285 -8 c 0
 257 -8 231 1 227 1 c 1
 224 1 223 -3 223 -15 c 2
 223 -65 l 2
 223 -99 223 -129 230 -156 c 0
 233 -167 285 -181 293 -181 c 0
 298 -181 297 -212 295 -218 c 1
 254 -216 197 -210 158 -210 c 0
 116 -210 63 -216 21 -218 c 1
 16 -213 16 -181 21 -181 c 0
 33 -181 83 -167 86 -156 c 0
 92 -130 93 -87 93 -80 c 10
 93 528 l 2
 93 547 92 583 88 603 c 1
 84 617 53 619 36 619 c 2
 27 619 l 2
 23 619 21 632 21 639 c 0
 21 641 22 656 27 656 c 0
 139 666 217 695 220 695 c 2
 222 695 l 2
 228 695 234 683 235 678 c 1
 235 678 223 633 223 577 c 10
 223 418 l 17
 223 415 224 412 225 412 c 1
 242 425 276 446 315 446 c 0
300 388 m 0
 252 388 223 355 223 314 c 2
 223 125 l 2
 223 70 269 46 301 46 c 0
 334 46 391 62 391 194 c 0
 391 281 381 388 300 388 c 0
EndSplineSet
Substitution2: "'smcp' Lowercase to Small Capitals in Latin lookup 0 subtable" thorn.sc
EndChar

StartChar: gravecomb
Encoding: 768 768 190
Width: 247
Flags: W
HStem: 522 165
VStem: 42 173
LayerCount: 2
Fore
SplineSet
42 658 m 0
 42 666 53 687 88 687 c 0
 102 687 117 683 122 678 c 0
 159 635 215 545 215 540 c 0
 215 534 205 522 198 522 c 0
 188 522 42 619 42 658 c 0
EndSplineSet
Validated: 1
EndChar

StartChar: acutecomb
Encoding: 769 769 191
Width: 234
Flags: W
HStem: 522 165
VStem: 27 173
LayerCount: 2
Fore
SplineSet
154 687 m 4
 189 687 200 666 200 658 c 0
 200 619 54 522 44 522 c 0
 37 522 27 534 27 540 c 0
 27 545 83 635 120 678 c 0
 125 683 140 687 154 687 c 4
EndSplineSet
Validated: 1
EndChar

StartChar: uni2010
Encoding: 8208 8208 197
Width: 314
Flags: W
HStem: 193 74<31.0093 184.957> 204 75<138.043 284.537>
VStem: 28 261
LayerCount: 2
Fore
SplineSet
28 204 m 0x60
 28 252 37 267 40 267 c 2
 41 267 l 1xa0
 282 279 l 1
 283 279 l 2
 285 279 289 278 289 270 c 0
 289 221 276 204 276 204 c 1x60
 35 193 l 1xa0
 35 193 28 192 28 204 c 0x60
EndSplineSet
Validated: 1
EndChar

StartChar: uni2011
Encoding: 8209 8209 198
Width: 314
Flags: W
HStem: 193 74<31.0093 184.957> 204 75<138.043 284.537>
VStem: 28 261
LayerCount: 2
Fore
SplineSet
28 204 m 0x60
 28 252 37 267 40 267 c 2
 41 267 l 1xa0
 282 279 l 1
 283 279 l 2
 285 279 289 278 289 270 c 0
 289 221 276 204 276 204 c 1x60
 35 193 l 1xa0
 35 193 28 192 28 204 c 0x60
EndSplineSet
Validated: 1
EndChar

StartChar: figuredash
Encoding: 8210 8210 199
Width: 499
Flags: W
HStem: 194 74<32.4735 463.904>
LayerCount: 2
Fore
SplineSet
28 203 m 4
 28 205 31 268 42 268 c 6
 467 268 l 6
 469 268 473 267 473 259 c 4
 473 241 465 205 464 201 c 4
 462 195 457 194 457 194 c 5
 34 194 l 5
 34 194 28 193 28 203 c 4
EndSplineSet
Validated: 1
EndChar

StartChar: endash
Encoding: 8211 8211 200
Width: 499
Flags: W
HStem: 194 74<32.4735 463.904>
LayerCount: 2
Fore
SplineSet
28 203 m 0
 28 205 31 268 42 268 c 2
 467 268 l 2
 469 268 473 267 473 259 c 0
 473 241 465 205 464 201 c 0
 462 195 457 194 457 194 c 1
 34 194 l 1
 34 194 28 193 28 203 c 0
EndSplineSet
Validated: 1
EndChar

StartChar: emdash
Encoding: 8212 8212 201
Width: 886
Flags: W
HStem: 194 74<32.4735 848.904>
LayerCount: 2
Fore
SplineSet
28 203 m 0
 28 205 31 268 42 268 c 2
 852 268 l 2
 854 268 858 267 858 259 c 0
 858 241 850 205 849 201 c 0
 847 195 842 194 842 194 c 1
 34 194 l 1
 34 194 28 193 28 203 c 0
EndSplineSet
Validated: 1
EndChar

StartChar: afii00208
Encoding: 8213 8213 202
Width: 1080
Flags: W
HStem: 194 74<32.4735 1042.9>
LayerCount: 2
Fore
SplineSet
28 203 m 0
 28 205 31 268 42 268 c 2
 1046 268 l 2
 1048 268 1052 267 1052 259 c 0
 1052 241 1044 205 1043 201 c 0
 1041 195 1036 194 1036 194 c 1
 34 194 l 1
 34 194 28 193 28 203 c 0
EndSplineSet
Validated: 1
EndChar

StartChar: quoteleft
Encoding: 8216 8216 203
Width: 160
Flags: W
HStem: 474 232
VStem: 16 76<553.645 629.059>
LayerCount: 2
Fore
SplineSet
16 555 m 0
 16 649 117 706 126 706 c 0
 134 706 158 691 162 680 c 1
 102 644 92 599 92 590 c 0
 92 564 134 546 134 518 c 0
 134 494 100 474 68 474 c 0
 61 474 40 478 31 485 c 1
 22 498 16 525 16 555 c 0
EndSplineSet
Validated: 1
EndChar

StartChar: quoteright
Encoding: 8217 8217 204
Width: 165
Flags: W
HStem: 474 232
VStem: 79 76<550.941 626.355>
LayerCount: 2
Fore
SplineSet
155 625 m 0
 155 531 54 474 45 474 c 0
 37 474 13 489 9 500 c 1
 69 536 79 581 79 590 c 0
 79 616 37 634 37 662 c 0
 37 686 71 706 103 706 c 0
 110 706 131 702 140 695 c 1
 149 682 155 655 155 625 c 0
EndSplineSet
Validated: 1
EndChar

StartChar: quotesinglbase
Encoding: 8218 8218 205
Width: 160
Flags: W
HStem: -108 232
VStem: 74 76<-31.059 44.3548>
LayerCount: 2
Fore
SplineSet
150 43 m 0
 150 -51 49 -108 40 -108 c 0
 32 -108 8 -93 4 -82 c 1
 64 -46 74 -1 74 8 c 0
 74 34 32 52 32 80 c 0
 32 104 66 124 98 124 c 0
 105 124 126 120 135 113 c 1
 144 100 150 73 150 43 c 0
EndSplineSet
Validated: 1
EndChar

StartChar: quotedblleft
Encoding: 8220 8220 206
Width: 332
Flags: W
HStem: 474 232
VStem: 16 76<553.645 629.059> 164 76<553.645 629.059>
LayerCount: 2
Fore
SplineSet
164 555 m 0
 164 649 265 706 274 706 c 0
 282 706 306 691 310 680 c 1
 250 644 240 599 240 590 c 0
 240 564 282 546 282 518 c 0
 282 494 248 474 216 474 c 0
 209 474 188 478 179 485 c 1
 170 498 164 525 164 555 c 0
16 555 m 0
 16 649 117 706 126 706 c 0
 134 706 158 691 162 680 c 1
 102 644 92 599 92 590 c 0
 92 564 134 546 134 518 c 0
 134 494 100 474 68 474 c 0
 61 474 40 478 31 485 c 1
 22 498 16 525 16 555 c 0
EndSplineSet
Validated: 1
EndChar

StartChar: quotedblright
Encoding: 8221 8221 207
Width: 332
Flags: W
HStem: 474 232
VStem: 86 76<550.941 626.355> 234 76<550.941 626.355>
LayerCount: 2
Fore
SplineSet
162 625 m 0
 162 531 61 474 52 474 c 0
 44 474 20 489 16 500 c 1
 76 536 86 581 86 590 c 0
 86 616 44 634 44 662 c 0
 44 686 78 706 110 706 c 0
 117 706 138 702 147 695 c 1
 156 682 162 655 162 625 c 0
310 625 m 0
 310 531 209 474 200 474 c 0
 192 474 168 489 164 500 c 1
 224 536 234 581 234 590 c 0
 234 616 192 634 192 662 c 0
 192 686 226 706 258 706 c 0
 265 706 286 702 295 695 c 1
 304 682 310 655 310 625 c 0
EndSplineSet
Validated: 1
EndChar

StartChar: quotedblbase
Encoding: 8222 8222 208
Width: 320
Flags: W
HStem: -108 232
VStem: 82 76<-31.059 44.3548> 230 76<-31.059 44.3548>
LayerCount: 2
Fore
SplineSet
158 43 m 0
 158 -51 57 -108 48 -108 c 0
 40 -108 16 -93 12 -82 c 1
 72 -46 82 -1 82 8 c 0
 82 34 40 52 40 80 c 0
 40 104 74 124 106 124 c 0
 113 124 134 120 143 113 c 1
 152 100 158 73 158 43 c 0
306 43 m 0
 306 -51 205 -108 196 -108 c 0
 188 -108 164 -93 160 -82 c 1
 220 -46 230 -1 230 8 c 0
 230 34 188 52 188 80 c 0
 188 104 222 124 254 124 c 0
 261 124 282 120 291 113 c 1
 300 100 306 73 306 43 c 0
EndSplineSet
Validated: 1
EndChar

StartChar: dagger
Encoding: 8224 8224 209
Width: 368
Flags: W
HStem: -10 21G<142 146 223.5 227> 360 72<33 148.997 220.003 336>
VStem: 149 71<108.542 359.924 432.076 621.817>
LayerCount: 2
Fore
SplineSet
229 -10 m 1
 218 -6 195 -5 184 -5 c 0
 173 -5 152 -6 140 -10 c 1
 144 135 149 205 149 350 c 0
 149 355 146 360 141 360 c 2
 136 360 l 2
 98 360 72 357 31 355 c 1
 32 364 33 384 33 393 c 0
 33 404 32 426 31 437 c 1
 72 435 98 432 136 432 c 2
 141 432 l 2
 145 432 149 436 149 440 c 0
 149 518 144 551 140 629 c 1
 152 627 173 625 184 625 c 0
 195 625 217 627 229 629 c 1
 225 551 220 518 220 440 c 0
 220 436 224 432 228 432 c 2
 232 432 l 2
 270 432 297 435 338 437 c 1
 337 426 336 404 336 393 c 0
 336 384 337 364 338 355 c 1
 297 357 270 360 232 360 c 2
 228 360 l 2
 223 360 220 355 220 350 c 0
 220 205 225 135 229 -10 c 1
EndSplineSet
Validated: 1
EndChar

StartChar: daggerdbl
Encoding: 8225 8225 210
Width: 369
Flags: W
HStem: -9 21G<142 146 223 227> 188 72<33 148.997 220.003 336> 360 72<33 148.997 220.003 336>
VStem: 149 71<-1.81659 187.924 260.076 359.924 432.076 621.817>
LayerCount: 2
Back
SplineSet
151 248 m 6
 158 248 159 253 159 275 c 6
 159 370 l 6
 159 375 156 379 151 379 c 4
 146 379 141 379 136 379 c 4
 98 379 73 376 31 374 c 5
 32 383 33 392 33 401 c 4
 33 412 32 424 31 435 c 5
 73 433 98 430 136 430 c 4
 141 430 146 430 151 430 c 4
 155 430 159 434 159 438 c 4
 159 513 154 554 150 629 c 5
 162 627 173 625 184 625 c 4
 195 625 207 627 219 629 c 5
 215 554 210 513 210 438 c 4
 210 434 214 430 218 430 c 6
 232 430 l 6
 270 430 296 433 338 435 c 5
 337 424 336 412 336 401 c 4
 336 392 337 383 338 374 c 5
 296 376 270 379 232 379 c 6
 218 379 l 6
 213 379 210 375 210 370 c 4
 210 332 210 294 210 256 c 4
 210 251 213 248 218 248 c 6
 338 253 l 5
 337 242 336 230 336 219 c 4
 336 210 337 200 338 191 c 5
 218 197 l 5
 213 196 211 192 210 186 c 5
 212 130 217 63 219 -10 c 5
 208 -6 195 -5 184 -5 c 4
 173 -5 162 -6 150 -10 c 5
 152 63 157 130 159 186 c 4
 159 191 156 197 151 197 c 6
 31 191 l 5
 32 200 33 210 33 219 c 4
 33 230 32 242 31 253 c 5
 151 248 l 6
EndSplineSet
Fore
SplineSet
220 270 m 0
 220 265 223 260 228 260 c 2
 232 260 l 2
 270 260 297 263 338 265 c 1
 337 256 336 236 336 227 c 0
 336 216 337 194 338 183 c 1
 297 185 270 188 232 188 c 2
 228 188 l 2
 224 188 220 184 220 180 c 0
 220 102 225 69 229 -9 c 1
 217 -7 195 -5 184 -5 c 0
 173 -5 152 -7 140 -9 c 1
 144 69 149 102 149 180 c 0
 149 184 145 188 141 188 c 2
 136 188 l 2
 98 188 72 185 31 183 c 1
 32 194 33 216 33 227 c 0
 33 236 32 256 31 265 c 1
 72 263 98 260 136 260 c 2
 141 260 l 2
 146 260 149 265 149 270 c 0
 149 415 149 205 149 350 c 0
 149 355 146 360 141 360 c 2
 136 360 l 2
 98 360 72 357 31 355 c 1
 32 364 33 384 33 393 c 0
 33 404 32 426 31 437 c 1
 72 435 98 432 136 432 c 2
 141 432 l 2
 145 432 149 436 149 440 c 0
 149 518 144 551 140 629 c 1
 152 627 173 625 184 625 c 0
 195 625 217 627 229 629 c 1
 225 551 220 518 220 440 c 0
 220 436 224 432 228 432 c 2
 232 432 l 2
 270 432 297 435 338 437 c 1
 337 426 336 404 336 393 c 0
 336 384 337 364 338 355 c 1
 297 357 270 360 232 360 c 2
 228 360 l 2
 223 360 220 355 220 350 c 0
 220 205 220 415 220 270 c 0
EndSplineSet
Validated: 1
EndChar

StartChar: bullet
Encoding: 8226 8226 211
Width: 409
Flags: W
HStem: 123 281<127.683 278.022>
VStem: 63 279<187.683 338.612>
LayerCount: 2
Fore
SplineSet
63 263 m 0
 63 340 126 404 203 404 c 0
 280 404 342 340 342 263 c 0
 342 186 280 123 203 123 c 0
 126 123 63 186 63 263 c 0
EndSplineSet
Validated: 1
EndChar

StartChar: onedotenleader
Encoding: 8228 8228 212
Width: 705
Flags: W
HStem: -11 150<303.192 404.5>
VStem: 279 147<12.5 117.5>
LayerCount: 2
Fore
SplineSet
426 66 m 0
 426 26 396 -11 355 -11 c 27
 313 -11 279 26 279 66 c 0
 279 106 312 139 353 139 c 27
 393 139 426 106 426 66 c 0
EndSplineSet
Validated: 1
EndChar

StartChar: ellipsis
Encoding: 8230 8230 213
Width: 785
Flags: W
HStem: -11 150<65.1921 166.5 343.192 444.5 621.192 722.5>
VStem: 41 147<12.5 117.5> 319 147<12.5 117.5> 597 147<12.5 117.5>
CounterMasks: 1 70
LayerCount: 2
Back
SplineSet
548 45 m 4
 548 77 573 102 605 102 c 4
 637 102 663 77 663 45 c 4
 663 13 637 -14 605 -14 c 4
 573 -14 548 13 548 45 c 4
296 45 m 4
 296 77 320 102 352 102 c 4
 384 102 410 77 410 45 c 4
 410 13 384 -14 352 -14 c 4
 320 -14 296 13 296 45 c 4
41 45 m 4
 41 77 65 102 97 102 c 4
 129 102 155 77 155 45 c 4
 155 13 129 -14 97 -14 c 4
 65 -14 41 13 41 45 c 4
EndSplineSet
Fore
SplineSet
744 66 m 0
 744 26 714 -11 673 -11 c 27
 631 -11 597 26 597 66 c 0
 597 106 630 139 671 139 c 27
 711 139 744 106 744 66 c 0
466 66 m 0
 466 26 436 -11 395 -11 c 27
 353 -11 319 26 319 66 c 0
 319 106 352 139 393 139 c 27
 433 139 466 106 466 66 c 0
188 66 m 0
 188 26 158 -11 117 -11 c 27
 75 -11 41 26 41 66 c 0
 41 106 74 139 115 139 c 27
 155 139 188 106 188 66 c 0
EndSplineSet
Validated: 1
Ligature2: "'liga' Standard Ligatures in Latin lookup 0-1" period period period
EndChar

StartChar: perthousand
Encoding: 8240 8240 214
Width: 1025
Flags: W
HStem: 1 37<450.188 523.918 795.188 868.918> 268 38<439.168 515.379 784.168 860.379> 337 38<153.188 226.918> 605 37<142.329 217.985>
VStem: 29 95<410.506 568.015> 247 97<412.639 565.364> 326 95<74.2093 231.8> 544 97<76.4355 230.254> 671 95<74.2093 231.8> 889 97<76.4355 230.254>
LayerCount: 2
Fore
SplineSet
819 268 m 24xf9c0
 777 268 766 216 766 174 c 24
 766 115 776 38 835 38 c 24
 876 38 889 89 889 130 c 24
 889 191 880 268 819 268 c 24xf9c0
671 153 m 0
 671 237 740 306 828 306 c 0
 916 306 986 237 986 153 c 0
 986 69 916 1 828 1 c 0
 740 1 671 69 671 153 c 0
176 605 m 24
 134 605 124 552 124 510 c 24
 124 451 134 375 193 375 c 24
 234 375 247 425 247 466 c 24xfdc0
 247 527 237 605 176 605 c 24
29 489 m 0
 29 573 98 642 186 642 c 0
 274 642 344 573 344 489 c 0
 344 405 274 337 186 337 c 0
 98 337 29 405 29 489 c 0
474 268 m 24
 432 268 421 216 421 174 c 24xfbc0
 421 115 431 38 490 38 c 24
 531 38 544 89 544 130 c 24
 544 191 535 268 474 268 c 24
326 153 m 0
 326 237 395 306 483 306 c 0
 571 306 641 237 641 153 c 0
 641 69 571 1 483 1 c 0
 395 1 326 69 326 153 c 0
611 629 m 1
 130 7 l 2
 125 1 109 -4 97 -4 c 0
 71 -4 59 5 58 10 c 1
 539 632 l 2
 544 638 552 646 558 646 c 0
 581 646 601 637 611 629 c 1
EndSplineSet
Validated: 1
EndChar

StartChar: minute
Encoding: 8242 8242 215
Width: 153
Flags: W
HStem: 484 215<52.5703 65.9338>
VStem: 32 104
LayerCount: 2
Fore
SplineSet
91 699 m 0
 111 699 136 687 136 667 c 0
 136 620 84 528 58 494 c 0
 54 489 48 484 44 484 c 0
 38 484 32 489 32 496 c 0
 32 499 39 612 47 666 c 0
 49 678 72 699 91 699 c 0
EndSplineSet
Validated: 1
EndChar

StartChar: second
Encoding: 8243 8243 216
Width: 299
Flags: W
HStem: 484 215<52.5703 65.9091 187.57 200.909>
VStem: 32 238
LayerCount: 2
Fore
SplineSet
226 699 m 0
 246 699 270 687 270 667 c 0
 270 620 219 528 193 494 c 0
 189 489 183 484 179 484 c 0
 173 484 167 489 167 496 c 0
 167 499 174 612 182 666 c 0
 184 678 207 699 226 699 c 0
91 699 m 0
 111 699 135 687 135 667 c 0
 135 620 84 528 58 494 c 0
 54 489 48 484 44 484 c 0
 38 484 32 489 32 496 c 0
 32 499 39 612 47 666 c 0
 49 678 72 699 91 699 c 0
EndSplineSet
Validated: 1
EndChar

StartChar: uni2038
Encoding: 8248 8248 217
Width: 386
Flags: W
HStem: -61 174
VStem: 79 250
LayerCount: 2
Back
SplineSet
311 -36 m 4
 298 -36 239 11 203 47 c 5
 171 10 109 -36 96 -36 c 4
 87 -36 87 -19 87 -19 c 5
 94 -9 155 31 191 100 c 5
 194 108 195 110 200 110 c 4
 219 110 210 95 258 41 c 4
 275 21 320 -15 322 -18 c 5
 322 -22 317 -36 311 -36 c 4
EndSplineSet
Fore
SplineSet
317 -61 m 0
 304 -61 242 -17 203 28 c 1
 167 -17 102 -61 89 -61 c 0
 81 -61 79 -37 79 -37 c 1
 84 -26 149 16 191 103 c 0
 194 110 192 113 199 113 c 0
 220 113 212 96 261 33 c 0
 280 9 327 -32 329 -36 c 1
 329 -39 324 -61 317 -61 c 0
EndSplineSet
Validated: 1
EndChar

StartChar: guilsinglleft
Encoding: 8249 8249 218
Width: 324
Flags: W
VStem: 44 248
LayerCount: 2
Fore
SplineSet
146 248 m 1
 164 231 188 206 218 177 c 0
 272 125 292 106 292 98 c 0
 292 86 263 74 257 73 c 1
 256 75 198 132 51 227 c 1
 46 229 44 235 44 241 c 0
 44 251 45 260 52 268 c 1
 183 347 253 419 258 423 c 1
 264 422 293 410 293 398 c 0
 293 390 273 371 219 319 c 0
 189 290 164 265 146 248 c 1
EndSplineSet
Validated: 1
EndChar

StartChar: guilsinglright
Encoding: 8250 8250 219
Width: 324
Flags: W
VStem: 44 249
LayerCount: 2
Fore
SplineSet
191 248 m 5
 173 265 148 290 118 319 c 4
 64 371 44 390 44 398 c 4
 44 410 73 422 79 423 c 5
 84 419 154 347 285 268 c 5
 292 260 293 251 293 241 c 4
 293 235 291 229 286 227 c 5
 139 132 81 75 80 73 c 5
 74 74 45 86 45 98 c 4
 45 106 65 125 119 177 c 4
 149 206 173 231 191 248 c 5
EndSplineSet
Validated: 1
EndChar

StartChar: uni203E
Encoding: 8254 8254 220
Width: 565
Flags: W
HStem: 734 72<-10.7805 578.903>
LayerCount: 2
Fore
SplineSet
-15 744 m 4
 -15 746 -12 806 -1 806 c 6
 581 806 l 6
 583 806 587 805 587 797 c 4
 587 779 580 745 579 741 c 4
 577 735 571 734 571 734 c 5
 -9 734 l 5
 -9 734 -15 734 -15 744 c 4
EndSplineSet
Validated: 1
EndChar

StartChar: Euro
Encoding: 8364 8364 221
Width: 662
Flags: HW
HStem: -6 51.8398<336.594 504.676> 238 57<24.6125 38 404 416.599> 352 57<24.6125 38 404 416.599> 587.28 53.7598<308.691 492.127>
VStem: 68.4004 149.76<249.813 391.96>
LayerCount: 2
Fore
SplineSet
38 295 m 1
 67 295 409 295 423 295 c 0
 427 295 426 284 424 278 c 0
 422 271 412 249 404 238 c 1
 375 238 32 238 18 238 c 0
 14 238 17 251 19 257 c 0
 21 264 28 284 38 295 c 1
38 409 m 1
 67 409 409 409 423 409 c 0
 427 409 426 398 424 392 c 0
 422 385 412 363 404 352 c 1
 375 352 32 352 18 352 c 0
 14 352 17 365 19 371 c 0
 21 378 28 398 38 409 c 1
385.2 641.04 m 0
 448.56 641.04 541.68 628.56 605.04 613.2 c 0
 612.72 611.28 624.24 480.72 624.24 471.12 c 0
 624.24 461.52 609.84 456.72 598.32 456.72 c 3
 593.52 456.72 587.76 458.64 582.96 459.6 c 1
 573.36 497.04 525.36 587.28 390 587.28 c 0
 254.64 587.28 218.16 464.4 218.16 330 c 0
 218.16 180.24 285.36 45.8398 420.72 45.8398 c 0
 478.32 45.8398 518.64 72.7197 543.6 97.6797 c 0
 572.4 126.48 583.92 183.12 587.76 183.12 c 3
 592.56 183.12 625.2 186.96 630.96 173.52 c 1
 630.96 162.96 606 39.1201 591.6 33.3604 c 0
 531.12 11.2803 463.92 -6 375.6 -6 c 0
 205.68 -6 68.4004 139.92 68.4004 309.84 c 0
 68.4004 489.36 202.8 641.04 385.2 641.04 c 0
EndSplineSet
EndChar

StartChar: arrowleft
Encoding: 8592 8592 222
Width: 769
Flags: W
HStem: 210 74<164 731.904>
LayerCount: 2
Fore
SplineSet
274 397 m 0
 274 389 254 370 200 318 c 0
 164 284 l 1
 733 284 l 1
 733 284 740 284 740 274 c 0
 740 256 733 221 732 217 c 0
 730 211 725 210 725 210 c 1
 163 210 l 1
 199 176 l 0
 253 124 273 105 273 97 c 0
 273 85 244 73 238 72 c 1
 237 74 179 131 32 226 c 1
 27 228 25 234 25 240 c 0
 25 250 26 259 33 267 c 1
 164 346 234 418 239 422 c 1
 245 421 274 409 274 397 c 0
EndSplineSet
Validated: 1
EndChar

StartChar: arrowup
Encoding: 8593 8593 223
Width: 392
Flags: W
HStem: 0 21G<213 227>
VStem: 158 74<5.20054 576>
LayerCount: 2
Fore
SplineSet
232 576 m 1
 232 6 l 1
 232 6 232 0 222 0 c 0
 204 0 170 7 166 8 c 0
 160 10 158 14 158 14 c 1
 158 577 l 1
 125 540 l 0
 73 486 53 466 45 466 c 0
 33 466 22 496 21 502 c 1
 23 503 80 561 175 708 c 1
 177 713 183 714 189 714 c 0
 199 714 207 713 215 706 c 1
 294 575 367 505 371 500 c 1
 370 494 357 466 345 466 c 0
 337 466 319 486 267 540 c 0
 232 576 l 1
EndSplineSet
Validated: 1
EndChar

StartChar: arrowright
Encoding: 8594 8594 224
Width: 769
Flags: W
HStem: 210 74<36.0959 604>
LayerCount: 2
Fore
SplineSet
604 284 m 1
 568 318 l 0
 514 370 494 389 494 397 c 0
 494 409 523 421 529 422 c 1
 534 418 604 346 735 267 c 1
 742 259 743 250 743 240 c 0
 743 234 741 228 736 226 c 1
 589 131 531 74 530 72 c 1
 524 73 495 85 495 97 c 0
 495 105 515 124 569 176 c 0
 605 210 l 1
 43 210 l 1
 43 210 38 211 36 217 c 0
 35 221 28 256 28 274 c 0
 28 284 35 284 35 284 c 1
 604 284 l 1
EndSplineSet
Validated: 1
EndChar

StartChar: arrowdown
Encoding: 8595 8595 225
Width: 395
Flags: W
HStem: 0 21G<199 207>
VStem: 161 74<138 708.799>
LayerCount: 2
Fore
SplineSet
161 138 m 1
 161 708 l 1
 161 708 161 714 171 714 c 0
 189 714 223 707 227 706 c 0
 233 704 235 700 235 700 c 1
 235 137 l 1
 268 174 l 0
 320 228 340 248 348 248 c 0
 360 248 371 218 372 212 c 1
 370 211 313 153 218 6 c 1
 216 1 210 0 204 0 c 0
 194 0 186 1 178 8 c 1
 99 139 26 209 22 214 c 1
 23 220 36 248 48 248 c 0
 56 248 74 228 126 174 c 0
 161 138 l 1
EndSplineSet
Validated: 1
EndChar

StartChar: universal
Encoding: 8704 8704 226
Width: 742
Flags: W
HStem: -9 21G<352 366> 385 60<315.001 465> 623 39<22.0007 75.8548 240.011 296.563 472.761 544.916 661.605 719.977>
LayerCount: 2
Fore
SplineSet
340 -1 m 1
 119 514 l 2
 103 551 97 569 88 589 c 0
 77 614 34 623 26 623 c 0
 23 623 22 636 22 642 c 0
 22 647 22 659 24 662 c 1
 64 660 112 654 156 654 c 0
 202 654 258 660 294 662 c 1
 299 657 299 623 294 623 c 0
 282 623 243 611 235 600 c 0
 233 597 232 595 232 589 c 0
 232 580 246 547 256 521 c 24
 267 493 285 450 285 450 c 1
 285 450 289 446 292 446 c 0
 330 444 365 445 390 445 c 0
 431 445 456 445 491 446 c 0
 494 446 497 449 498 451 c 1
 531 524 l 1
 543 548 552 569 552 586 c 0
 552 601 543 605 538 609 c 0
 524 620 483 625 475 625 c 0
 470 625 472 656 474 662 c 1
 514 660 539 656 583 656 c 0
 629 656 670 660 716 662 c 1
 718 660 720 653 720 647 c 0
 720 641 720 626 718 626 c 0
 706 626 646 602 636 584 c 0
 621 555 607 521 607 521 c 2
 409 72 l 0
 398 48 377 -9 355 -9 c 0
 349 -9 342 -4 340 -1 c 1
463 382 m 0
 443 384 413 385 390 385 c 0
 359 385 349 385 318 383 c 0
 316 383 315 378 315 378 c 1
 387 200 l 1
 465 378 l 1
 465 378 465 382 463 382 c 0
EndSplineSet
Validated: 33
EndChar

StartChar: partialdiff
Encoding: 8706 8706 227
Width: 460
Flags: W
HStem: 0 55<183.654 268.082> 317 53<173.164 273.188> 584 58<124.36 240.437>
VStem: 26 125<91.9379 272.861> 297 135<152.6 371.71>
LayerCount: 2
Fore
SplineSet
297 219 m 1
 297 303 249 317 211 317 c 0
 172 317 151 270 151 209 c 0
 151 91 188 55 230 55 c 0
 287 55 297 145 297 219 c 1
202 0 m 0
 104 0 26 60 26 194 c 0
 26 294 121 370 227 370 c 0
 249 370 267 369 290 361 c 0
 295 359 300 364 301 369 c 0
 305 399 299 502 263 542 c 0
 233 575 203 584 173 584 c 3
 131 584 86 552 60 534 c 1
 55 538 46 564 58 576 c 0
 88 606 154 642 216 642 c 3
 396 642 432 408 432 282 c 3
 432 82 306 0 202 0 c 0
EndSplineSet
Validated: 33
EndChar

StartChar: uni2206
Encoding: 8710 8710 228
Width: 673
Flags: W
HStem: 0 76<119.911 492>
LayerCount: 2
Fore
SplineSet
495 83 m 6
 315 443 l 5
 311 446 306 447 303 441 c 6
 120 87 l 5
 118 80 123 76 128 76 c 6
 492 76 l 6
 496 76 497 79 495 83 c 6
349 613 m 5
 651 14 l 5
 651 14 645 8 643 0 c 5
 32 0 l 5
 28 6 27 9 23 16 c 5
 332 613 l 5
 349 613 l 5
EndSplineSet
Validated: 1
EndChar

StartChar: gradient
Encoding: 8711 8711 229
Width: 672
Flags: W
HStem: 566 76<181 553.089>
LayerCount: 2
Fore
SplineSet
178 559 m 2
 358 199 l 1
 362 196 367 195 370 201 c 2
 553 555 l 1
 555 562 550 566 545 566 c 2
 181 566 l 2
 177 566 176 563 178 559 c 2
324 29 m 1
 22 628 l 1
 22 628 28 634 30 642 c 1
 641 642 l 1
 645 636 646 633 650 626 c 1
 341 29 l 1
 324 29 l 1
EndSplineSet
Validated: 1
EndChar

StartChar: element
Encoding: 8712 8712 230
Width: 452
Flags: W
HStem: 11 60<155.888 423.914> 189 61<101.004 379> 370 60<152.702 424.161>
VStem: 27 74<174.075 313.639>
LayerCount: 2
Fore
SplineSet
387 220 m 0
 387 193 379 189 378 189 c 2
 106 189 l 2
 105 189 100 188 101 185 c 0
 113 122 156 71 223 71 c 2
 411 71 l 2
 411 71 426 64 426 29 c 0
 426 20 419 11 419 11 c 1
 225 11 l 2
 113 11 27 109 27 221 c 0
 27 330 106 430 215 430 c 2
 419 430 l 1
 419 430 426 421 426 409 c 0
 426 378 411 370 411 370 c 1
 215 370 l 2
 152 370 112 317 101 255 c 0
 101 252 103 250 106 250 c 2
 379 250 l 1
 379 249 387 237 387 220 c 0
EndSplineSet
Validated: 1
EndChar

StartChar: notelement
Encoding: 8713 8713 231
Width: 451
Flags: W
HStem: -10 21G<113.5 117> 11 60<175.668 423.914> 189 61<101.004 173 270 379> 370 60<152.702 275 371 424.161>
VStem: 27 74<174.26 313.639>
LayerCount: 2
Fore
SplineSet
387 220 m 0xb8
 387 193 379 189 378 189 c 2
 235 189 l 1
 175 81 l 1
 189 75 205 71 223 71 c 2
 411 71 l 1
 411 71 426 64 426 29 c 0
 426 20 419 11 419 11 c 1
 225 11 l 2x78
 196 11 169 18 145 29 c 1
 125 -8 l 1
 122 -10 119 -10 115 -10 c 0
 112 -10 95 -6 82 10 c 0
 78 14 77 17 77 17 c 1
 100 58 l 1
 55 97 27 157 27 221 c 0
 27 330 106 430 215 430 c 2
 309 430 l 1
 339 484 l 1
 339 484 344 487 348 487 c 0
 360 487 371 479 379 470 c 0
 384 465 387 459 387 459 c 1
 371 430 l 1
 419 430 l 1
 419 430 426 421 426 409 c 0
 426 378 411 370 411 370 c 1
 337 370 l 1
 270 250 l 1
 379 250 l 1
 379 249 387 237 387 220 c 0xb8
208 250 m 1
 275 370 l 1
 215 370 l 2
 152 370 112 317 101 255 c 0
 101 252 103 250 106 250 c 2
 208 250 l 1
132 115 m 1
 173 189 l 1
 106 189 l 2
 105 189 100 188 101 185 c 0
 106 159 117 134 132 115 c 1
EndSplineSet
Validated: 1
EndChar

StartChar: summation
Encoding: 8721 8721 232
Width: 602
Flags: W
HStem: 0 21G<479.5 537.5> 2 29<23.0357 56.2613> 608 48<235.114 434.277> 627 29<23.0058 57.2492>
LayerCount: 2
Fore
SplineSet
534 0 m 1xa0
 425 0 236 2 145 2 c 0
 78 2 27 -3 27 -3 c 1
 25 -1 23 7 23 15 c 0
 23 23 25 31 27 31 c 0
 38 31 71 53 80 65 c 2
 263 306 l 2
 267 311 266 318 263 322 c 0
 250 342 156 490 79 592 c 0
 66 609 39 627 27 627 c 0
 25 627 23 634 23 641 c 0
 23 648 25 656 27 658 c 1
 27 658 76 656 143 656 c 0x50
 236 656 395 662 504 662 c 1
 511 612 526 556 535 511 c 1
 532 508 519 506 512 506 c 0
 505 506 500 508 498 513 c 0
 473 563 424 608 358 608 c 27
 336 608 330 608 302 608 c 0
 267 608 237 603 235 595 c 1
 400 360 l 1
 402 354 404 347 404 341 c 0
 404 336 402 332 399 329 c 0
 314 227 193 84 193 71 c 0
 193 64 196 60 264 60 c 0
 298 60 301 60 328 60 c 0
 380 60 442 65 471 80 c 0
 490 90 519 125 536 170 c 0
 537 174 543 176 550 176 c 0
 560 176 577 173 580 170 c 1
 561 116 541 44 534 0 c 1xa0
EndSplineSet
Validated: 1
EndChar

StartChar: minus
Encoding: 8722 8722 233
Width: 540
Flags: W
HStem: 209 74<34.9086 498.904>
LayerCount: 2
Fore
SplineSet
30 219 m 1
 30 219 34 283 44 283 c 2
 501 283 l 2
 504 283 508 283 508 276 c 0
 508 268 504 232 499 215 c 0
 497 209 492 209 492 209 c 1
 36 209 l 1
 36 209 30 209 30 219 c 1
EndSplineSet
Validated: 1
EndChar

StartChar: uni2213
Encoding: 8723 8723 234
Width: 531
Flags: W
HStem: 213 72<34.0959 228.999 301.001 494.904> 518 72<35.0959 489.652>
VStem: 229 72<17.3688 212.998 285 479.904>
LayerCount: 2
Fore
SplineSet
301 210 m 2
 301 26 l 1
 301 26 286 16 241 10 c 0
 238 10 237 10 235 10 c 0
 229 10 229 13 229 17 c 2
 229 208 l 2
 229 210 228 213 223 213 c 2
 32 213 l 1
 32 213 26 213 26 223 c 0
 26 227 27 256 34 280 c 0
 36 286 41 285 41 285 c 1
 224 285 l 2
 227 285 229 289 229 291 c 2
 229 473 l 1
 229 473 228 478 234 480 c 0
 258 487 287 488 291 488 c 0
 301 488 301 482 301 482 c 1
 301 290 l 2
 301 287 302 285 305 285 c 2
 497 285 l 2
 501 285 505 285 505 278 c 0
 505 269 501 241 495 219 c 0
 493 213 488 213 488 213 c 1
 305 213 l 2
 302 213 301 212 301 210 c 2
489 590 m 1
 489 590 499 591 497 579 c 0
 490 531 484 521 481 518 c 1
 33 518 l 1
 33 518 25 517 27 531 c 0
 29 545 29 565 35 585 c 0
 37 591 42 590 42 590 c 1
 489 590 l 1
EndSplineSet
Validated: 1
EndChar

StartChar: radical
Encoding: 8730 8730 235
Width: 562
Flags: W
LayerCount: 2
Fore
SplineSet
49 150 m 1
 36 157 23 174 23 185 c 0
 23 198 36 205 46 212 c 0
 79 235 181 312 195 324 c 0
 203 331 220 332 223 324 c 1
 233 292 235 280 246 254 c 2
 335 47 l 1
 343 90 483 791 483 791 c 1
 541 784 l 1
 541 784 380 -25 355 -153 c 1
 340 -171 312 -180 306 -180 c 0
 302 -180 298 -179 296 -175 c 2
 129 196 l 1
 49 150 l 1
EndSplineSet
Validated: 1
EndChar

StartChar: proportional
Encoding: 8733 8733 236
Width: 669
Flags: W
HStem: 37 73<161.536 282.964 572.688 632.984> 352 74<158.601 269.595 563.495 638.94>
VStem: 27 89<156.972 306.236>
LayerCount: 2
Back
SplineSet
108 229 m 4
 108 159 157 97 227 97 c 4
 293 97 345 172 388 218 c 4
 389 219 389 219 388 220 c 4
 355 259 290 362 220 362 c 4
 152 362 108 297 108 229 c 4
623 43 m 5
 492 43 424 180 413 180 c 6
 412 180 l 5
 359 117 299 41 200 41 c 4
 105 41 38 128 38 223 c 4
 38 332 123 422 232 422 c 4
 329 422 400 334 441 286 c 4
 442 284 446 283 447 285 c 4
 485 332 543 404 624 419 c 5
 626 419 l 6
 632 419 634 412 634 403 c 4
 634 388 628 367 628 367 c 5
 567 367 506 286 471 246 c 4
 470 245 469 244 470 243 c 4
 516 185 573 100 642 100 c 4
 648 100 650 96 650 91 c 4
 650 76 632 46 623 43 c 5
EndSplineSet
Fore
SplineSet
631 112 m 1
 640 112 642 101 642 90 c 3
 642 69 628 49 619 42 c 1
 488 42 417 162 406 162 c 2
 405 162 l 1
 352 99 291 37 193 37 c 0
 98 37 27 128 27 223 c 0
 27 332 117 426 226 426 c 0
 323 426 394 349 435 301 c 0
 436 299 440 298 441 300 c 0
 483 353 548 427 626 427 c 0
 633 427 644 396 644 373 c 0
 644 366 642 352 637 352 c 0
 633 352 627 352 620 352 c 0
 553 352 477 241 478 240 c 0
 500 210 555 112 631 112 c 1
116 229 m 0
 116 159 168 110 221 110 c 0
 287 110 340 187 364 218 c 0
 365 220 290 352 214 352 c 0
 160 352 116 297 116 229 c 0
EndSplineSet
Validated: 33
EndChar

StartChar: infinity
Encoding: 8734 8734 237
Width: 847
Flags: W
HStem: 39 74<158.438 286.022 578.825 689.791> 352 74<158.601 270.127 558.751 687.691>
VStem: 27 89<156.972 306.236> 730 89<157.867 306.308>
LayerCount: 2
Fore
SplineSet
621 357 m 0
 560 357 497 268 481 246 c 0
 480 245 480 245 481 244 c 0
 503 214 567 113 636 113 c 0
 687 113 730 166 730 233 c 0
 730 304 677 357 621 357 c 0
116 229 m 0
 116 159 168 110 221 110 c 0
 287 110 340 187 364 218 c 0
 365 219 365 219 364 220 c 0
 348 244 284 352 214 352 c 0
 160 352 116 297 116 229 c 0
226 426 m 0
 323 426 394 349 435 301 c 0
 436 299 440 298 441 300 c 0
 483 353 551 426 648 426 c 0
 743 426 819 337 819 242 c 0
 819 132 726 39 616 39 c 0
 485 39 417 162 406 162 c 2
 405 162 l 1
 352 99 291 37 193 37 c 0
 98 37 27 128 27 223 c 0
 27 332 117 426 226 426 c 0
EndSplineSet
Validated: 1
EndChar

StartChar: notequal
Encoding: 8800 8800 238
Width: 524
Flags: W
HStem: 109 72<37.0959 173 275 485.905> 251 72<33.2498 252 355 485.905>
LayerCount: 2
Fore
SplineSet
355 323 m 5
 492 323 l 2
 494 323 496 322 496 318 c 0
 496 309 492 279 486 257 c 0
 484 251 480 251 480 251 c 1
 314 251 l 1
 275 181 l 1
 488 181 l 2
 492 181 496 183 496 176 c 0
 496 167 492 137 486 115 c 0
 484 109 480 109 480 109 c 1
 235 109 l 1
 183 16 l 1
 180 14 177 14 173 14 c 0
 170 14 153 18 140 34 c 0
 136 38 135 41 135 41 c 1
 173 109 l 1
 35 109 l 1
 35 109 28 109 28 119 c 0
 28 123 30 152 37 176 c 0
 39 182 44 181 44 181 c 1
 213 181 l 1
 252 251 l 1
 35 251 l 1
 35 251 28 251 28 261 c 1
 28 261 31 303 38 318 c 0
 39 321 41 323 43 323 c 2
 293 323 l 1
 347 420 l 1
 347 420 352 423 356 423 c 0
 368 423 379 415 387 406 c 0
 392 401 395 395 395 395 c 1
 355 323 l 5
EndSplineSet
Validated: 1
EndChar

StartChar: lessequal
Encoding: 8804 8804 239
Width: 463
Flags: W
HStem: 6 56<37.0959 427.982>
LayerCount: 2
Fore
SplineSet
425 62 m 1
 425 62 434 63 432 51 c 0
 425 3 420 9 417 6 c 1
 35 6 l 1
 35 6 26 5 28 19 c 0
 30 33 31 37 37 57 c 0
 39 63 44 62 44 62 c 1
 425 62 l 1
440 136 m 0
 440 129 430 86 424 86 c 0
 423 86 421 87 419 88 c 2
 44 279 l 2
 29 287 26 301 26 318 c 0
 26 329 34 337 44 342 c 2
 413 529 l 2
 415 530 417 531 418 531 c 0
 421 531 428 521 435 484 c 0
 436 478 432 475 432 475 c 1
 106 310 l 1
 437 142 l 1
 437 142 440 141 440 136 c 0
EndSplineSet
Validated: 1
EndChar

StartChar: greaterequal
Encoding: 8805 8805 240
Width: 462
Flags: W
HStem: 6 56<31.6017 423.904>
LayerCount: 2
Fore
SplineSet
30 483 m 0
 30 501 42 531 46 531 c 0
 47 531 49 530 51 529 c 2
 421 342 l 2
 431 337 438 329 438 318 c 0
 438 301 436 287 421 279 c 2
 46 88 l 2
 41 86 40 82 35 95 c 0
 29 110 24 132 24 136 c 0
 24 140 27 142 27 142 c 1
 358 310 l 1
 33 475 l 1
 33 475 30 476 30 483 c 0
28 15 m 0
 28 16 32 62 43 62 c 2
 426 62 l 2
 428 62 432 61 432 54 c 0
 432 46 429 29 424 13 c 0
 422 7 417 6 417 6 c 1
 35 6 l 1
 35 6 28 5 28 15 c 0
EndSplineSet
Validated: 1
EndChar

StartChar: propersubset
Encoding: 8834 8834 241
Width: 453
Flags: W
HStem: 11 60<156.232 423.914> 370 60<152.702 424.161>
VStem: 27 70<134.796 309.161>
LayerCount: 2
Fore
SplineSet
215 370 m 2
 152 370 97 309 97 220 c 3
 97 130 156 71 223 71 c 2
 411 71 l 2
 411 71 426 64 426 29 c 0
 426 20 419 11 419 11 c 1
 225 11 l 2
 113 11 27 109 27 221 c 0
 27 330 106 430 215 430 c 2
 419 430 l 1
 419 430 426 421 426 409 c 0
 426 378 411 370 411 370 c 1
 215 370 l 2
EndSplineSet
Validated: 1
EndChar

StartChar: dotlessi
Encoding: 305 305 242
Width: 327
Flags: W
HStem: -4 34<29.3083 82.9115 244.816 295.082> 423 20G<223.5 228>
VStem: 98 130<43.8035 354.643>
LayerCount: 2
Fore
SplineSet
228 146 m 6
 228 112 229 83 236 55 c 4
 239 44 284 30 292 30 c 4
 297 30 296 2 294 -4 c 5
 253 -2 202 4 163 4 c 4
 121 4 74 -2 32 -4 c 5
 27 1 27 30 32 30 c 4
 44 30 88 44 91 55 c 4
 97 81 98 124 98 131 c 6
 98 277 l 2
 98 287 96 335 80 352 c 0
 64 370 25 371 25 375 c 0
 25 378 25 404 30 404 c 0
 56 404 176 428 213 440 c 0
 214 440 223 443 224 443 c 0
 232 443 239 431 239 426 c 0
 235 394 228 360 228 326 c 2
 228 146 l 6
EndSplineSet
Validated: 33
Substitution2: "'smcp' Lowercase to Small Capitals in Latin lookup 0 subtable" dotlessi.sc
EndChar

StartChar: uni0302
Encoding: 770 770 243
Width: 284
Flags: W
HStem: 493 168
VStem: 30 236
LayerCount: 2
Fore
SplineSet
257 493 m 0
 246 493 176 543 148 567 c 1
 120 543 50 493 39 493 c 0
 33 493 30 506 30 516 c 1
 37 523 54 540 96 594 c 0
 118 623 127 638 135 651 c 0
 139 658 142 661 148 661 c 27
 154 661 155 657 160 651 c 0
 171 636 179 622 197 599 c 0
 238 545 259 523 266 516 c 1
 266 506 263 493 257 493 c 0
EndSplineSet
Validated: 1
EndChar

StartChar: tildecomb
Encoding: 771 771 244
Width: 427
Flags: W
HStem: 517 58<241.284 339.301> 577 59<96.7484 194.432>
VStem: 61 311
LayerCount: 2
Fore
SplineSet
68 526 m 0
 61 526 61 541 61 546 c 0
 61 563 70 578 77 590 c 0
 98 620 118 636 148 636 c 0
 210 636 244 575 306 575 c 0
 334 575 354 626 366 626 c 0
 369 626 372 615 372 606 c 0
 372 593 364 573 357 561 c 0
 336 529 317 517 287 517 c 0
 224 517 191 577 128 577 c 0
 103 577 79 526 68 526 c 0
EndSplineSet
Validated: 1
EndChar

StartChar: AE.st01
Encoding: 63548 63548 245
Width: 1009
Flags: W
HStem: -4 36<27.013 90.5938 209.676 274.239 460.478 510.329> 2 52<669.598 868.746> 213 60<340.906 498.594> 304 55<643.172 791.425> 610 54<658.391 808.924> 610 46<616.436 752.978> 626 36<437.534 481.14>
VStem: 483 134<551.672 607.918> 807 37<365.954 427.85> 940 44<123.672 175.484>
LayerCount: 2
Fore
SplineSet
483 598 m 0xb1c0
 483 625 455 626 449 626 c 0
 440 626 437 643 437 650 c 0
 437 657 438 662 440 662 c 0xb3c0
 461 662 472 656 539 656 c 0x35c0
 632 656 769 664 878 664 c 1
 890 614 909 561 922 516 c 1
 919 513 907 511 900 511 c 0
 893 511 887 513 885 518 c 0
 855 568 789 610 736 610 c 2
 681 610 l 2
 640 610 618 609 617 597 c 0
 615 578 618 542 620 519 c 2
 635 365 l 2
 635 360 657 359 679 359 c 2
 732 359 l 2
 791 359 797 355 807 421 c 0
 808 426 815 428 822 428 c 0
 829 428 841 426 844 423 c 1
 863 234 l 1
 861 232 849 230 842 230 c 0
 835 230 828 233 826 238 c 0
 805 295 802 290 792 296 c 0
 780 303 751 304 713 304 c 0
 685 304 641 304 642 295 c 2
 657 141 l 2
 659 122 663 90 672 70 c 0
 677 58 700 54 742 54 c 2
 768 54 l 2
 806 54 849 65 877 80 c 0
 895 90 927 125 940 170 c 0
 941 174 947 176 954 176 c 0
 964 176 981 173 984 170 c 1
 970 116 950 42 947 -2 c 1
 838 -2 696 2 605 2 c 0x79c0
 548 2 465 -4 465 -4 c 1
 463 -2 461 5 460 13 c 0
 459 21 460 32 462 32 c 0
 474 32 511 44 514 55 c 1
 518 78 514 99 511 134 c 0
 508 170 506 178 502 207 c 0
 502 210 498 211 495 211 c 0
 458 213 428 213 403 213 c 0
 362 213 337 213 302 212 c 0
 299 212 295 209 293 207 c 1
 293 207 258 161 236 131 c 0
 218 105 204 89 194 71 c 0
 189 62 204 50 209 46 c 0
 223 35 264 30 272 30 c 0
 277 30 275 2 273 -4 c 1xb1c0
 233 -2 208 2 164 2 c 0x71c0
 118 2 77 -2 31 -4 c 1
 29 -2 27 5 27 11 c 0
 27 17 27 29 29 29 c 0
 41 29 89 39 111 67 c 0
 129 91 142 109 160 134 c 0
 423 494 l 2
 462 547 483 589 483 598 c 0xb1c0
500 280 m 0
 500 280 489 398 482 474 c 25
 427 397 334 276 340 276 c 0
 359 276 399 273 422 273 c 0
 453 273 463 273 495 275 c 0
 497 275 500 277 500 280 c 0
EndSplineSet
Validated: 33
EndChar

StartChar: f_f
Encoding: 61696 61696 246
Width: 800
Flags: W
HStem: -4 37<26.4365 86.3777 245.119 303.998 336.437 396.378 555.119 613.997> 370 60<45.625 101 231 411 541 657.231> 620 62<268.999 384.029> 634 62<581.103 659.645>
VStem: 101 130<46.8035 369.997 430.002 538.141> 411 130<46.8035 369.997 430.055 527.766> 420 120<430.055 580.137>
LayerCount: 2
Fore
SplineSet
411 134 m 6xdc
 411 134 411 274 411 363 c 0
 411 366 409 370 406 370 c 2
 237 370 l 2
 234 370 231 367 231 364 c 0
 231 274 231 149 231 149 c 6
 231 115 231 85 238 58 c 4
 241 47 293 33 301 33 c 4
 306 33 305 2 303 -4 c 5
 262 -2 205 4 166 4 c 4
 124 4 71 -2 29 -4 c 5
 24 1 24 33 29 33 c 4
 41 33 91 47 94 58 c 4
 100 84 101 127 101 134 c 6
 101 134 101 274 101 363 c 0
 101 366 99 370 96 370 c 2
 43 370 l 2
 41 370 40 372 40 376 c 0
 40 389 50 430 55 430 c 2
 96 430 l 2
 99 430 101 433 101 436 c 2
 101 443 l 0
 101 580 227 682 337 682 c 0xec
 398 682 468 675 501 642 c 1
 535 676 609 696 653 696 c 0
 714 696 758 679 768 662 c 1
 777 627 782 565 724 565 c 0
 674 565 667 634 621 634 c 0
 574 634 538 551 540 475 c 2xda
 541 434 l 2
 541 432 544 429 546 429 c 2
 657 429 l 2
 662 429 662 428 662 422 c 0
 662 413 657 384 650 370 c 1
 547 370 l 2
 544 370 541 367 541 364 c 0
 541 274 541 149 541 149 c 6
 541 115 541 85 548 58 c 4
 551 47 603 33 611 33 c 4
 616 33 615 2 613 -4 c 5
 572 -2 515 4 476 4 c 4
 434 4 381 -2 339 -4 c 5
 334 1 334 33 339 33 c 4
 351 33 401 47 404 58 c 4
 410 84 411 127 411 134 c 6xdc
419 516 m 0
 419 519 420 523 420 528 c 0xea
 420 536 414 557 411 562 c 0
 401 578 378 620 336 620 c 0
 251 620 228 551 230 475 c 2
 231 434 l 2
 231 432 233 430 235 430 c 2
 406 430 l 2
 409 430 411 433 411 436 c 2
 411 437 l 0
 411 456 417 501 419 516 c 0
EndSplineSet
Validated: 33
LCarets2: 1 338 
Ligature2: "'liga' Standard Ligatures in Latin lookup 0-1" f f
EndChar

StartChar: f_i
Encoding: 61697 61697 247
Width: 649
Flags: W
HStem: -4 37<26.4365 86.3777 245.119 303.998 342.437 402.378 561.119 619.997> 372 57<45.0468 101 231 401.159> 424 20G<542.5 547> 542 154<419.104 514.871> 634 62<283.921 387.761>
VStem: 101 130<46.8035 371.997 430.055 534.844> 403 144<563.625 617.911> 417 130<46.8035 357.229>
LayerCount: 2
Fore
SplineSet
417 134 m 2xa5
 417 278 l 2
 417 288 415 336 399 353 c 0
 383 371 368 372 340 372 c 0
 237 372 l 2
 234 372 231 369 231 366 c 0
 231 276 231 149 231 149 c 2
 231 115 231 85 238 58 c 0
 241 47 293 33 301 33 c 0
 306 33 305 2 303 -4 c 1
 262 -2 205 4 166 4 c 0
 124 4 71 -2 29 -4 c 1
 24 1 24 33 29 33 c 0
 41 33 91 47 94 58 c 0
 100 84 101 127 101 134 c 2
 101 134 101 276 101 365 c 0
 101 368 99 372 96 372 c 2
 43 372 l 2
 41 372 40 374 40 378 c 0
 40 391 50 430 55 430 c 2
 96 430 l 2
 99 430 101 433 101 436 c 2
 101 440 l 0
 101 570 223 696 371 696 c 0xcd
 432 696 457 693 473 690 c 0
 515 683 547 657 547 616 c 0
 547 575 514 542 473 542 c 0x96
 439 542 414 562 403 588 c 0
 392 613 373 634 333 634 c 0
 275 634 228 551 230 475 c 2
 231 434 l 2
 231 432 234 429 236 429 c 2
 445 429 l 2xce
 450 429 499 430 531 441 c 0
 532 441 542 444 543 444 c 0
 551 444 557 432 557 427 c 0
 553 395 547 361 547 327 c 2
 547 149 l 2
 546 115 547 85 554 58 c 0
 557 47 609 33 617 33 c 0
 622 33 621 2 619 -4 c 1
 578 -2 521 4 482 4 c 0
 440 4 387 -2 345 -4 c 1
 340 1 340 33 345 33 c 0
 357 33 407 47 410 58 c 0
 416 84 417 127 417 134 c 2xa5
EndSplineSet
Validated: 33
LCarets2: 1 0 
Ligature2: "'liga' Standard Ligatures in Latin lookup 0-1" f i
EndChar

StartChar: f_f_i
Encoding: 61698 61698 248
Width: 953
Flags: W
HStem: -4 37<26.4365 86.3777 245.119 303.998 336.437 396.378 555.119 613.997 658.572 715.559 869.194 923.808> 370 60<45.625 101 231 411 541 712.499> 424 20G<852.5 857> 542 154<729.104 824.871> 620 62<268.999 384.029> 634 62<592.892 698.189>
VStem: 101 130<46.8035 369.997 430.002 538.141> 411 130<46.8035 369.881 430.055 527.766> 420 120<430.055 571.145> 713 144<563.625 617.911> 727 130<44.8035 357.229>
LayerCount: 2
Fore
SplineSet
336 620 m 0xcb
 251 620 228 551 230 475 c 2
 231 434 l 2
 231 432 233 430 235 430 c 2
 406 430 l 2
 409 430 411 433 411 436 c 2
 411 437 l 0xcb
 411 456 417 501 419 516 c 0
 419 519 420 523 420 528 c 0xca80
 420 536 414 557 411 562 c 0
 401 578 378 620 336 620 c 0xcb
411 134 m 2
 411 134 411 274 411 363 c 0
 411 366 409 370 406 370 c 2
 237 370 l 2
 234 370 231 367 231 364 c 0
 231 274 231 149 231 149 c 2
 231 115 231 85 238 58 c 0
 241 47 293 33 301 33 c 0
 306 33 305 2 303 -4 c 1
 262 -2 205 4 166 4 c 0
 124 4 71 -2 29 -4 c 1
 24 1 24 33 29 33 c 0
 41 33 91 47 94 58 c 0
 100 84 101 127 101 134 c 2
 101 134 101 274 101 363 c 0
 101 366 99 370 96 370 c 2
 43 370 l 2
 41 370 40 372 40 376 c 0
 40 389 50 430 55 430 c 2
 96 430 l 2
 99 430 101 433 101 436 c 2
 101 443 l 0
 101 580 227 682 337 682 c 0xcb20
 398 682 468 675 501 642 c 1
 535 676 635 696 679 696 c 0x8720
 741 696 767 693 783 690 c 0
 825 683 857 657 857 616 c 0
 857 575 824 542 783 542 c 0x9340
 749 542 724 562 713 588 c 0
 702 613 683 634 643 634 c 0
 585 634 538 551 540 475 c 2x86c0
 541 434 l 2
 541 432 544 429 546 429 c 2
 755 429 l 2
 760 429 809 430 841 441 c 0
 842 441 852 444 853 444 c 0
 861 444 867 432 867 427 c 0
 863 395 857 361 857 327 c 2
 857 147 l 2
 857 113 858 84 865 56 c 0
 868 45 913 31 921 31 c 0
 926 31 925 3 923 -3 c 1
 882 -1 830 5 791 5 c 0
 749 5 703 -1 661 -3 c 1
 656 2 656 31 661 31 c 0
 673 31 716 45 719 56 c 0
 725 82 727 125 727 132 c 2
 727 278 l 2xa720
 727 288 725 336 709 353 c 0
 693 371 678 372 650 372 c 0
 547 372 l 2
 544 372 541 369 541 365 c 0
 541 275 541 149 541 149 c 2
 541 115 541 85 548 58 c 0
 551 47 603 33 611 33 c 0
 616 33 615 2 613 -4 c 1
 572 -2 515 4 476 4 c 0
 434 4 381 -2 339 -4 c 1
 334 1 334 33 339 33 c 0
 351 33 401 47 404 58 c 0
 410 84 411 127 411 134 c 2
EndSplineSet
Validated: 33
LCarets2: 2 314 626 
Ligature2: "'liga' Standard Ligatures in Latin lookup 0-1" f f i
EndChar

StartChar: f_l
Encoding: 61699 61699 249
Width: 649
Flags: W
HStem: -4 37<26.4365 86.3777 245.119 303.998 342.437 402.378 561.119 619.997> 372 57<45.0468 101 231 347.454> 634 62<283.921 388.102>
VStem: 101 130<46.8035 371.997 430.055 534.844> 417 130<46.8035 602.315>
LayerCount: 2
Fore
SplineSet
417 134 m 2
 417 515 l 2
 417 543 415 561 403 588 c 16
 392 613 373 634 333 634 c 0
 275 634 228 551 230 475 c 2
 231 434 l 2
 231 432 234 429 236 429 c 2
 347 429 l 2
 352 429 352 428 352 422 c 0
 352 413 347 386 340 372 c 1
 237 372 l 2
 234 372 231 369 231 366 c 0
 231 276 231 149 231 149 c 2
 231 115 231 85 238 58 c 0
 241 47 293 33 301 33 c 0
 306 33 305 2 303 -4 c 1
 262 -2 205 4 166 4 c 0
 124 4 71 -2 29 -4 c 1
 24 1 24 33 29 33 c 0
 41 33 91 47 94 58 c 0
 100 84 101 127 101 134 c 2
 101 134 101 276 101 365 c 0
 101 368 99 372 96 372 c 2
 43 372 l 2
 41 372 40 374 40 378 c 0
 40 391 50 430 55 430 c 2
 96 430 l 2
 99 430 101 433 101 436 c 2
 101 440 l 0
 101 570 223 696 371 696 c 0
 395 696 420 678 436 678 c 0
 477 678 540 695 543 695 c 2
 545 695 l 2
 551 695 557 683 558 678 c 1
 558 678 547 633 547 577 c 2
 547 149 l 2
 547 115 547 85 554 58 c 0
 557 47 609 33 617 33 c 0
 622 33 621 2 619 -4 c 1
 578 -2 521 4 482 4 c 0
 440 4 387 -2 345 -4 c 1
 340 1 340 33 345 33 c 0
 357 33 407 47 410 58 c 0
 416 84 417 127 417 134 c 2
EndSplineSet
Validated: 33
LCarets2: 1 0 
Ligature2: "'liga' Standard Ligatures in Latin lookup 0-1" f l
EndChar

StartChar: f_f_l
Encoding: 61700 61700 250
Width: 952
Flags: W
HStem: -4 37<26.4365 86.3777 245.119 303.998 336.437 396.378 555.119 613.997 658.572 715.559 869.194 923.808> 370 60<45.625 101 231 411 541 657.231> 620 62<268.999 384.029> 634 62<593.69 698.102>
VStem: 101 130<46.8035 369.997 430.002 538> 411 130<46.8035 369.997 430.055 527.766> 420 120<434 571.145> 727 130<44.8035 602.315>
LayerCount: 2
Fore
SplineSet
541 149 m 2xdd
 541 115 541 85 548 58 c 0
 551 47 603 33 611 33 c 0
 616 33 615 2 613 -4 c 1
 572 -2 515 4 476 4 c 0
 434 4 381 -2 339 -4 c 1
 334 1 334 33 339 33 c 0
 351 33 401 47 404 58 c 0
 410 84 411 127 411 134 c 2
 411 134 411 274 411 363 c 0
 411 366 409 370 406 370 c 2
 236 370 l 2
 232 370 231 367 231 364 c 0
 231 274 231 149 231 149 c 2
 231 115 231 85 238 58 c 0
 241 47 293 33 301 33 c 0
 306 33 305 2 303 -4 c 1
 262 -2 205 4 166 4 c 0
 124 4 71 -2 29 -4 c 1
 24 1 24 33 29 33 c 0
 41 33 91 47 94 58 c 0
 100 84 101 127 101 134 c 2
 101 134 101 274 101 363 c 0
 101 366 99 370 96 370 c 2
 43 370 l 2
 41 370 40 372 40 376 c 0
 40 389 50 430 55 430 c 2
 96 430 l 2
 99 430 101 433 101 436 c 2
 101 443 l 0
 101 580 227 681 337 682 c 0xed
 398 682 468 675 501 642 c 1
 535 676 586 696 681 696 c 0
 705 696 730 678 746 678 c 0
 787 678 846 695 855 695 c 0
 861 695 867 683 868 678 c 1
 868 678 857 633 857 577 c 2
 857 146 l 2
 857 112 858 84 865 56 c 0
 868 45 913 31 921 31 c 0
 926 31 925 3 923 -3 c 1
 882 -1 830 5 791 5 c 0
 749 5 703 -1 661 -3 c 1
 656 2 656 31 661 31 c 0
 673 31 716 45 719 56 c 0
 725 82 727 124 727 131 c 2
 727 515 l 2
 727 543 725 561 713 588 c 16
 702 613 683 634 643 634 c 0
 585 634 538 551 540 475 c 2xdb
 541 434 l 2
 541 432 544 429 546 429 c 2
 657 429 l 2
 662 429 662 428 662 422 c 0
 662 413 657 384 650 370 c 1
 547 370 l 2
 544 370 541 367 541 364 c 0
 541 274 541 149 541 149 c 2xdd
336 620 m 0
 251 619 228 551 230 475 c 2
 231 434 l 2
 231 432 231 430 236 430 c 2
 406 430 l 2
 409 430 411 432 411 435 c 2
 411 437 l 0xed
 411 456 417 501 419 516 c 0
 419 519 420 523 420 528 c 0xeb
 420 536 414 557 411 562 c 0
 401 578 378 620 336 620 c 0
EndSplineSet
Validated: 33
LCarets2: 2 0 0 
Ligature2: "'liga' Standard Ligatures in Latin lookup 0-1" f f l
EndChar

StartChar: f_b
Encoding: 61701 61701 251
Width: 884
Flags: W
HStem: -8 55<564.837 680.157> -4 37<27.7256 86.3777 245.119 303.448> 372 57<45.0468 101 231 347.454> 377 72<574.29 672.48> 634 62<283.921 388.102>
VStem: 101 130<46.8035 371.997 430.055 534.844> 417 130<65.375 357.882 410.779 602.315> 715 142<128.381 324.312>
LayerCount: 2
Fore
SplineSet
101 134 m 2x6f
 101 134 101 276 101 365 c 0
 101 368 99 372 96 372 c 2
 43 372 l 2x6f
 41 372 40 374 40 378 c 0
 40 391 50 430 55 430 c 2
 96 430 l 2
 99 430 101 433 101 436 c 2
 101 440 l 0
 101 570 223 696 371 696 c 0
 395 696 420 678 436 678 c 0
 477 678 536 695 545 695 c 0
 551 695 557 683 558 678 c 1
 558 678 547 633 547 577 c 2
 547 424 l 2
 547 419 547 406 553 411 c 0
 568 423 599 449 649 449 c 0
 769 449 857 370 857 232 c 0
 857 94 755 -8 625 -8 c 0x9f
 539 -8 554 10 496 10 c 0
 478 10 450 -9 444 -9 c 2
 438 -9 l 1
 431 -4 406 6 409 17 c 0
 417 49 417 77 417 128 c 2
 417 515 l 0
 417 543 415 561 403 588 c 16
 392 613 373 634 333 634 c 0
 275 634 228 551 230 475 c 2
 231 434 l 2
 231 432 234 429 236 429 c 2
 347 429 l 2
 352 429 352 428 352 422 c 0
 352 413 347 386 340 372 c 1
 237 372 l 2
 234 372 231 369 231 366 c 0
 231 276 231 149 231 149 c 2
 231 115 231 85 238 58 c 0
 241 47 293 33 301 33 c 0
 306 33 305 2 303 -4 c 1
 262 -2 205 4 166 4 c 0
 124 4 71 -2 29 -4 c 1
 24 1 24 33 29 33 c 0
 41 33 91 47 94 58 c 0
 100 84 101 127 101 134 c 2x6f
547 308 m 2
 547 113 l 2
 547 82 565 47 634 47 c 0
 693 47 715 115 715 197 c 0
 715 297 683 377 632 377 c 0x9f
 580 377 547 352 547 308 c 2
EndSplineSet
Validated: 33
LCarets2: 1 0 
Ligature2: "'liga' Standard Ligatures in Latin lookup 0-1" f b
EndChar

StartChar: f_f_b
Encoding: 61702 61702 252
Width: 1194
Flags: W
HStem: -8 55<874.837 990.157> -4 37<27.7256 86.3777 245.119 303.448 337.726 396.378 555.119 613.448> 370 60<45.625 101 231 411 541 657.231> 377 72<884.29 982.48> 620 62<268.999 384.029> 634 62<593.69 698.102>
VStem: 101 130<46.8035 369.997 430.002 538> 411 130<46.8035 369.997 430.055 527.766> 420 120<430.055 571.145> 727 130<65.375 357.882 410.779 602.315> 1025 142<128.381 324.312>
LayerCount: 2
Fore
SplineSet
411 134 m 2x6760
 411 134 411 274 411 363 c 0
 411 366 409 370 406 370 c 2
 236 370 l 2
 232 370 231 367 231 364 c 0
 231 274 231 149 231 149 c 2
 231 115 231 85 238 58 c 0
 241 47 293 33 301 33 c 0
 306 33 305 2 303 -4 c 1
 262 -2 205 4 166 4 c 0
 124 4 71 -2 29 -4 c 1
 24 1 24 33 29 33 c 0
 41 33 91 47 94 58 c 0
 100 84 101 127 101 134 c 2
 101 134 101 274 101 363 c 0
 101 366 99 370 96 370 c 2
 43 370 l 2
 41 370 40 372 40 376 c 0
 40 389 50 430 55 430 c 2
 96 430 l 2
 99 430 101 433 101 436 c 2
 101 443 l 0
 101 580 227 681 337 682 c 0x6b60
 398 682 468 675 501 642 c 1
 535 676 586 696 681 696 c 0
 705 696 730 678 746 678 c 0
 787 678 846 695 855 695 c 0
 861 695 867 683 868 678 c 1
 868 678 857 633 857 577 c 2
 857 424 l 2
 857 419 857 406 863 411 c 0
 878 423 909 449 959 449 c 0
 1079 449 1167 370 1167 232 c 0
 1167 94 1065 -8 935 -8 c 0
 849 -8 864 10 806 10 c 0
 788 10 760 -9 754 -9 c 2
 748 -9 l 1
 741 -4 716 6 719 17 c 0
 727 49 727 77 727 128 c 2
 727 515 l 0
 727 543 725 561 713 588 c 16
 702 613 683 634 643 634 c 0
 585 634 538 551 540 475 c 2x96e0
 541 434 l 2
 541 432 544 429 546 429 c 2
 657 429 l 2
 662 429 662 428 662 422 c 0
 662 413 657 384 650 370 c 1
 547 370 l 2
 544 370 541 367 541 364 c 0
 541 274 541 149 541 149 c 2
 541 115 541 85 548 58 c 0
 551 47 603 33 611 33 c 0
 616 33 615 2 613 -4 c 1
 572 -2 515 4 476 4 c 0
 434 4 381 -2 339 -4 c 1
 334 1 334 33 339 33 c 0
 351 33 401 47 404 58 c 0
 410 84 411 127 411 134 c 2x6760
857 308 m 2
 857 113 l 2
 857 82 875 47 944 47 c 0
 1003 47 1025 115 1025 197 c 0
 1025 297 993 377 942 377 c 0x9260
 890 377 857 352 857 308 c 2
336 620 m 0x2b60
 251 619 228 551 230 475 c 2
 231 434 l 2
 231 432 231 430 236 430 c 2
 406 430 l 2
 409 430 411 432 411 435 c 2
 411 437 l 0x2b60
 411 456 417 501 419 516 c 0
 419 519 420 523 420 528 c 0x2ae0
 420 536 414 557 411 562 c 0
 401 578 378 620 336 620 c 0x2b60
EndSplineSet
Validated: 33
LCarets2: 2 0 0 
Ligature2: "'liga' Standard Ligatures in Latin lookup 0-1" f f b
EndChar

StartChar: f_k
Encoding: 61703 61703 253
Width: 961
Flags: W
HStem: -4 37<26.572 84.1588 247.389 303.987 342.437 402.378 561.119 619.906 666.437 704.982 872.507 929.994> 372 57<45.0468 101 231 347.454> 405 35<652.036 698.971 814.137 876.596> 634 62<283.921 388.102>
VStem: 101 130<47.8035 371.997 430.055 534.844> 417 130<46.8035 213 259 602.315>
LayerCount: 2
Fore
SplineSet
231 150 m 2xdc
 231 116 231 86 238 59 c 0
 241 48 293 34 301 34 c 0
 306 34 305 3 303 -3 c 1
 262 -1 205 5 166 5 c 0
 124 5 71 -1 29 -3 c 1
 24 2 24 34 29 34 c 0
 41 34 91 48 94 59 c 0
 100 85 101 128 101 135 c 2
 101 135 101 276 101 365 c 0
 101 368 99 372 96 372 c 2
 43 372 l 2xdc
 41 372 40 374 40 378 c 0
 40 391 50 430 55 430 c 2
 96 430 l 2
 99 430 101 433 101 436 c 2
 101 440 l 0
 101 570 223 696 371 696 c 0
 395 696 420 678 436 678 c 0
 477 678 536 695 545 695 c 0
 551 695 557 683 558 678 c 1
 558 678 547 633 547 577 c 2
 547 259 l 1
 555 261 573 265 581 272 c 0
 670 349 699 368 699 388 c 0
 699 408 659 401 653 405 c 1
 650 414 650 439 655 441 c 1
 655 441 727 440 769 440 c 0
 805 440 828 440 873 442 c 1
 881 437 877 405 874 405 c 0xbc
 845 405 816 389 804 382 c 0
 783 370 722 330 667 273 c 1
 742 192 834 79 861 59 c 1
 881 42 917 33 925 33 c 0
 928 33 930 21 930 14 c 0
 930 9 929 -1 928 -3 c 1
 888 -1 840 3 802 3 c 0
 761 3 710 -2 669 -4 c 1
 664 1 664 33 669 33 c 0
 680 33 705 39 705 46 c 0
 705 47 705 48 704 49 c 2
 558 216 l 1
 547 213 l 1
 547 149 l 2
 547 115 547 85 554 58 c 0
 557 47 609 33 617 33 c 0
 622 33 621 2 619 -4 c 1
 578 -2 521 4 482 4 c 0
 440 4 387 -2 345 -4 c 1
 340 1 340 33 345 33 c 0
 357 33 407 47 410 58 c 0
 416 84 417 127 417 134 c 2
 417 515 l 2
 417 542 415 561 403 588 c 16
 392 613 373 634 333 634 c 0
 275 634 228 551 230 475 c 2
 231 434 l 2
 231 432 234 429 236 429 c 2
 347 429 l 2
 352 429 352 428 352 422 c 0
 352 413 347 386 340 372 c 1
 237 372 l 2
 234 372 231 369 231 366 c 0
 231 276 231 150 231 150 c 2xdc
EndSplineSet
Validated: 33
LCarets2: 1 0 
Ligature2: "'liga' Standard Ligatures in Latin lookup 0-1" f k
EndChar

StartChar: f_f_k
Encoding: 61704 61704 254
Width: 1271
Flags: W
HStem: -4 37<26.4365 86.3777 245.119 303.998 336.437 396.378 555.119 613.997 652.437 712.378 871.119 929.997 976.437 1014.98 1182.51 1239.99> 370 60<45.625 101 231 411 541 657.231> 405 35<962.036 1008.97 1124.14 1186.6> 620 62<268.999 384.029> 634 62<593.69 698.102>
VStem: 101 130<46.8035 369.997 430.002 538> 411 130<46.8035 369.997 430.055 527.766> 420 120<430.055 571.145> 727 130<46.8035 213 259 602.315>
LayerCount: 2
Fore
SplineSet
727 515 m 2xae80
 727 542 725 561 713 588 c 16
 702 613 683 634 643 634 c 0
 585 634 538 551 540 475 c 2xad80
 541 434 l 2
 541 432 544 429 546 429 c 2
 657 429 l 2
 662 429 662 428 662 422 c 0
 662 413 657 384 650 370 c 1
 547 370 l 2
 544 370 541 367 541 364 c 0
 541 274 541 149 541 149 c 2
 541 115 541 85 548 58 c 0
 551 47 603 33 611 33 c 0
 616 33 615 2 613 -4 c 1
 572 -2 515 4 476 4 c 0
 434 4 381 -2 339 -4 c 1
 334 1 334 33 339 33 c 0
 351 33 401 47 404 58 c 0
 410 84 411 127 411 134 c 2
 411 134 411 274 411 363 c 0
 411 366 409 370 406 370 c 2
 236 370 l 2
 232 370 231 367 231 364 c 0
 231 274 231 149 231 149 c 2
 231 115 231 85 238 58 c 0
 241 47 293 33 301 33 c 0
 306 33 305 2 303 -4 c 1
 262 -2 205 4 166 4 c 0
 124 4 71 -2 29 -4 c 1
 24 1 24 33 29 33 c 0
 41 33 91 47 94 58 c 0
 100 84 101 127 101 133 c 2
 101 133 101 274 101 363 c 0
 101 366 99 370 96 370 c 2
 43 370 l 2
 41 370 40 372 40 376 c 0
 40 389 50 430 55 430 c 2
 96 430 l 2
 99 430 101 433 101 436 c 2
 101 443 l 0
 101 580 227 681 337 682 c 0xd680
 398 682 468 675 501 642 c 1
 535 676 586 696 681 696 c 0
 705 696 730 678 746 678 c 0
 787 678 846 695 855 695 c 0
 861 695 867 683 868 678 c 1
 868 678 857 633 857 577 c 2
 857 259 l 1
 865 261 883 265 891 272 c 0
 980 349 1009 368 1009 388 c 0
 1009 408 969 401 963 405 c 1
 960 414 960 439 965 441 c 1
 965 441 1037 440 1079 440 c 0
 1115 440 1138 440 1183 442 c 1
 1191 437 1187 405 1184 405 c 0
 1155 405 1126 389 1114 382 c 0
 1093 370 1032 330 977 273 c 1
 1052 192 1144 79 1171 59 c 1
 1191 42 1227 33 1235 33 c 0
 1238 33 1240 21 1240 14 c 0
 1240 9 1239 -1 1238 -3 c 1
 1198 -1 1150 3 1112 3 c 0
 1071 3 1020 -2 979 -4 c 1
 974 1 974 33 979 33 c 0
 990 33 1015 39 1015 46 c 0
 1015 47 1015 48 1014 49 c 2
 868 216 l 1
 857 213 l 1
 857 149 l 2
 857 115 857 85 864 58 c 0
 867 47 919 33 927 33 c 0
 932 33 931 2 929 -4 c 1
 888 -2 831 4 792 4 c 0
 750 4 697 -2 655 -4 c 1
 650 1 650 33 655 33 c 0
 667 33 717 47 720 58 c 0
 726 84 727 127 727 134 c 2
 727 515 l 2xae80
336 620 m 0xd680
 251 619 228 551 230 475 c 2
 231 434 l 2
 231 432 231 430 236 430 c 2
 406 430 l 2
 409 430 411 432 411 435 c 2
 411 437 l 0xd680
 411 456 417 501 419 516 c 0
 419 519 420 523 420 528 c 0xd580
 420 536 414 557 411 562 c 0
 401 578 378 620 336 620 c 0xd680
EndSplineSet
Validated: 33
LCarets2: 2 0 0 
Ligature2: "'liga' Standard Ligatures in Latin lookup 0-1" f f k
EndChar

StartChar: f_h
Encoding: 61705 61705 255
Width: 935
Flags: W
HStem: -4 37<26.4365 86.3777 245.119 303.998 342.437 402.378 560.833 615.997 631.437 687.715 846.119 904.997> 372 57<45.0468 101 231 347.454> 634 62<283.921 388.102>
VStem: 101 130<46.8035 371.997 430.055 534.844> 417 130<46.8035 348.197 388.003 602.315> 702 130<46.8035 346.244>
LayerCount: 2
Fore
SplineSet
417 133 m 6
 417 514 l 2
 417 542 415 561 403 588 c 16
 392 613 373 634 333 634 c 0
 275 634 228 551 230 475 c 2
 231 434 l 2
 231 432 234 429 236 429 c 2
 347 429 l 2
 352 429 352 428 352 422 c 0
 352 413 347 386 340 372 c 1
 237 372 l 2
 234 372 231 369 231 366 c 0
 231 276 231 149 231 149 c 2
 231 115 231 85 238 58 c 0
 241 47 293 33 301 33 c 0
 306 33 305 2 303 -4 c 1
 262 -2 205 4 166 4 c 0
 124 4 71 -2 29 -4 c 1
 24 1 24 33 29 33 c 0
 41 33 91 47 94 58 c 0
 100 84 101 127 101 134 c 2
 101 134 101 276 101 365 c 0
 101 368 99 372 96 372 c 2
 43 372 l 2
 41 372 40 374 40 378 c 0
 40 391 50 430 55 430 c 2
 96 430 l 2
 99 430 101 433 101 436 c 2
 101 440 l 0
 101 570 223 696 371 696 c 0
 395 696 420 678 436 678 c 0
 477 678 536 695 545 695 c 0
 551 695 557 683 558 678 c 1
 558 678 547 633 547 577 c 2
 547 396 l 2
 547 392 549 388 552 388 c 0
 554 388 556 392 558 394 c 0
 575 411 627 447 678 447 c 27
 761 447 832 388 832 300 c 2
 832 149 l 6
 832 115 832 85 839 58 c 4
 842 47 894 33 902 33 c 4
 907 33 906 2 904 -4 c 5
 863 -2 806 4 767 4 c 4
 725 4 676 -2 634 -4 c 5
 629 1 629 33 634 33 c 4
 646 33 692 47 695 58 c 4
 701 84 702 127 702 134 c 6
 702 224 l 2
 702 330 685 371 624 371 c 0
 589 371 561 343 551 328 c 0
 548 324 547 320 547 317 c 2
 547 149 l 6
 547 115 547 85 554 58 c 4
 557 47 605 33 613 33 c 4
 618 33 617 2 615 -4 c 5
 574 -2 521 4 482 4 c 4
 440 4 387 -2 345 -4 c 5
 340 1 340 33 345 33 c 4
 357 33 407 47 410 58 c 4
 416 84 417 127 417 133 c 6
EndSplineSet
Validated: 33
LCarets2: 1 354 
Ligature2: "'liga' Standard Ligatures in Latin lookup 0-1" f h
EndChar

StartChar: f_f_h
Encoding: 61706 61706 256
Width: 1245
Flags: W
HStem: -4 37<26.4365 86.3777 245.119 303.998 336.437 396.378 555.119 613.997 652.437 712.378 870.833 925.997 941.437 997.715 1156.12 1215> 370 60<45.625 101 231 411 541 657.231> 371 17<862 934> 620 62<268.999 384.029> 634 62<593.69 698.102>
VStem: 101 130<46.8035 369.997 430 538> 411 130<46.8035 369.997 430.055 527.766> 420 120<430.055 571.145> 727 130<46.8035 348.197 388.003 602.315> 1012 130<46.8035 346.244>
LayerCount: 2
Fore
SplineSet
727 133 m 2xaec0
 727 514 l 2
 727 542 725 561 713 588 c 16
 702 613 683 634 643 634 c 0
 585 634 538 551 540 475 c 2xadc0
 541 434 l 2
 541 432 544 429 546 429 c 2
 657 429 l 2
 662 429 662 428 662 422 c 0
 662 413 657 384 650 370 c 1
 547 370 l 2
 544 370 541 367 541 364 c 0
 541 274 541 149 541 149 c 2
 541 115 541 85 548 58 c 0
 551 47 603 33 611 33 c 0
 616 33 615 2 613 -4 c 1
 572 -2 515 4 476 4 c 0
 434 4 381 -2 339 -4 c 1
 334 1 334 33 339 33 c 0
 351 33 401 47 404 58 c 0
 410 84 411 127 411 134 c 2
 411 134 411 274 411 363 c 0
 411 366 409 370 406 370 c 2
 236 370 l 2
 232 370 231 367 231 364 c 0
 231 274 231 149 231 149 c 2
 231 115 231 85 238 58 c 0
 241 47 293 33 301 33 c 0
 306 33 305 2 303 -4 c 1
 262 -2 205 4 166 4 c 0
 124 4 71 -2 29 -4 c 1
 24 1 24 33 29 33 c 0
 41 33 91 47 94 58 c 0
 100 84 101 127 101 134 c 2
 101 134 101 274 101 363 c 0
 101 366 99 370 96 370 c 2
 43 370 l 2
 41 370 40 372 40 376 c 0
 40 389 50 430 55 430 c 2
 96 430 l 2
 99 430 101 433 101 436 c 2
 101 443 l 0
 101 580 227 681 337 682 c 0xd6c0
 398 682 468 675 501 642 c 1
 535 676 586 696 681 696 c 0
 705 696 730 678 746 678 c 0
 787 678 846 695 855 695 c 0
 861 695 867 683 868 678 c 1
 868 678 857 633 857 577 c 2
 857 396 l 2
 857 392 859 388 862 388 c 0
 864 388 866 392 868 394 c 0
 885 411 937 447 988 447 c 27
 1071 447 1142 388 1142 300 c 2
 1142 149 l 2
 1143 115 1142 85 1149 58 c 0
 1152 47 1204 33 1212 33 c 0
 1217 33 1216 2 1214 -4 c 1
 1173 -2 1116 4 1077 4 c 0
 1035 4 986 -2 944 -4 c 1
 939 1 939 33 944 33 c 0
 956 33 1002 47 1005 58 c 0
 1011 84 1012 127 1012 134 c 2
 1012 224 l 2
 1012 330 995 371 934 371 c 0
 899 371 871 343 861 328 c 0
 858 324 857 320 857 317 c 2
 857 149 l 2
 858 115 857 85 864 58 c 0
 867 47 915 33 923 33 c 0
 928 33 927 2 925 -4 c 1
 884 -2 831 4 792 4 c 0
 750 4 697 -2 655 -4 c 1
 650 1 650 33 655 33 c 0
 667 33 717 47 720 58 c 0
 726 84 727 127 727 133 c 2xaec0
336 620 m 0xd6c0
 251 619 228 551 230 475 c 2
 231 434 l 2
 231 432 231 430 236 430 c 2
 406 430 l 2
 409 430 411 432 411 435 c 2
 411 437 l 0xd6c0
 411 456 417 501 419 516 c 0
 419 519 420 523 420 528 c 0xd5c0
 420 536 414 557 411 562 c 0
 401 578 378 620 336 620 c 0xd6c0
EndSplineSet
Validated: 33
LCarets2: 2 0 0 
Ligature2: "'liga' Standard Ligatures in Latin lookup 0-1" f f h
EndChar

StartChar: f_j
Encoding: 61707 61707 257
Width: 579
Flags: W
HStem: -218 34<309.177 332.393> -4 34<25.0272 79.9115 241.816 292.082> 372 57<39.0468 95 225 395.159> 424 20G<536.5 541> 542 154<413.104 508.871> 634 62<277.921 381.761>
VStem: 95 130<43.8035 371.997 430.055 534.844> 397 144<563.625 617.911> 411 130<-40.2156 356.881>
LayerCount: 2
Fore
SplineSet
411 277 m 2xd280
 411 288 409 336 393 353 c 0
 377 371 362 372 334 372 c 0
 231 372 l 2
 228 372 225 369 225 366 c 0
 225 276 225 146 225 146 c 2
 225 112 226 83 233 55 c 0
 236 44 281 30 289 30 c 0
 294 30 293 2 291 -4 c 1
 250 -2 199 4 160 4 c 0
 118 4 71 -2 29 -4 c 1
 26 -1 25 7 25 15 c 3
 25 23 27 30 29 30 c 0
 41 30 85 44 88 55 c 0
 94 81 95 124 95 131 c 2
 95 131 95 276 95 365 c 0
 95 368 93 372 90 372 c 2
 37 372 l 2
 35 372 34 374 34 378 c 0
 34 391 44 430 49 430 c 2
 90 430 l 2
 93 430 95 433 95 436 c 2
 95 440 l 0
 95 570 217 696 365 696 c 0xe680
 426 696 451 693 467 690 c 0
 509 683 541 657 541 616 c 0
 541 575 508 542 467 542 c 0xcb
 433 542 408 562 397 588 c 0
 386 613 367 634 327 634 c 0
 269 634 222 551 224 475 c 2
 225 434 l 2
 225 432 228 429 230 429 c 2
 439 429 l 2xe7
 444 429 493 430 525 441 c 0
 526 441 536 444 537 444 c 0
 545 444 551 432 551 427 c 0
 547 395 541 361 541 326 c 2
 541 120 l 2
 541 36 528 -47 493 -102 c 0
 459 -156 352 -218 324 -218 c 1
 317 -214 308 -206 308 -194 c 0
 308 -192 308 -185 309 -184 c 0
 313 -182 411 -145 411 100 c 2
 411 277 l 2xd280
EndSplineSet
Validated: 33
LCarets2: 1 0 
Ligature2: "'liga' Standard Ligatures in Latin lookup 0-1" f j
EndChar

StartChar: f_f_j
Encoding: 61708 61708 258
Width: 895
Flags: W
HStem: -218 34<624.177 648.393> -4 37<26.4365 86.3777 245.119 303.998 336.437 396.378 555.119 613.997> 370 60<45.625 101 231 411 541 712.499> 424 20G<852.5 857> 542 154<729.104 824.871> 620 62<268.999 384.029> 634 62<592.892 698.189>
VStem: 101 130<46.8035 369.997 430.002 538.141> 411 130<46.8035 369.881 430.055 527.766> 420 120<430.055 571.145> 713 144<563.625 617.911> 727 130<-40.2156 356.881>
LayerCount: 2
Fore
SplineSet
411 134 m 2xd390
 411 134 411 274 411 363 c 0
 411 366 409 370 406 370 c 2
 237 370 l 2
 234 370 231 367 231 364 c 0
 231 274 231 149 231 149 c 2
 231 115 231 85 238 58 c 0
 241 47 293 33 301 33 c 0
 306 33 305 2 303 -4 c 1
 262 -2 205 4 166 4 c 0
 124 4 71 -2 29 -4 c 1
 24 1 24 33 29 33 c 0
 41 33 91 47 94 58 c 0
 100 84 101 127 101 134 c 2
 101 134 101 274 101 363 c 0
 101 366 99 370 96 370 c 2
 43 370 l 2
 41 370 40 372 40 376 c 0
 40 389 50 430 55 430 c 2
 96 430 l 2
 99 430 101 433 101 436 c 2
 101 443 l 0
 101 580 227 682 337 682 c 0xe590
 398 682 468 675 501 642 c 1
 535 676 635 696 679 696 c 0xc390
 741 696 767 693 783 690 c 0
 825 683 857 657 857 616 c 0
 857 575 824 542 783 542 c 0xc9a0
 749 542 724 562 713 588 c 0
 702 613 683 634 643 634 c 0
 585 634 538 551 540 475 c 2xc360
 541 434 l 2
 541 432 544 429 546 429 c 2
 755 429 l 2
 760 429 809 430 841 441 c 0
 842 441 852 444 853 444 c 0
 861 444 867 432 867 427 c 0
 863 395 857 361 857 326 c 2
 857 120 l 2
 857 36 844 -47 809 -102 c 0
 775 -156 667 -218 639 -218 c 1
 632 -214 623 -206 623 -194 c 0
 623 -192 624 -185 625 -184 c 0
 629 -182 727 -145 727 100 c 2
 727 277 l 2
 727 288 725 336 709 353 c 0
 693 371 678 372 650 372 c 0
 547 372 l 2
 544 372 541 369 541 365 c 0
 541 275 541 149 541 149 c 2
 541 115 541 85 548 58 c 0
 551 47 603 33 611 33 c 0
 616 33 615 2 613 -4 c 1
 572 -2 515 4 476 4 c 0
 434 4 381 -2 339 -4 c 1
 334 1 334 33 339 33 c 0
 351 33 401 47 404 58 c 0
 410 84 411 127 411 134 c 2xd390
419 516 m 0
 419 519 420 523 420 528 c 0xe540
 420 536 414 557 411 562 c 0
 401 578 378 620 336 620 c 0
 251 620 228 551 230 475 c 2
 231 434 l 2
 231 432 233 430 235 430 c 2
 406 430 l 2
 409 430 411 433 411 436 c 2
 411 437 l 0
 411 456 417 501 419 516 c 0
EndSplineSet
Validated: 33
LCarets2: 2 0 0 
Ligature2: "'liga' Standard Ligatures in Latin lookup 0-1" f f j
EndChar

